%TF.GenerationSoftware,KiCad,Pcbnew,10.0.2-10.0.2~ubuntu24.04.1*%
%TF.CreationDate,2026-05-19T00:47:11+02:00*%
%TF.ProjectId,SmartStepperServo,536d6172-7453-4746-9570-706572536572,rev?*%
%TF.SameCoordinates,Original*%
%TF.FileFunction,Copper,L2,Bot*%
%TF.FilePolarity,Positive*%
%FSLAX46Y46*%
G04 Gerber Fmt 4.6, Leading zero omitted, Abs format (unit mm)*
G04 Created by KiCad (PCBNEW 10.0.2-10.0.2~ubuntu24.04.1) date 2026-05-19 00:47:11*
%MOMM*%
%LPD*%
G01*
G04 APERTURE LIST*
G04 Aperture macros list*
%AMRoundRect*
0 Rectangle with rounded corners*
0 $1 Rounding radius*
0 $2 $3 $4 $5 $6 $7 $8 $9 X,Y pos of 4 corners*
0 Add a 4 corners polygon primitive as box body*
4,1,4,$2,$3,$4,$5,$6,$7,$8,$9,$2,$3,0*
0 Add four circle primitives for the rounded corners*
1,1,$1+$1,$2,$3*
1,1,$1+$1,$4,$5*
1,1,$1+$1,$6,$7*
1,1,$1+$1,$8,$9*
0 Add four rect primitives between the rounded corners*
20,1,$1+$1,$2,$3,$4,$5,0*
20,1,$1+$1,$4,$5,$6,$7,0*
20,1,$1+$1,$6,$7,$8,$9,0*
20,1,$1+$1,$8,$9,$2,$3,0*%
G04 Aperture macros list end*
%TA.AperFunction,ComponentPad*%
%ADD10C,1.600000*%
%TD*%
%TA.AperFunction,ComponentPad*%
%ADD11C,1.508000*%
%TD*%
%TA.AperFunction,ComponentPad*%
%ADD12R,1.508000X1.508000*%
%TD*%
%TA.AperFunction,ComponentPad*%
%ADD13RoundRect,0.250000X0.550000X-0.550000X0.550000X0.550000X-0.550000X0.550000X-0.550000X-0.550000X0*%
%TD*%
%TA.AperFunction,ComponentPad*%
%ADD14RoundRect,0.250000X-0.550000X0.550000X-0.550000X-0.550000X0.550000X-0.550000X0.550000X0.550000X0*%
%TD*%
%TA.AperFunction,ComponentPad*%
%ADD15RoundRect,0.250000X-0.725000X0.600000X-0.725000X-0.600000X0.725000X-0.600000X0.725000X0.600000X0*%
%TD*%
%TA.AperFunction,ComponentPad*%
%ADD16O,1.950000X1.700000*%
%TD*%
%TA.AperFunction,ComponentPad*%
%ADD17C,1.524000*%
%TD*%
%TA.AperFunction,ComponentPad*%
%ADD18R,1.524000X1.524000*%
%TD*%
%TA.AperFunction,ComponentPad*%
%ADD19O,1.700000X1.950000*%
%TD*%
%TA.AperFunction,ComponentPad*%
%ADD20RoundRect,0.250000X-0.600000X-0.725000X0.600000X-0.725000X0.600000X0.725000X-0.600000X0.725000X0*%
%TD*%
%TA.AperFunction,ComponentPad*%
%ADD21C,1.140000*%
%TD*%
%TA.AperFunction,ComponentPad*%
%ADD22C,1.700000*%
%TD*%
%TA.AperFunction,ComponentPad*%
%ADD23O,1.700000X1.700000*%
%TD*%
%TA.AperFunction,ViaPad*%
%ADD24C,1.000000*%
%TD*%
%TA.AperFunction,Conductor*%
%ADD25C,0.200000*%
%TD*%
%TA.AperFunction,Conductor*%
%ADD26C,1.000000*%
%TD*%
%TA.AperFunction,Conductor*%
%ADD27C,0.600000*%
%TD*%
G04 APERTURE END LIST*
D10*
%TO.P,C2,2*%
%TO.N,GND*%
X20455000Y-60815000D03*
%TO.P,C2,1*%
%TO.N,+12V*%
X20455000Y-63315000D03*
%TD*%
%TO.P,R5,2*%
%TO.N,/TMC_TX*%
X51055000Y-63875000D03*
%TO.P,R5,1*%
%TO.N,/TMC_RX*%
X51055000Y-56255000D03*
%TD*%
%TO.P,R3,1*%
%TO.N,/TMC_EN*%
X48915000Y-40885000D03*
%TO.P,R3,2*%
%TO.N,+3.3V*%
X56535000Y-40885000D03*
%TD*%
%TO.P,R7,2*%
%TO.N,+3.3V*%
X18315000Y-40885000D03*
%TO.P,R7,1*%
%TO.N,/TMC_DIAG*%
X25935000Y-40885000D03*
%TD*%
D11*
%TO.P,U2,18,DIAG_18*%
%TO.N,/TMC_DIAG*%
X41265000Y-63555000D03*
%TO.P,U2,17,INDEX_17*%
%TO.N,unconnected-(U2-INDEX-Pad17)*%
X38725000Y-63555000D03*
%TO.P,U2,16,~{EN}_16*%
%TO.N,/TMC_EN*%
X43805000Y-63555000D03*
%TO.P,U2,15,MS1_15*%
%TO.N,GND*%
X43805000Y-61015000D03*
%TO.P,U2,14,MS2_14*%
X43805000Y-58475000D03*
%TO.P,U2,13,SPRD_13*%
%TO.N,/TMC_RX*%
X43805000Y-55935000D03*
%TO.P,U2,12,UART_12*%
%TO.N,GND*%
X43805000Y-53395000D03*
%TO.P,U2,11,PDN_11*%
X43805000Y-50855000D03*
%TO.P,U2,10,STEP_10*%
%TO.N,/TMC_STEP*%
X43805000Y-48315000D03*
%TO.P,U2,9,DIR_9*%
%TO.N,/TMC_DIR*%
X43805000Y-45775000D03*
%TO.P,U2,8,VM_8*%
%TO.N,+12V*%
X31105000Y-63555000D03*
%TO.P,U2,7,GND_7*%
%TO.N,GND*%
X31105000Y-61015000D03*
%TO.P,U2,6,M2B_6*%
%TO.N,/M2A*%
X31105000Y-58475000D03*
%TO.P,U2,5,M2A_5*%
%TO.N,/M2B*%
X31105000Y-55935000D03*
%TO.P,U2,4,M1A_4*%
%TO.N,/M1A*%
X31105000Y-53395000D03*
%TO.P,U2,3,M1B_3*%
%TO.N,/M1B*%
X31105000Y-50855000D03*
%TO.P,U2,2,VIO_2*%
%TO.N,+3.3V*%
X31105000Y-48315000D03*
D12*
%TO.P,U2,1,GND_1*%
%TO.N,GND*%
X31105000Y-45775000D03*
%TD*%
D10*
%TO.P,R2,2*%
%TO.N,+3.3V*%
X18315000Y-37485000D03*
%TO.P,R2,1*%
%TO.N,/I2C_SDA*%
X25935000Y-37485000D03*
%TD*%
%TO.P,R6,2*%
%TO.N,+3.3V*%
X47455000Y-63875000D03*
%TO.P,R6,1*%
%TO.N,/TMC_RX*%
X47455000Y-56255000D03*
%TD*%
%TO.P,C1,2*%
%TO.N,GND*%
X25855000Y-60617380D03*
D13*
%TO.P,C1,1*%
%TO.N,+12V*%
X25855000Y-63117380D03*
%TD*%
%TO.P,C3,1*%
%TO.N,GND*%
X52725000Y-27467400D03*
D10*
%TO.P,C3,2*%
%TO.N,+5V*%
X52725000Y-24967400D03*
%TD*%
D14*
%TO.P,C4,1*%
%TO.N,GND*%
X52725000Y-32985000D03*
D10*
%TO.P,C4,2*%
%TO.N,+5V*%
X52725000Y-35485000D03*
%TD*%
D15*
%TO.P,J2,1,Pin_1_1*%
%TO.N,+3.3V*%
X22500000Y-21485000D03*
D16*
%TO.P,J2,2,Pin_2_2*%
%TO.N,/I2C_SDA*%
X22500000Y-23985000D03*
%TO.P,J2,3,Pin_3_3*%
%TO.N,/I2C_SCL*%
X22500000Y-26485000D03*
%TO.P,J2,4,Pin_4_4*%
%TO.N,GND*%
X22500000Y-28985000D03*
%TD*%
D10*
%TO.P,C6,1*%
%TO.N,+5V*%
X72625000Y-62825000D03*
%TO.P,C6,2*%
%TO.N,GND*%
X72625000Y-60325000D03*
%TD*%
D16*
%TO.P,J3,4,Pin_4_4*%
%TO.N,/M2B*%
X22605000Y-54695000D03*
%TO.P,J3,3,Pin_3_3*%
%TO.N,/M2A*%
X22605000Y-52195000D03*
%TO.P,J3,2,Pin_2_2*%
%TO.N,/M1B*%
X22605000Y-49695000D03*
D15*
%TO.P,J3,1,Pin_1_1*%
%TO.N,/M1A*%
X22605000Y-47195000D03*
%TD*%
D10*
%TO.P,C5,1*%
%TO.N,GND*%
X53775000Y-20085000D03*
%TO.P,C5,2*%
%TO.N,+5V*%
X51275000Y-20085000D03*
%TD*%
%TO.P,R4,1*%
%TO.N,Net-(R4-Pad1)*%
X60955000Y-33995000D03*
%TO.P,R4,2*%
%TO.N,/FT_TX*%
X68575000Y-33995000D03*
%TD*%
D17*
%TO.P,U4,GND_1,GND_GND_1*%
%TO.N,GND*%
X68625000Y-20195000D03*
%TO.P,U4,GND_2,GND_GND_2*%
X68625000Y-30355000D03*
%TO.P,U4,HV,HV_HV*%
%TO.N,+5V*%
X66085000Y-20195000D03*
D18*
%TO.P,U4,HV1,HV1_HV1*%
%TO.N,/TTL_1_Wire*%
X61005000Y-20195000D03*
D17*
%TO.P,U4,HV2,HV2_HV2*%
X63545000Y-20195000D03*
%TO.P,U4,HV3,HV3_HV3*%
%TO.N,unconnected-(U4-PadHV3)*%
X71165000Y-20195000D03*
%TO.P,U4,HV4,HV4_HV4*%
%TO.N,unconnected-(U4-PadHV4)*%
X73705000Y-20195000D03*
%TO.P,U4,LV,LV_LV*%
%TO.N,+3.3V*%
X66085000Y-30355000D03*
D18*
%TO.P,U4,LV1,LV1_LV1*%
%TO.N,Net-(R4-Pad1)*%
X61005000Y-30355000D03*
D17*
%TO.P,U4,LV2,LV2_LV2*%
%TO.N,/FT_RX*%
X63545000Y-30355000D03*
%TO.P,U4,LV3,LV3_LV3*%
%TO.N,unconnected-(U4-PadLV3)*%
X71165000Y-30355000D03*
%TO.P,U4,LV4,LV4_LV4*%
%TO.N,unconnected-(U4-PadLV4)*%
X73705000Y-30355000D03*
%TD*%
D19*
%TO.P,J1,3,Pin_3_3*%
%TO.N,GND*%
X66425000Y-61375000D03*
%TO.P,J1,2,Pin_2_2*%
%TO.N,/TTL_1_Wire*%
X63925000Y-61375000D03*
D20*
%TO.P,J1,1,Pin_1_1*%
%TO.N,+12V*%
X61425000Y-61375000D03*
%TD*%
D10*
%TO.P,R1,1*%
%TO.N,/I2C_SCL*%
X25935000Y-34085000D03*
%TO.P,R1,2*%
%TO.N,+3.3V*%
X18315000Y-34085000D03*
%TD*%
D21*
%TO.P,U1,1,GPIO0_1*%
%TO.N,unconnected-(U1-GPIO0-Pad1)*%
X45045000Y-39375000D03*
%TO.P,U1,2,GPIO1_2*%
%TO.N,/FT_TX*%
X45045000Y-36835000D03*
%TO.P,U1,3,GPIO2_3*%
%TO.N,/TMC_DIR*%
X45045000Y-34295000D03*
%TO.P,U1,4,GPIO3_4*%
%TO.N,/TMC_EN*%
X45045000Y-31755000D03*
%TO.P,U1,5,GPIO4_5*%
%TO.N,/TMC_STEP*%
X45045000Y-29215000D03*
%TO.P,U1,6,3V3_6*%
%TO.N,+3.3V*%
X45045000Y-26675000D03*
%TO.P,U1,7,GND_7*%
%TO.N,GND*%
X45045000Y-24135000D03*
%TO.P,U1,8,5V_8*%
%TO.N,+5V*%
X45045000Y-21595000D03*
%TO.P,U1,9,GPIO5_9*%
%TO.N,/TMC_RX*%
X29805000Y-21595000D03*
%TO.P,U1,10,GPIO6_10*%
%TO.N,/TMC_TX*%
X29805000Y-24135000D03*
%TO.P,U1,11,GPIO7_11*%
%TO.N,/FT_RX*%
X29805000Y-26675000D03*
%TO.P,U1,12,GPIO8_12*%
%TO.N,unconnected-(U1-GPIO8-Pad12)*%
X29805000Y-29215000D03*
%TO.P,U1,13,GPIO9_13*%
%TO.N,unconnected-(U1-GPIO9-Pad13)*%
X29805000Y-31755000D03*
%TO.P,U1,14,GPIO10_14*%
%TO.N,/I2C_SCL*%
X29805000Y-34295000D03*
%TO.P,U1,15,GPIO20_15*%
%TO.N,/I2C_SDA*%
X29805000Y-36835000D03*
%TO.P,U1,16,GPIO21_16*%
%TO.N,/TMC_DIAG*%
X29805000Y-39375000D03*
%TD*%
D22*
%TO.P,U3,OUT-,OUT-_OUT-*%
%TO.N,GND*%
X70835000Y-37885000D03*
X73375000Y-37885000D03*
%TO.P,U3,OUT+,OUT+_OUT+*%
%TO.N,+5V*%
X63215000Y-37885000D03*
D23*
X60675000Y-37885000D03*
D22*
%TO.P,U3,IN-,IN-_IN-*%
%TO.N,GND*%
X73375000Y-55665000D03*
X70835000Y-55665000D03*
%TO.P,U3,IN+,IN+_IN+*%
%TO.N,+12V*%
X63225000Y-55665000D03*
X60675000Y-55665000D03*
%TD*%
D24*
%TO.N,+12V*%
X34725000Y-63435000D03*
X55725000Y-54435000D03*
%TD*%
%TO.N,GND*%
D25*
X43805000Y-53395000D02*
X44800000Y-54390000D01*
D26*
X43805000Y-50855000D02*
X44470000Y-50190000D01*
X44470000Y-50190000D02*
X44520000Y-50190000D01*
%TO.N,/FT_TX*%
D25*
X45045000Y-36835000D02*
X45190000Y-36690000D01*
X45190000Y-36690000D02*
X65880000Y-36690000D01*
X65880000Y-36690000D02*
X68575000Y-33995000D01*
%TO.N,+5V*%
D27*
X66085000Y-20195000D02*
X63680000Y-17790000D01*
X63680000Y-17790000D02*
X59902400Y-17790000D01*
X59902400Y-17790000D02*
X52725000Y-24967400D01*
%TO.N,+12V*%
D26*
X55725000Y-64685000D02*
X55725000Y-54435000D01*
%TO.N,/TMC_RX*%
D25*
X42735000Y-54865000D02*
X43805000Y-55935000D01*
X42735000Y-43340600D02*
X42735000Y-54865000D01*
X29879400Y-30485000D02*
X42735000Y-43340600D01*
X29765700Y-30485000D02*
X29879400Y-30485000D01*
X28517800Y-29237100D02*
X29765700Y-30485000D01*
%TO.N,/TMC_TX*%
X51055000Y-63875000D02*
X45416900Y-58236900D01*
X45416900Y-58236900D02*
X45416900Y-43556900D01*
X45416900Y-43556900D02*
X28919500Y-27059500D01*
X28919500Y-27059500D02*
X28919500Y-25020500D01*
%TO.N,/FT_RX*%
X29805000Y-26675000D02*
X31067600Y-27937600D01*
X31067600Y-27937600D02*
X47902500Y-27937600D01*
%TO.N,+12V*%
D26*
X36975000Y-65685000D02*
X54725000Y-65685000D01*
X34725000Y-63435000D02*
X36975000Y-65685000D01*
%TO.N,/TMC_TX*%
D25*
X28919500Y-25020500D02*
X29805000Y-24135000D01*
%TO.N,/TMC_DIAG*%
X29805000Y-39375000D02*
X41265000Y-50835000D01*
X41265000Y-50835000D02*
X41265000Y-63555000D01*
%TO.N,/TMC_RX*%
X28517800Y-22882200D02*
X28517800Y-29237100D01*
%TO.N,/TTL_1_Wire*%
X63925000Y-61375000D02*
X65076700Y-61375000D01*
X65076700Y-61375000D02*
X65076700Y-60223300D01*
X65076700Y-60223300D02*
X69678200Y-55621800D01*
X69678200Y-55621800D02*
X69678200Y-33503200D01*
X69678200Y-33503200D02*
X68413800Y-32238800D01*
X68413800Y-32238800D02*
X66419000Y-32238800D01*
X66419000Y-32238800D02*
X64815000Y-30634800D01*
X64815000Y-30634800D02*
X64815000Y-21465000D01*
X64815000Y-21465000D02*
X63545000Y-20195000D01*
%TO.N,GND*%
X72105000Y-33835000D02*
X72105000Y-39155000D01*
X68625000Y-30355000D02*
X68625000Y-20195000D01*
%TO.N,/FT_RX*%
X47902500Y-27937600D02*
X49037100Y-29072200D01*
X49037100Y-29072200D02*
X62262200Y-29072200D01*
X62262200Y-29072200D02*
X63545000Y-30355000D01*
%TO.N,GND*%
X68625000Y-30355000D02*
X72105000Y-33835000D01*
%TO.N,+12V*%
D26*
X54725000Y-65685000D02*
X55725000Y-64685000D01*
%TO.N,/TMC_RX*%
D25*
X29805000Y-21595000D02*
X28517800Y-22882200D01*
%TD*%
%TA.AperFunction,Conductor*%
%TO.N,GND*%
G36*
X76495787Y-16704685D02*
G01*
X76529063Y-16736112D01*
X76599207Y-16832656D01*
X76777345Y-17010794D01*
X76777350Y-17010798D01*
X76981153Y-17158869D01*
X77157294Y-17248617D01*
X77208091Y-17296591D01*
X77225000Y-17359102D01*
X77225000Y-65220897D01*
X77205315Y-65287936D01*
X77157295Y-65331382D01*
X76981151Y-65421132D01*
X76777350Y-65569201D01*
X76777345Y-65569205D01*
X76599205Y-65747345D01*
X76599201Y-65747350D01*
X76451132Y-65951151D01*
X76336760Y-66175616D01*
X76258909Y-66415214D01*
X76232747Y-66580398D01*
X76202818Y-66643533D01*
X76143506Y-66680464D01*
X76110274Y-66685000D01*
X55437782Y-66685000D01*
X55416269Y-66678683D01*
X55393910Y-66676980D01*
X55383390Y-66669028D01*
X55370743Y-66665315D01*
X55356061Y-66648371D01*
X55338171Y-66634849D01*
X55333620Y-66622473D01*
X55324988Y-66612511D01*
X55321797Y-66590318D01*
X55314058Y-66569272D01*
X55316920Y-66556402D01*
X55315044Y-66543353D01*
X55324359Y-66522955D01*
X55329227Y-66501069D01*
X55340591Y-66487411D01*
X55344069Y-66479797D01*
X55350508Y-66472913D01*
X55358483Y-66465011D01*
X55362782Y-66462139D01*
X55502139Y-66322782D01*
X55502140Y-66322779D01*
X56502140Y-65322781D01*
X56611632Y-65158914D01*
X56687052Y-64976835D01*
X56725501Y-64783540D01*
X56725501Y-64586459D01*
X56725501Y-64581349D01*
X56725500Y-64581323D01*
X56725500Y-55558713D01*
X59324500Y-55558713D01*
X59324500Y-55771286D01*
X59357735Y-55981127D01*
X59357754Y-55981243D01*
X59378632Y-56045500D01*
X59423444Y-56183414D01*
X59519951Y-56372820D01*
X59644890Y-56544786D01*
X59795213Y-56695109D01*
X59967179Y-56820048D01*
X59967181Y-56820049D01*
X59967184Y-56820051D01*
X60156588Y-56916557D01*
X60358757Y-56982246D01*
X60568713Y-57015500D01*
X60568714Y-57015500D01*
X60781286Y-57015500D01*
X60781287Y-57015500D01*
X60991243Y-56982246D01*
X61193412Y-56916557D01*
X61382816Y-56820051D01*
X61467741Y-56758350D01*
X61554786Y-56695109D01*
X61554788Y-56695106D01*
X61554792Y-56695104D01*
X61705104Y-56544792D01*
X61705106Y-56544788D01*
X61705109Y-56544786D01*
X61830050Y-56372817D01*
X61830187Y-56372550D01*
X61839515Y-56354242D01*
X61887488Y-56303446D01*
X61955309Y-56286650D01*
X62021444Y-56309187D01*
X62060485Y-56354242D01*
X62069949Y-56372817D01*
X62194890Y-56544786D01*
X62345213Y-56695109D01*
X62517179Y-56820048D01*
X62517181Y-56820049D01*
X62517184Y-56820051D01*
X62706588Y-56916557D01*
X62908757Y-56982246D01*
X63118713Y-57015500D01*
X63118714Y-57015500D01*
X63331286Y-57015500D01*
X63331287Y-57015500D01*
X63541243Y-56982246D01*
X63743412Y-56916557D01*
X63932816Y-56820051D01*
X64017741Y-56758350D01*
X64104786Y-56695109D01*
X64104788Y-56695106D01*
X64104792Y-56695104D01*
X64255104Y-56544792D01*
X64255106Y-56544788D01*
X64255109Y-56544786D01*
X64380048Y-56372820D01*
X64380050Y-56372817D01*
X64380051Y-56372816D01*
X64476557Y-56183412D01*
X64542246Y-55981243D01*
X64575500Y-55771287D01*
X64575500Y-55558713D01*
X64542246Y-55348757D01*
X64476557Y-55146588D01*
X64380051Y-54957184D01*
X64380049Y-54957181D01*
X64380048Y-54957179D01*
X64255109Y-54785213D01*
X64104786Y-54634890D01*
X63932820Y-54509951D01*
X63743414Y-54413444D01*
X63743413Y-54413443D01*
X63743412Y-54413443D01*
X63541243Y-54347754D01*
X63541241Y-54347753D01*
X63541240Y-54347753D01*
X63379957Y-54322208D01*
X63331287Y-54314500D01*
X63118713Y-54314500D01*
X63070042Y-54322208D01*
X62908760Y-54347753D01*
X62706585Y-54413444D01*
X62517179Y-54509951D01*
X62345213Y-54634890D01*
X62194890Y-54785213D01*
X62069949Y-54957182D01*
X62060484Y-54975759D01*
X62012510Y-55026554D01*
X61944689Y-55043349D01*
X61878554Y-55020811D01*
X61839516Y-54975759D01*
X61830050Y-54957182D01*
X61705109Y-54785213D01*
X61554786Y-54634890D01*
X61382820Y-54509951D01*
X61193414Y-54413444D01*
X61193413Y-54413443D01*
X61193412Y-54413443D01*
X60991243Y-54347754D01*
X60991241Y-54347753D01*
X60991240Y-54347753D01*
X60829957Y-54322208D01*
X60781287Y-54314500D01*
X60568713Y-54314500D01*
X60520042Y-54322208D01*
X60358760Y-54347753D01*
X60156585Y-54413444D01*
X59967179Y-54509951D01*
X59795213Y-54634890D01*
X59644890Y-54785213D01*
X59519951Y-54957179D01*
X59423444Y-55146585D01*
X59357753Y-55348760D01*
X59324500Y-55558713D01*
X56725500Y-55558713D01*
X56725500Y-54336456D01*
X56687052Y-54143170D01*
X56687051Y-54143169D01*
X56687051Y-54143165D01*
X56659997Y-54077850D01*
X56611635Y-53961092D01*
X56611628Y-53961079D01*
X56502139Y-53797218D01*
X56502136Y-53797214D01*
X56362785Y-53657863D01*
X56362781Y-53657860D01*
X56198920Y-53548371D01*
X56198907Y-53548364D01*
X56016839Y-53472950D01*
X56016829Y-53472947D01*
X55823543Y-53434500D01*
X55823541Y-53434500D01*
X55626459Y-53434500D01*
X55626457Y-53434500D01*
X55433170Y-53472947D01*
X55433160Y-53472950D01*
X55251092Y-53548364D01*
X55251079Y-53548371D01*
X55087218Y-53657860D01*
X55087214Y-53657863D01*
X54947863Y-53797214D01*
X54947860Y-53797218D01*
X54838371Y-53961079D01*
X54838364Y-53961092D01*
X54762950Y-54143160D01*
X54762947Y-54143170D01*
X54724500Y-54336456D01*
X54724500Y-64219217D01*
X54704815Y-64286256D01*
X54688181Y-64306898D01*
X54346899Y-64648181D01*
X54285576Y-64681666D01*
X54259218Y-64684500D01*
X52304474Y-64684500D01*
X52237435Y-64664815D01*
X52191680Y-64612011D01*
X52181736Y-64542853D01*
X52193989Y-64504205D01*
X52260218Y-64374223D01*
X52260218Y-64374222D01*
X52260220Y-64374219D01*
X52323477Y-64179534D01*
X52355500Y-63977352D01*
X52355500Y-63772648D01*
X52323477Y-63570466D01*
X52311480Y-63533544D01*
X52260218Y-63375776D01*
X52226503Y-63309607D01*
X52167287Y-63193390D01*
X52130796Y-63143164D01*
X52046971Y-63027786D01*
X51902213Y-62883028D01*
X51736613Y-62762715D01*
X51736612Y-62762714D01*
X51736610Y-62762713D01*
X51657978Y-62722648D01*
X51554223Y-62669781D01*
X51359534Y-62606522D01*
X51184995Y-62578878D01*
X51157352Y-62574500D01*
X50952648Y-62574500D01*
X50914599Y-62580526D01*
X50750468Y-62606522D01*
X50741717Y-62609365D01*
X50736154Y-62611173D01*
X50666313Y-62613167D01*
X50610157Y-62580922D01*
X46053719Y-58024484D01*
X46020234Y-57963161D01*
X46017400Y-57936803D01*
X46017400Y-56814645D01*
X46037085Y-56747606D01*
X46089889Y-56701851D01*
X46159047Y-56691907D01*
X46222603Y-56720932D01*
X46251885Y-56758350D01*
X46342715Y-56936614D01*
X46463028Y-57102213D01*
X46607786Y-57246971D01*
X46762749Y-57359556D01*
X46773390Y-57367287D01*
X46889607Y-57426503D01*
X46955776Y-57460218D01*
X46955778Y-57460218D01*
X46955781Y-57460220D01*
X47060137Y-57494127D01*
X47150465Y-57523477D01*
X47251557Y-57539488D01*
X47352648Y-57555500D01*
X47352649Y-57555500D01*
X47557351Y-57555500D01*
X47557352Y-57555500D01*
X47759534Y-57523477D01*
X47954219Y-57460220D01*
X48136610Y-57367287D01*
X48229590Y-57299732D01*
X48302213Y-57246971D01*
X48302215Y-57246968D01*
X48302219Y-57246966D01*
X48446966Y-57102219D01*
X48446968Y-57102215D01*
X48446971Y-57102213D01*
X48499732Y-57029590D01*
X48567287Y-56936610D01*
X48660220Y-56754219D01*
X48723477Y-56559534D01*
X48755500Y-56357352D01*
X48755500Y-56152648D01*
X49754500Y-56152648D01*
X49754500Y-56357352D01*
X49756950Y-56372820D01*
X49786522Y-56559534D01*
X49849781Y-56754223D01*
X49883323Y-56820051D01*
X49942565Y-56936320D01*
X49942715Y-56936613D01*
X50063028Y-57102213D01*
X50207786Y-57246971D01*
X50362749Y-57359556D01*
X50373390Y-57367287D01*
X50489607Y-57426503D01*
X50555776Y-57460218D01*
X50555778Y-57460218D01*
X50555781Y-57460220D01*
X50660137Y-57494127D01*
X50750465Y-57523477D01*
X50851557Y-57539488D01*
X50952648Y-57555500D01*
X50952649Y-57555500D01*
X51157351Y-57555500D01*
X51157352Y-57555500D01*
X51359534Y-57523477D01*
X51554219Y-57460220D01*
X51736610Y-57367287D01*
X51829590Y-57299732D01*
X51902213Y-57246971D01*
X51902215Y-57246968D01*
X51902219Y-57246966D01*
X52046966Y-57102219D01*
X52046968Y-57102215D01*
X52046971Y-57102213D01*
X52099732Y-57029590D01*
X52167287Y-56936610D01*
X52260220Y-56754219D01*
X52323477Y-56559534D01*
X52355500Y-56357352D01*
X52355500Y-56152648D01*
X52329821Y-55990517D01*
X52323477Y-55950465D01*
X52260218Y-55755776D01*
X52226503Y-55689607D01*
X52167287Y-55573390D01*
X52133676Y-55527128D01*
X52046971Y-55407786D01*
X51902213Y-55263028D01*
X51736612Y-55142714D01*
X51554223Y-55049781D01*
X51359534Y-54986522D01*
X51175914Y-54957440D01*
X51157352Y-54954500D01*
X50952648Y-54954500D01*
X50935734Y-54957179D01*
X50750465Y-54986522D01*
X50555776Y-55049781D01*
X50373388Y-55142714D01*
X50207786Y-55263028D01*
X50063028Y-55407786D01*
X49942715Y-55573386D01*
X49849781Y-55755776D01*
X49786522Y-55950465D01*
X49761055Y-56111262D01*
X49754500Y-56152648D01*
X48755500Y-56152648D01*
X48729821Y-55990517D01*
X48723477Y-55950465D01*
X48660218Y-55755776D01*
X48626503Y-55689607D01*
X48567287Y-55573390D01*
X48533676Y-55527128D01*
X48446971Y-55407786D01*
X48302213Y-55263028D01*
X48136612Y-55142714D01*
X47954223Y-55049781D01*
X47759534Y-54986522D01*
X47575914Y-54957440D01*
X47557352Y-54954500D01*
X47352648Y-54954500D01*
X47335734Y-54957179D01*
X47150465Y-54986522D01*
X46955776Y-55049781D01*
X46773388Y-55142714D01*
X46607786Y-55263028D01*
X46463028Y-55407786D01*
X46342715Y-55573386D01*
X46251885Y-55751649D01*
X46203910Y-55802445D01*
X46136089Y-55819240D01*
X46069954Y-55796702D01*
X46026503Y-55741987D01*
X46017400Y-55695354D01*
X46017400Y-43645959D01*
X46017401Y-43645946D01*
X46017401Y-43477845D01*
X46017401Y-43477843D01*
X45976477Y-43325115D01*
X45960963Y-43298246D01*
X45939773Y-43261542D01*
X45939772Y-43261541D01*
X45897421Y-43188186D01*
X45897420Y-43188184D01*
X45785616Y-43076380D01*
X45785615Y-43076379D01*
X45781285Y-43072049D01*
X45781274Y-43072039D01*
X43491883Y-40782648D01*
X47614500Y-40782648D01*
X47614500Y-40987351D01*
X47646522Y-41189534D01*
X47709781Y-41384223D01*
X47802715Y-41566613D01*
X47923028Y-41732213D01*
X48067786Y-41876971D01*
X48222749Y-41989556D01*
X48233390Y-41997287D01*
X48349607Y-42056503D01*
X48415776Y-42090218D01*
X48415778Y-42090218D01*
X48415781Y-42090220D01*
X48520137Y-42124127D01*
X48610465Y-42153477D01*
X48711557Y-42169488D01*
X48812648Y-42185500D01*
X48812649Y-42185500D01*
X49017351Y-42185500D01*
X49017352Y-42185500D01*
X49219534Y-42153477D01*
X49414219Y-42090220D01*
X49596610Y-41997287D01*
X49689590Y-41929732D01*
X49762213Y-41876971D01*
X49762215Y-41876968D01*
X49762219Y-41876966D01*
X49906966Y-41732219D01*
X49906968Y-41732215D01*
X49906971Y-41732213D01*
X49959732Y-41659590D01*
X50027287Y-41566610D01*
X50120220Y-41384219D01*
X50183477Y-41189534D01*
X50215500Y-40987352D01*
X50215500Y-40782648D01*
X55234500Y-40782648D01*
X55234500Y-40987351D01*
X55266522Y-41189534D01*
X55329781Y-41384223D01*
X55422715Y-41566613D01*
X55543028Y-41732213D01*
X55687786Y-41876971D01*
X55842749Y-41989556D01*
X55853390Y-41997287D01*
X55969607Y-42056503D01*
X56035776Y-42090218D01*
X56035778Y-42090218D01*
X56035781Y-42090220D01*
X56140137Y-42124127D01*
X56230465Y-42153477D01*
X56331557Y-42169488D01*
X56432648Y-42185500D01*
X56432649Y-42185500D01*
X56637351Y-42185500D01*
X56637352Y-42185500D01*
X56839534Y-42153477D01*
X57034219Y-42090220D01*
X57216610Y-41997287D01*
X57309590Y-41929732D01*
X57382213Y-41876971D01*
X57382215Y-41876968D01*
X57382219Y-41876966D01*
X57526966Y-41732219D01*
X57526968Y-41732215D01*
X57526971Y-41732213D01*
X57579732Y-41659590D01*
X57647287Y-41566610D01*
X57740220Y-41384219D01*
X57803477Y-41189534D01*
X57835500Y-40987352D01*
X57835500Y-40782648D01*
X57803477Y-40580466D01*
X57740220Y-40385781D01*
X57740218Y-40385778D01*
X57740218Y-40385776D01*
X57706503Y-40319607D01*
X57647287Y-40203390D01*
X57639556Y-40192749D01*
X57526971Y-40037786D01*
X57382213Y-39893028D01*
X57216613Y-39772715D01*
X57216612Y-39772714D01*
X57216610Y-39772713D01*
X57159653Y-39743691D01*
X57034223Y-39679781D01*
X56839534Y-39616522D01*
X56664995Y-39588878D01*
X56637352Y-39584500D01*
X56432648Y-39584500D01*
X56408329Y-39588351D01*
X56230465Y-39616522D01*
X56035776Y-39679781D01*
X55853386Y-39772715D01*
X55687786Y-39893028D01*
X55543028Y-40037786D01*
X55422715Y-40203386D01*
X55329781Y-40385776D01*
X55266522Y-40580465D01*
X55234500Y-40782648D01*
X50215500Y-40782648D01*
X50183477Y-40580466D01*
X50120220Y-40385781D01*
X50120218Y-40385778D01*
X50120218Y-40385776D01*
X50086503Y-40319607D01*
X50027287Y-40203390D01*
X50019556Y-40192749D01*
X49906971Y-40037786D01*
X49762213Y-39893028D01*
X49596613Y-39772715D01*
X49596612Y-39772714D01*
X49596610Y-39772713D01*
X49539653Y-39743691D01*
X49414223Y-39679781D01*
X49219534Y-39616522D01*
X49044995Y-39588878D01*
X49017352Y-39584500D01*
X48812648Y-39584500D01*
X48788329Y-39588351D01*
X48610465Y-39616522D01*
X48415776Y-39679781D01*
X48233386Y-39772715D01*
X48067786Y-39893028D01*
X47923028Y-40037786D01*
X47802715Y-40203386D01*
X47709781Y-40385776D01*
X47646522Y-40580465D01*
X47614500Y-40782648D01*
X43491883Y-40782648D01*
X41978795Y-39269560D01*
X43974500Y-39269560D01*
X43974500Y-39480439D01*
X44015636Y-39687245D01*
X44015638Y-39687253D01*
X44096333Y-39882069D01*
X44096338Y-39882078D01*
X44213487Y-40057403D01*
X44213490Y-40057407D01*
X44362592Y-40206509D01*
X44362596Y-40206512D01*
X44537921Y-40323661D01*
X44537927Y-40323664D01*
X44537928Y-40323665D01*
X44732747Y-40404362D01*
X44907958Y-40439213D01*
X44939560Y-40445499D01*
X44939564Y-40445500D01*
X44939565Y-40445500D01*
X45150436Y-40445500D01*
X45150437Y-40445499D01*
X45357253Y-40404362D01*
X45552072Y-40323665D01*
X45727404Y-40206512D01*
X45876512Y-40057404D01*
X45993665Y-39882072D01*
X46074362Y-39687253D01*
X46115500Y-39480435D01*
X46115500Y-39269565D01*
X46074362Y-39062747D01*
X45993665Y-38867928D01*
X45993664Y-38867927D01*
X45993661Y-38867921D01*
X45876512Y-38692596D01*
X45876509Y-38692592D01*
X45727407Y-38543490D01*
X45727403Y-38543487D01*
X45552078Y-38426338D01*
X45552069Y-38426333D01*
X45357253Y-38345638D01*
X45357245Y-38345636D01*
X45150439Y-38304500D01*
X45150435Y-38304500D01*
X44939565Y-38304500D01*
X44939560Y-38304500D01*
X44732754Y-38345636D01*
X44732746Y-38345638D01*
X44537930Y-38426333D01*
X44537921Y-38426338D01*
X44362596Y-38543487D01*
X44362592Y-38543490D01*
X44213490Y-38692592D01*
X44213487Y-38692596D01*
X44096338Y-38867921D01*
X44096333Y-38867930D01*
X44015638Y-39062746D01*
X44015636Y-39062754D01*
X43974500Y-39269560D01*
X41978795Y-39269560D01*
X36898795Y-34189560D01*
X43974500Y-34189560D01*
X43974500Y-34400439D01*
X44015636Y-34607245D01*
X44015638Y-34607253D01*
X44096333Y-34802069D01*
X44096338Y-34802078D01*
X44213487Y-34977403D01*
X44213490Y-34977407D01*
X44362592Y-35126509D01*
X44362596Y-35126512D01*
X44537921Y-35243661D01*
X44537927Y-35243664D01*
X44537928Y-35243665D01*
X44732747Y-35324362D01*
X44939560Y-35365499D01*
X44939564Y-35365500D01*
X44939565Y-35365500D01*
X45150436Y-35365500D01*
X45150437Y-35365499D01*
X45357253Y-35324362D01*
X45552072Y-35243665D01*
X45727404Y-35126512D01*
X45876512Y-34977404D01*
X45993665Y-34802072D01*
X46074362Y-34607253D01*
X46115500Y-34400435D01*
X46115500Y-34189565D01*
X46074362Y-33982747D01*
X45993665Y-33787928D01*
X45993664Y-33787927D01*
X45993661Y-33787921D01*
X45876512Y-33612596D01*
X45876509Y-33612592D01*
X45727407Y-33463490D01*
X45727403Y-33463487D01*
X45552078Y-33346338D01*
X45552069Y-33346333D01*
X45357253Y-33265638D01*
X45357245Y-33265636D01*
X45150439Y-33224500D01*
X45150435Y-33224500D01*
X44939565Y-33224500D01*
X44939560Y-33224500D01*
X44732754Y-33265636D01*
X44732746Y-33265638D01*
X44537930Y-33346333D01*
X44537921Y-33346338D01*
X44362596Y-33463487D01*
X44362592Y-33463490D01*
X44213490Y-33612592D01*
X44213487Y-33612596D01*
X44096338Y-33787921D01*
X44096333Y-33787930D01*
X44015638Y-33982746D01*
X44015636Y-33982754D01*
X43974500Y-34189560D01*
X36898795Y-34189560D01*
X34358795Y-31649560D01*
X43974500Y-31649560D01*
X43974500Y-31860439D01*
X44015636Y-32067245D01*
X44015638Y-32067253D01*
X44096333Y-32262069D01*
X44096338Y-32262078D01*
X44213487Y-32437403D01*
X44213490Y-32437407D01*
X44362592Y-32586509D01*
X44362596Y-32586512D01*
X44537921Y-32703661D01*
X44537930Y-32703666D01*
X44575722Y-32719320D01*
X44732747Y-32784362D01*
X44894429Y-32816522D01*
X44939560Y-32825499D01*
X44939564Y-32825500D01*
X44939565Y-32825500D01*
X45150436Y-32825500D01*
X45150437Y-32825499D01*
X45357253Y-32784362D01*
X45552072Y-32703665D01*
X45727404Y-32586512D01*
X45876512Y-32437404D01*
X45911214Y-32385468D01*
X45959655Y-32312973D01*
X45959656Y-32312971D01*
X45993658Y-32262083D01*
X45993661Y-32262078D01*
X45993665Y-32262072D01*
X46074362Y-32067253D01*
X46115500Y-31860435D01*
X46115500Y-31649565D01*
X46074362Y-31442747D01*
X45993665Y-31247928D01*
X45993664Y-31247927D01*
X45993661Y-31247921D01*
X45876512Y-31072596D01*
X45876509Y-31072592D01*
X45727407Y-30923490D01*
X45727403Y-30923487D01*
X45552078Y-30806338D01*
X45552069Y-30806333D01*
X45357253Y-30725638D01*
X45357245Y-30725636D01*
X45150439Y-30684500D01*
X45150435Y-30684500D01*
X44939565Y-30684500D01*
X44939560Y-30684500D01*
X44732754Y-30725636D01*
X44732746Y-30725638D01*
X44537930Y-30806333D01*
X44537921Y-30806338D01*
X44362596Y-30923487D01*
X44362592Y-30923490D01*
X44213490Y-31072592D01*
X44213487Y-31072596D01*
X44096338Y-31247921D01*
X44096333Y-31247930D01*
X44015638Y-31442746D01*
X44015636Y-31442754D01*
X43974500Y-31649560D01*
X34358795Y-31649560D01*
X31459016Y-28749781D01*
X31425531Y-28688458D01*
X31430515Y-28618766D01*
X31472387Y-28562833D01*
X31537851Y-28538416D01*
X31546697Y-28538100D01*
X43981101Y-28538100D01*
X44048140Y-28557785D01*
X44093895Y-28610589D01*
X44103839Y-28679747D01*
X44095662Y-28709553D01*
X44015638Y-28902746D01*
X44015636Y-28902754D01*
X43974500Y-29109560D01*
X43974500Y-29320439D01*
X44015636Y-29527245D01*
X44015638Y-29527253D01*
X44096333Y-29722069D01*
X44096338Y-29722078D01*
X44213487Y-29897403D01*
X44213490Y-29897407D01*
X44362592Y-30046509D01*
X44362596Y-30046512D01*
X44537921Y-30163661D01*
X44537930Y-30163666D01*
X44582063Y-30181946D01*
X44732747Y-30244362D01*
X44939560Y-30285499D01*
X44939564Y-30285500D01*
X44939565Y-30285500D01*
X45150436Y-30285500D01*
X45150437Y-30285499D01*
X45357253Y-30244362D01*
X45552072Y-30163665D01*
X45727404Y-30046512D01*
X45876512Y-29897404D01*
X45993665Y-29722072D01*
X46074362Y-29527253D01*
X46115500Y-29320435D01*
X46115500Y-29109565D01*
X46074362Y-28902747D01*
X45994337Y-28709552D01*
X45986869Y-28640084D01*
X46018144Y-28577604D01*
X46078233Y-28541952D01*
X46108899Y-28538100D01*
X47602403Y-28538100D01*
X47669442Y-28557785D01*
X47690083Y-28574418D01*
X48668384Y-29552720D01*
X48668386Y-29552721D01*
X48668390Y-29552724D01*
X48805309Y-29631773D01*
X48805316Y-29631777D01*
X48958043Y-29672701D01*
X48958045Y-29672701D01*
X49123754Y-29672701D01*
X49123770Y-29672700D01*
X59618500Y-29672700D01*
X59685539Y-29692385D01*
X59731294Y-29745189D01*
X59742500Y-29796700D01*
X59742500Y-31164870D01*
X59742501Y-31164876D01*
X59748908Y-31224483D01*
X59799202Y-31359328D01*
X59799206Y-31359335D01*
X59885452Y-31474544D01*
X59885455Y-31474547D01*
X60000664Y-31560793D01*
X60000671Y-31560797D01*
X60135517Y-31611091D01*
X60135516Y-31611091D01*
X60142444Y-31611835D01*
X60195127Y-31617500D01*
X61814872Y-31617499D01*
X61874483Y-31611091D01*
X62009331Y-31560796D01*
X62124546Y-31474546D01*
X62210796Y-31359331D01*
X62261091Y-31224483D01*
X62267500Y-31164873D01*
X62267499Y-31126197D01*
X62287182Y-31059161D01*
X62339985Y-31013405D01*
X62409143Y-31003460D01*
X62472699Y-31032483D01*
X62491817Y-31053312D01*
X62582019Y-31177464D01*
X62722536Y-31317981D01*
X62883306Y-31434787D01*
X62951069Y-31469314D01*
X63060367Y-31525005D01*
X63060370Y-31525006D01*
X63154866Y-31555709D01*
X63249364Y-31586413D01*
X63445639Y-31617500D01*
X63445640Y-31617500D01*
X63644360Y-31617500D01*
X63644361Y-31617500D01*
X63840636Y-31586413D01*
X64029632Y-31525005D01*
X64206694Y-31434787D01*
X64367464Y-31317981D01*
X64420524Y-31264920D01*
X64481845Y-31231436D01*
X64551537Y-31236420D01*
X64595885Y-31264921D01*
X65297618Y-31966654D01*
X66050284Y-32719320D01*
X66050286Y-32719321D01*
X66050290Y-32719324D01*
X66162939Y-32784361D01*
X66187216Y-32798377D01*
X66339943Y-32839301D01*
X66339945Y-32839301D01*
X66505654Y-32839301D01*
X66505670Y-32839300D01*
X67592153Y-32839300D01*
X67659192Y-32858985D01*
X67704947Y-32911789D01*
X67714891Y-32980947D01*
X67685866Y-33044503D01*
X67679834Y-33050981D01*
X67583032Y-33147782D01*
X67583028Y-33147786D01*
X67462715Y-33313386D01*
X67369781Y-33495776D01*
X67306522Y-33690465D01*
X67274500Y-33892648D01*
X67274500Y-34097351D01*
X67306523Y-34299535D01*
X67311172Y-34313845D01*
X67313165Y-34383687D01*
X67280921Y-34439841D01*
X65667584Y-36053181D01*
X65606261Y-36086666D01*
X65579903Y-36089500D01*
X54066684Y-36089500D01*
X53999645Y-36069815D01*
X53953890Y-36017011D01*
X53943946Y-35947853D01*
X53948753Y-35927182D01*
X53993476Y-35789538D01*
X53993476Y-35789537D01*
X53993477Y-35789534D01*
X54025500Y-35587352D01*
X54025500Y-35382648D01*
X53996606Y-35200220D01*
X53993477Y-35180465D01*
X53959848Y-35076966D01*
X53930220Y-34985781D01*
X53930218Y-34985778D01*
X53930218Y-34985776D01*
X53857068Y-34842213D01*
X53837287Y-34803390D01*
X53810565Y-34766610D01*
X53716971Y-34637786D01*
X53572219Y-34493034D01*
X53515861Y-34452088D01*
X53473195Y-34396758D01*
X53467216Y-34327144D01*
X53499821Y-34265349D01*
X53549743Y-34234063D01*
X53594117Y-34219359D01*
X53594124Y-34219356D01*
X53743345Y-34127315D01*
X53867315Y-34003345D01*
X53935594Y-33892648D01*
X59654500Y-33892648D01*
X59654500Y-34097351D01*
X59686522Y-34299534D01*
X59749781Y-34494223D01*
X59842715Y-34676613D01*
X59963028Y-34842213D01*
X60107786Y-34986971D01*
X60231656Y-35076966D01*
X60273390Y-35107287D01*
X60389607Y-35166503D01*
X60455776Y-35200218D01*
X60455778Y-35200218D01*
X60455781Y-35200220D01*
X60560137Y-35234127D01*
X60650465Y-35263477D01*
X60751557Y-35279488D01*
X60852648Y-35295500D01*
X60852649Y-35295500D01*
X61057351Y-35295500D01*
X61057352Y-35295500D01*
X61259534Y-35263477D01*
X61454219Y-35200220D01*
X61636610Y-35107287D01*
X61729590Y-35039732D01*
X61802213Y-34986971D01*
X61802215Y-34986968D01*
X61802219Y-34986966D01*
X61946966Y-34842219D01*
X61946968Y-34842215D01*
X61946971Y-34842213D01*
X62001899Y-34766610D01*
X62067287Y-34676610D01*
X62160220Y-34494219D01*
X62223477Y-34299534D01*
X62255500Y-34097352D01*
X62255500Y-33892648D01*
X62223477Y-33690466D01*
X62222577Y-33687697D01*
X62160218Y-33495776D01*
X62103774Y-33385000D01*
X62067287Y-33313390D01*
X62059556Y-33302749D01*
X61946971Y-33147786D01*
X61802213Y-33003028D01*
X61636613Y-32882715D01*
X61636612Y-32882714D01*
X61636610Y-32882713D01*
X61579653Y-32853691D01*
X61454223Y-32789781D01*
X61259534Y-32726522D01*
X61084995Y-32698878D01*
X61057352Y-32694500D01*
X60852648Y-32694500D01*
X60828329Y-32698351D01*
X60650465Y-32726522D01*
X60455776Y-32789781D01*
X60273386Y-32882715D01*
X60107786Y-33003028D01*
X59963028Y-33147786D01*
X59842715Y-33313386D01*
X59749781Y-33495776D01*
X59686522Y-33690465D01*
X59654500Y-33892648D01*
X53935594Y-33892648D01*
X53959356Y-33854124D01*
X53959357Y-33854120D01*
X53961129Y-33848775D01*
X53961129Y-33848774D01*
X53961130Y-33848772D01*
X54014505Y-33687697D01*
X54014506Y-33687690D01*
X54024999Y-33584986D01*
X54025000Y-33584973D01*
X54025000Y-33235000D01*
X53040686Y-33235000D01*
X53045080Y-33230606D01*
X53097741Y-33139394D01*
X53125000Y-33037661D01*
X53125000Y-32932339D01*
X53097741Y-32830606D01*
X53045080Y-32739394D01*
X53040686Y-32735000D01*
X54024999Y-32735000D01*
X54024999Y-32385028D01*
X54024998Y-32385013D01*
X54014505Y-32282302D01*
X53959358Y-32115880D01*
X53959356Y-32115875D01*
X53867315Y-31966654D01*
X53743345Y-31842684D01*
X53594124Y-31750643D01*
X53594119Y-31750641D01*
X53427697Y-31695494D01*
X53427690Y-31695493D01*
X53324986Y-31685000D01*
X52975000Y-31685000D01*
X52975000Y-32669314D01*
X52970606Y-32664920D01*
X52879394Y-32612259D01*
X52777661Y-32585000D01*
X52672339Y-32585000D01*
X52570606Y-32612259D01*
X52479394Y-32664920D01*
X52475000Y-32669314D01*
X52475000Y-31685000D01*
X52125028Y-31685000D01*
X52125012Y-31685001D01*
X52022302Y-31695494D01*
X51855880Y-31750641D01*
X51855875Y-31750643D01*
X51706654Y-31842684D01*
X51582684Y-31966654D01*
X51490643Y-32115875D01*
X51490641Y-32115880D01*
X51435494Y-32282302D01*
X51435493Y-32282309D01*
X51425000Y-32385013D01*
X51425000Y-32735000D01*
X52409314Y-32735000D01*
X52404920Y-32739394D01*
X52352259Y-32830606D01*
X52325000Y-32932339D01*
X52325000Y-33037661D01*
X52352259Y-33139394D01*
X52404920Y-33230606D01*
X52409314Y-33235000D01*
X51425001Y-33235000D01*
X51425001Y-33584986D01*
X51435494Y-33687697D01*
X51490641Y-33854119D01*
X51490643Y-33854124D01*
X51582684Y-34003345D01*
X51706654Y-34127315D01*
X51855875Y-34219356D01*
X51855882Y-34219359D01*
X51900256Y-34234063D01*
X51957701Y-34273835D01*
X51984525Y-34338351D01*
X51972210Y-34407127D01*
X51934139Y-34452087D01*
X51877782Y-34493032D01*
X51733028Y-34637786D01*
X51612715Y-34803386D01*
X51519781Y-34985776D01*
X51456522Y-35180465D01*
X51424500Y-35382648D01*
X51424500Y-35587351D01*
X51456523Y-35789535D01*
X51456523Y-35789538D01*
X51501247Y-35927182D01*
X51503242Y-35997023D01*
X51467162Y-36056856D01*
X51404461Y-36087684D01*
X51383316Y-36089500D01*
X45864778Y-36089500D01*
X45797739Y-36069815D01*
X45777096Y-36053180D01*
X45727407Y-36003490D01*
X45727403Y-36003487D01*
X45552078Y-35886338D01*
X45552069Y-35886333D01*
X45357253Y-35805638D01*
X45357245Y-35805636D01*
X45150439Y-35764500D01*
X45150435Y-35764500D01*
X44939565Y-35764500D01*
X44939560Y-35764500D01*
X44732754Y-35805636D01*
X44732746Y-35805638D01*
X44537930Y-35886333D01*
X44537921Y-35886338D01*
X44362596Y-36003487D01*
X44362592Y-36003490D01*
X44213490Y-36152592D01*
X44213487Y-36152596D01*
X44096338Y-36327921D01*
X44096333Y-36327930D01*
X44015638Y-36522746D01*
X44015636Y-36522754D01*
X43974500Y-36729560D01*
X43974500Y-36940439D01*
X44015636Y-37147245D01*
X44015638Y-37147253D01*
X44096333Y-37342069D01*
X44096338Y-37342078D01*
X44213487Y-37517403D01*
X44213490Y-37517407D01*
X44362592Y-37666509D01*
X44362596Y-37666512D01*
X44537921Y-37783661D01*
X44537927Y-37783664D01*
X44537928Y-37783665D01*
X44732747Y-37864362D01*
X44939560Y-37905499D01*
X44939564Y-37905500D01*
X44939565Y-37905500D01*
X45150436Y-37905500D01*
X45150437Y-37905499D01*
X45357253Y-37864362D01*
X45552072Y-37783665D01*
X45727404Y-37666512D01*
X45876512Y-37517404D01*
X45952148Y-37404206D01*
X45991302Y-37345609D01*
X46044914Y-37300804D01*
X46094404Y-37290500D01*
X59277494Y-37290500D01*
X59344533Y-37310185D01*
X59390288Y-37362989D01*
X59400232Y-37432147D01*
X59395425Y-37452818D01*
X59357753Y-37568759D01*
X59324500Y-37778713D01*
X59324500Y-37991286D01*
X59357735Y-38201127D01*
X59357754Y-38201243D01*
X59404670Y-38345636D01*
X59423444Y-38403414D01*
X59519951Y-38592820D01*
X59644890Y-38764786D01*
X59795213Y-38915109D01*
X59967179Y-39040048D01*
X59967181Y-39040049D01*
X59967184Y-39040051D01*
X60156588Y-39136557D01*
X60358757Y-39202246D01*
X60568713Y-39235500D01*
X60568714Y-39235500D01*
X60781286Y-39235500D01*
X60781287Y-39235500D01*
X60991243Y-39202246D01*
X61193412Y-39136557D01*
X61382816Y-39040051D01*
X61437572Y-39000269D01*
X61554786Y-38915109D01*
X61554788Y-38915106D01*
X61554792Y-38915104D01*
X61705104Y-38764792D01*
X61705106Y-38764788D01*
X61705109Y-38764786D01*
X61830048Y-38592820D01*
X61830047Y-38592820D01*
X61830051Y-38592816D01*
X61834514Y-38584054D01*
X61882488Y-38533259D01*
X61950308Y-38516463D01*
X62016444Y-38538999D01*
X62055486Y-38584056D01*
X62059951Y-38592820D01*
X62184890Y-38764786D01*
X62335213Y-38915109D01*
X62507179Y-39040048D01*
X62507181Y-39040049D01*
X62507184Y-39040051D01*
X62696588Y-39136557D01*
X62898757Y-39202246D01*
X63108713Y-39235500D01*
X63108714Y-39235500D01*
X63321286Y-39235500D01*
X63321287Y-39235500D01*
X63531243Y-39202246D01*
X63733412Y-39136557D01*
X63922816Y-39040051D01*
X63977572Y-39000269D01*
X64094786Y-38915109D01*
X64094788Y-38915106D01*
X64094792Y-38915104D01*
X64245104Y-38764792D01*
X64245106Y-38764788D01*
X64245109Y-38764786D01*
X64370048Y-38592820D01*
X64370047Y-38592820D01*
X64370051Y-38592816D01*
X64466557Y-38403412D01*
X64532246Y-38201243D01*
X64565500Y-37991287D01*
X64565500Y-37778713D01*
X64532246Y-37568757D01*
X64494575Y-37452818D01*
X64492580Y-37382977D01*
X64528660Y-37323144D01*
X64591361Y-37292316D01*
X64612506Y-37290500D01*
X65793331Y-37290500D01*
X65793347Y-37290501D01*
X65800943Y-37290501D01*
X65959054Y-37290501D01*
X65959057Y-37290501D01*
X66111785Y-37249577D01*
X66191218Y-37203716D01*
X66248716Y-37170520D01*
X66360520Y-37058716D01*
X66360520Y-37058714D01*
X66370724Y-37048511D01*
X66370727Y-37048506D01*
X68130159Y-35289075D01*
X68191480Y-35255592D01*
X68256154Y-35258826D01*
X68270466Y-35263477D01*
X68472648Y-35295500D01*
X68472649Y-35295500D01*
X68677351Y-35295500D01*
X68677352Y-35295500D01*
X68879534Y-35263477D01*
X68915379Y-35251829D01*
X68985221Y-35249833D01*
X69045054Y-35285912D01*
X69075883Y-35348613D01*
X69077700Y-35369760D01*
X69077700Y-55321702D01*
X69058015Y-55388741D01*
X69041381Y-55409383D01*
X64596181Y-59854582D01*
X64596177Y-59854587D01*
X64552318Y-59930555D01*
X64501751Y-59978770D01*
X64433144Y-59991994D01*
X64406613Y-59986486D01*
X64241240Y-59932753D01*
X64079957Y-59907208D01*
X64031287Y-59899500D01*
X63818713Y-59899500D01*
X63770042Y-59907208D01*
X63608760Y-59932753D01*
X63406585Y-59998444D01*
X63217179Y-60094951D01*
X63045215Y-60219889D01*
X62906398Y-60358706D01*
X62845075Y-60392190D01*
X62775383Y-60387206D01*
X62719450Y-60345334D01*
X62713178Y-60336120D01*
X62617712Y-60181344D01*
X62493657Y-60057289D01*
X62493656Y-60057288D01*
X62378867Y-59986486D01*
X62344336Y-59965187D01*
X62344331Y-59965185D01*
X62305323Y-59952259D01*
X62177797Y-59910001D01*
X62177795Y-59910000D01*
X62075010Y-59899500D01*
X60774998Y-59899500D01*
X60774981Y-59899501D01*
X60672203Y-59910000D01*
X60672200Y-59910001D01*
X60505668Y-59965185D01*
X60505663Y-59965187D01*
X60356342Y-60057289D01*
X60232289Y-60181342D01*
X60140187Y-60330663D01*
X60140185Y-60330668D01*
X60131208Y-60357760D01*
X60085001Y-60497203D01*
X60085001Y-60497204D01*
X60085000Y-60497204D01*
X60074500Y-60599983D01*
X60074500Y-62150001D01*
X60074501Y-62150018D01*
X60085000Y-62252796D01*
X60085001Y-62252799D01*
X60131264Y-62392409D01*
X60140186Y-62419334D01*
X60232288Y-62568656D01*
X60356344Y-62692712D01*
X60505666Y-62784814D01*
X60672203Y-62839999D01*
X60774991Y-62850500D01*
X62075008Y-62850499D01*
X62177797Y-62839999D01*
X62344334Y-62784814D01*
X62493656Y-62692712D01*
X62617712Y-62568656D01*
X62709814Y-62419334D01*
X62709814Y-62419331D01*
X62713178Y-62413879D01*
X62765126Y-62367154D01*
X62834088Y-62355931D01*
X62898170Y-62383774D01*
X62906398Y-62391294D01*
X63045213Y-62530109D01*
X63217179Y-62655048D01*
X63217181Y-62655049D01*
X63217184Y-62655051D01*
X63406588Y-62751557D01*
X63608757Y-62817246D01*
X63818713Y-62850500D01*
X63818714Y-62850500D01*
X64031286Y-62850500D01*
X64031287Y-62850500D01*
X64241243Y-62817246D01*
X64443412Y-62751557D01*
X64632816Y-62655051D01*
X64690465Y-62613167D01*
X64804786Y-62530109D01*
X64804788Y-62530106D01*
X64804792Y-62530104D01*
X64955104Y-62379792D01*
X65074991Y-62214779D01*
X65130320Y-62172115D01*
X65199933Y-62166136D01*
X65261729Y-62198741D01*
X65275627Y-62214781D01*
X65395272Y-62379459D01*
X65395276Y-62379464D01*
X65545535Y-62529723D01*
X65545540Y-62529727D01*
X65717442Y-62654620D01*
X65906782Y-62751095D01*
X66108871Y-62816757D01*
X66175000Y-62827231D01*
X66175000Y-61779145D01*
X66241657Y-61817630D01*
X66362465Y-61850000D01*
X66487535Y-61850000D01*
X66608343Y-61817630D01*
X66675000Y-61779145D01*
X66675000Y-62827230D01*
X66741126Y-62816757D01*
X66741129Y-62816757D01*
X66943217Y-62751095D01*
X66999047Y-62722648D01*
X71324500Y-62722648D01*
X71324500Y-62927351D01*
X71356522Y-63129534D01*
X71419781Y-63324223D01*
X71512715Y-63506613D01*
X71633028Y-63672213D01*
X71777786Y-63816971D01*
X71904346Y-63908920D01*
X71943390Y-63937287D01*
X72050378Y-63991800D01*
X72125776Y-64030218D01*
X72125778Y-64030218D01*
X72125781Y-64030220D01*
X72230137Y-64064127D01*
X72320465Y-64093477D01*
X72421557Y-64109488D01*
X72522648Y-64125500D01*
X72522649Y-64125500D01*
X72727351Y-64125500D01*
X72727352Y-64125500D01*
X72929534Y-64093477D01*
X73124219Y-64030220D01*
X73306610Y-63937287D01*
X73467797Y-63820179D01*
X73472213Y-63816971D01*
X73472215Y-63816968D01*
X73472219Y-63816966D01*
X73616966Y-63672219D01*
X73616968Y-63672215D01*
X73616971Y-63672213D01*
X73690894Y-63570465D01*
X73737287Y-63506610D01*
X73830220Y-63324219D01*
X73893477Y-63129534D01*
X73925500Y-62927352D01*
X73925500Y-62722648D01*
X73904031Y-62587098D01*
X73893477Y-62520465D01*
X73859074Y-62414584D01*
X73830220Y-62325781D01*
X73830218Y-62325778D01*
X73830218Y-62325776D01*
X73777448Y-62222210D01*
X73737287Y-62143390D01*
X73704834Y-62098722D01*
X73616971Y-61977786D01*
X73472213Y-61833028D01*
X73306611Y-61712713D01*
X73252621Y-61685203D01*
X73201825Y-61637228D01*
X73185031Y-61569407D01*
X73207569Y-61503272D01*
X73252624Y-61464233D01*
X73306349Y-61436859D01*
X73350921Y-61404474D01*
X72671447Y-60725000D01*
X72677661Y-60725000D01*
X72779394Y-60697741D01*
X72870606Y-60645080D01*
X72945080Y-60570606D01*
X72997741Y-60479394D01*
X73025000Y-60377661D01*
X73025000Y-60371447D01*
X73704474Y-61050921D01*
X73736859Y-61006349D01*
X73829755Y-60824031D01*
X73892990Y-60629417D01*
X73925000Y-60427317D01*
X73925000Y-60222682D01*
X73892990Y-60020582D01*
X73829755Y-59825968D01*
X73736859Y-59643650D01*
X73704474Y-59599077D01*
X73704474Y-59599076D01*
X73025000Y-60278551D01*
X73025000Y-60272339D01*
X72997741Y-60170606D01*
X72945080Y-60079394D01*
X72870606Y-60004920D01*
X72779394Y-59952259D01*
X72677661Y-59925000D01*
X72671446Y-59925000D01*
X73350922Y-59245524D01*
X73350921Y-59245523D01*
X73306359Y-59213147D01*
X73306350Y-59213141D01*
X73124031Y-59120244D01*
X72929417Y-59057009D01*
X72727317Y-59025000D01*
X72522683Y-59025000D01*
X72320582Y-59057009D01*
X72125968Y-59120244D01*
X71943644Y-59213143D01*
X71899077Y-59245523D01*
X71899077Y-59245524D01*
X72578554Y-59925000D01*
X72572339Y-59925000D01*
X72470606Y-59952259D01*
X72379394Y-60004920D01*
X72304920Y-60079394D01*
X72252259Y-60170606D01*
X72225000Y-60272339D01*
X72225000Y-60278553D01*
X71545524Y-59599077D01*
X71545523Y-59599077D01*
X71513143Y-59643644D01*
X71420244Y-59825968D01*
X71357009Y-60020582D01*
X71325000Y-60222682D01*
X71325000Y-60427317D01*
X71357009Y-60629417D01*
X71420244Y-60824031D01*
X71513141Y-61006350D01*
X71513147Y-61006359D01*
X71545523Y-61050921D01*
X71545524Y-61050922D01*
X72225000Y-60371446D01*
X72225000Y-60377661D01*
X72252259Y-60479394D01*
X72304920Y-60570606D01*
X72379394Y-60645080D01*
X72470606Y-60697741D01*
X72572339Y-60725000D01*
X72578553Y-60725000D01*
X71899076Y-61404474D01*
X71943652Y-61436861D01*
X71997376Y-61464234D01*
X72048172Y-61512208D01*
X72064968Y-61580028D01*
X72042431Y-61646164D01*
X71997379Y-61685203D01*
X71943386Y-61712714D01*
X71777786Y-61833028D01*
X71633028Y-61977786D01*
X71512715Y-62143386D01*
X71419781Y-62325776D01*
X71356522Y-62520465D01*
X71324500Y-62722648D01*
X66999047Y-62722648D01*
X67132554Y-62654622D01*
X67183707Y-62617458D01*
X67183708Y-62617457D01*
X67304460Y-62529727D01*
X67454723Y-62379464D01*
X67454727Y-62379459D01*
X67579620Y-62207557D01*
X67676095Y-62018217D01*
X67741757Y-61816130D01*
X67741757Y-61816127D01*
X67772030Y-61625000D01*
X66829146Y-61625000D01*
X66867630Y-61558343D01*
X66900000Y-61437535D01*
X66900000Y-61312465D01*
X66867630Y-61191657D01*
X66829146Y-61125000D01*
X67772030Y-61125000D01*
X67741757Y-60933872D01*
X67741757Y-60933869D01*
X67676095Y-60731782D01*
X67579620Y-60542442D01*
X67454727Y-60370540D01*
X67454723Y-60370535D01*
X67304464Y-60220276D01*
X67304459Y-60220272D01*
X67132557Y-60095379D01*
X66943215Y-59998903D01*
X66741124Y-59933241D01*
X66675000Y-59922768D01*
X66675000Y-60970854D01*
X66608343Y-60932370D01*
X66487535Y-60900000D01*
X66362465Y-60900000D01*
X66241657Y-60932370D01*
X66175000Y-60970854D01*
X66175000Y-60025597D01*
X66183644Y-59996156D01*
X66190168Y-59966170D01*
X66193922Y-59961154D01*
X66194685Y-59958558D01*
X66211319Y-59937916D01*
X66944133Y-59205102D01*
X69503907Y-56645330D01*
X70158719Y-55990517D01*
X70162974Y-55984972D01*
X70173674Y-55972770D01*
X70352037Y-55794407D01*
X70369075Y-55857993D01*
X70434901Y-55972007D01*
X70527993Y-56065099D01*
X70642007Y-56130925D01*
X70705590Y-56147962D01*
X70073282Y-56780269D01*
X70073282Y-56780270D01*
X70127449Y-56819624D01*
X70316782Y-56916095D01*
X70518870Y-56981757D01*
X70728754Y-57015000D01*
X70941246Y-57015000D01*
X71151127Y-56981757D01*
X71151130Y-56981757D01*
X71353217Y-56916095D01*
X71542554Y-56819622D01*
X71596716Y-56780270D01*
X71596717Y-56780270D01*
X70964408Y-56147962D01*
X71027993Y-56130925D01*
X71142007Y-56065099D01*
X71235099Y-55972007D01*
X71300925Y-55857993D01*
X71317962Y-55794408D01*
X71950270Y-56426717D01*
X71950270Y-56426716D01*
X71989622Y-56372554D01*
X71994514Y-56362954D01*
X72042488Y-56312157D01*
X72110308Y-56295361D01*
X72176444Y-56317897D01*
X72215486Y-56362954D01*
X72220375Y-56372550D01*
X72259728Y-56426716D01*
X72892037Y-55794408D01*
X72909075Y-55857993D01*
X72974901Y-55972007D01*
X73067993Y-56065099D01*
X73182007Y-56130925D01*
X73245590Y-56147962D01*
X72613282Y-56780269D01*
X72613282Y-56780270D01*
X72667449Y-56819624D01*
X72856782Y-56916095D01*
X73058870Y-56981757D01*
X73268754Y-57015000D01*
X73481246Y-57015000D01*
X73691127Y-56981757D01*
X73691130Y-56981757D01*
X73893217Y-56916095D01*
X74082554Y-56819622D01*
X74136716Y-56780270D01*
X74136717Y-56780270D01*
X73504408Y-56147962D01*
X73567993Y-56130925D01*
X73682007Y-56065099D01*
X73775099Y-55972007D01*
X73840925Y-55857993D01*
X73857962Y-55794408D01*
X74490270Y-56426717D01*
X74490270Y-56426716D01*
X74529622Y-56372554D01*
X74626095Y-56183217D01*
X74691757Y-55981130D01*
X74691757Y-55981127D01*
X74725000Y-55771246D01*
X74725000Y-55558753D01*
X74691757Y-55348872D01*
X74691757Y-55348869D01*
X74626095Y-55146782D01*
X74529624Y-54957449D01*
X74490270Y-54903282D01*
X74490269Y-54903282D01*
X73857962Y-55535590D01*
X73840925Y-55472007D01*
X73775099Y-55357993D01*
X73682007Y-55264901D01*
X73567993Y-55199075D01*
X73504409Y-55182037D01*
X74136716Y-54549728D01*
X74082550Y-54510375D01*
X73893217Y-54413904D01*
X73691129Y-54348242D01*
X73481246Y-54315000D01*
X73268754Y-54315000D01*
X73058872Y-54348242D01*
X73058869Y-54348242D01*
X72856782Y-54413904D01*
X72667439Y-54510380D01*
X72613282Y-54549727D01*
X72613282Y-54549728D01*
X73245591Y-55182037D01*
X73182007Y-55199075D01*
X73067993Y-55264901D01*
X72974901Y-55357993D01*
X72909075Y-55472007D01*
X72892037Y-55535591D01*
X72259728Y-54903282D01*
X72259727Y-54903282D01*
X72220380Y-54957440D01*
X72215483Y-54967051D01*
X72167506Y-55017845D01*
X72099684Y-55034638D01*
X72033550Y-55012098D01*
X71994516Y-54967048D01*
X71989626Y-54957452D01*
X71950270Y-54903282D01*
X71950269Y-54903282D01*
X71317962Y-55535590D01*
X71300925Y-55472007D01*
X71235099Y-55357993D01*
X71142007Y-55264901D01*
X71027993Y-55199075D01*
X70964408Y-55182037D01*
X71596716Y-54549728D01*
X71542550Y-54510375D01*
X71353217Y-54413904D01*
X71151129Y-54348242D01*
X70941246Y-54315000D01*
X70728754Y-54315000D01*
X70518872Y-54348242D01*
X70518869Y-54348242D01*
X70441018Y-54373538D01*
X70371177Y-54375533D01*
X70311344Y-54339452D01*
X70280516Y-54276751D01*
X70278700Y-54255607D01*
X70278700Y-39294392D01*
X70298385Y-39227353D01*
X70351189Y-39181598D01*
X70420347Y-39171654D01*
X70441019Y-39176461D01*
X70518873Y-39201758D01*
X70728754Y-39235000D01*
X70941246Y-39235000D01*
X71151127Y-39201757D01*
X71151130Y-39201757D01*
X71353217Y-39136095D01*
X71542554Y-39039622D01*
X71596716Y-39000270D01*
X71596717Y-39000270D01*
X70964409Y-38367962D01*
X71027993Y-38350925D01*
X71142007Y-38285099D01*
X71235099Y-38192007D01*
X71300925Y-38077993D01*
X71317962Y-38014408D01*
X71950270Y-38646717D01*
X71950270Y-38646716D01*
X71989622Y-38592554D01*
X71994514Y-38582954D01*
X72042488Y-38532157D01*
X72110308Y-38515361D01*
X72176444Y-38537897D01*
X72215486Y-38582954D01*
X72220375Y-38592550D01*
X72259728Y-38646716D01*
X72892037Y-38014408D01*
X72909075Y-38077993D01*
X72974901Y-38192007D01*
X73067993Y-38285099D01*
X73182007Y-38350925D01*
X73245590Y-38367962D01*
X72613282Y-39000269D01*
X72613282Y-39000270D01*
X72667449Y-39039624D01*
X72856782Y-39136095D01*
X73058870Y-39201757D01*
X73268754Y-39235000D01*
X73481246Y-39235000D01*
X73691127Y-39201757D01*
X73691130Y-39201757D01*
X73893217Y-39136095D01*
X74082554Y-39039622D01*
X74136716Y-39000270D01*
X74136717Y-39000270D01*
X73504408Y-38367962D01*
X73567993Y-38350925D01*
X73682007Y-38285099D01*
X73775099Y-38192007D01*
X73840925Y-38077993D01*
X73857962Y-38014408D01*
X74490270Y-38646717D01*
X74490270Y-38646716D01*
X74529622Y-38592554D01*
X74626095Y-38403217D01*
X74691757Y-38201130D01*
X74691757Y-38201127D01*
X74725000Y-37991246D01*
X74725000Y-37778753D01*
X74691757Y-37568872D01*
X74691757Y-37568869D01*
X74626095Y-37366782D01*
X74529624Y-37177449D01*
X74490270Y-37123282D01*
X74490269Y-37123282D01*
X73857962Y-37755590D01*
X73840925Y-37692007D01*
X73775099Y-37577993D01*
X73682007Y-37484901D01*
X73567993Y-37419075D01*
X73504409Y-37402037D01*
X74136716Y-36769728D01*
X74082550Y-36730375D01*
X73893217Y-36633904D01*
X73691129Y-36568242D01*
X73481246Y-36535000D01*
X73268754Y-36535000D01*
X73058872Y-36568242D01*
X73058869Y-36568242D01*
X72856782Y-36633904D01*
X72667439Y-36730380D01*
X72613282Y-36769727D01*
X72613282Y-36769728D01*
X73245591Y-37402037D01*
X73182007Y-37419075D01*
X73067993Y-37484901D01*
X72974901Y-37577993D01*
X72909075Y-37692007D01*
X72892037Y-37755591D01*
X72259728Y-37123282D01*
X72259727Y-37123282D01*
X72220380Y-37177440D01*
X72215483Y-37187051D01*
X72167506Y-37237845D01*
X72099684Y-37254638D01*
X72033550Y-37232098D01*
X71994516Y-37187048D01*
X71989626Y-37177452D01*
X71950270Y-37123282D01*
X71950269Y-37123282D01*
X71317962Y-37755590D01*
X71300925Y-37692007D01*
X71235099Y-37577993D01*
X71142007Y-37484901D01*
X71027993Y-37419075D01*
X70964407Y-37402036D01*
X71596716Y-36769728D01*
X71542550Y-36730375D01*
X71353217Y-36633904D01*
X71151129Y-36568242D01*
X70941246Y-36535000D01*
X70728754Y-36535000D01*
X70518872Y-36568242D01*
X70518869Y-36568242D01*
X70441018Y-36593538D01*
X70371177Y-36595533D01*
X70311344Y-36559452D01*
X70280516Y-36496751D01*
X70278700Y-36475607D01*
X70278700Y-33592260D01*
X70278701Y-33592247D01*
X70278701Y-33424144D01*
X70260908Y-33357741D01*
X70237777Y-33271416D01*
X70218358Y-33237781D01*
X70158724Y-33134490D01*
X70158718Y-33134482D01*
X68901390Y-31877155D01*
X68894321Y-31870086D01*
X68894320Y-31870084D01*
X68824676Y-31800440D01*
X68795820Y-31747592D01*
X68791194Y-31739120D01*
X68796178Y-31669428D01*
X68824684Y-31631349D01*
X68838050Y-31613494D01*
X68838070Y-31613486D01*
X68892965Y-31590288D01*
X68920525Y-31585923D01*
X69109437Y-31524542D01*
X69286425Y-31434362D01*
X69323716Y-31407268D01*
X68760942Y-30844494D01*
X68821081Y-30828381D01*
X68936920Y-30761502D01*
X69031502Y-30666920D01*
X69098381Y-30551081D01*
X69114495Y-30490942D01*
X69677268Y-31053715D01*
X69704364Y-31016422D01*
X69784234Y-30859669D01*
X69832208Y-30808872D01*
X69900029Y-30792077D01*
X69966164Y-30814614D01*
X70005203Y-30859667D01*
X70085213Y-31016694D01*
X70202019Y-31177464D01*
X70342536Y-31317981D01*
X70503306Y-31434787D01*
X70571069Y-31469314D01*
X70680367Y-31525005D01*
X70680370Y-31525006D01*
X70774866Y-31555709D01*
X70869364Y-31586413D01*
X71065639Y-31617500D01*
X71065640Y-31617500D01*
X71264360Y-31617500D01*
X71264361Y-31617500D01*
X71460636Y-31586413D01*
X71649632Y-31525005D01*
X71826694Y-31434787D01*
X71987464Y-31317981D01*
X72127981Y-31177464D01*
X72244787Y-31016694D01*
X72324515Y-30860218D01*
X72372490Y-30809423D01*
X72440311Y-30792628D01*
X72506446Y-30815165D01*
X72545484Y-30860218D01*
X72625213Y-31016694D01*
X72742019Y-31177464D01*
X72882536Y-31317981D01*
X73043306Y-31434787D01*
X73111069Y-31469314D01*
X73220367Y-31525005D01*
X73220370Y-31525006D01*
X73314866Y-31555709D01*
X73409364Y-31586413D01*
X73605639Y-31617500D01*
X73605640Y-31617500D01*
X73804360Y-31617500D01*
X73804361Y-31617500D01*
X74000636Y-31586413D01*
X74189632Y-31525005D01*
X74366694Y-31434787D01*
X74527464Y-31317981D01*
X74667981Y-31177464D01*
X74784787Y-31016694D01*
X74875005Y-30839632D01*
X74936413Y-30650636D01*
X74967500Y-30454361D01*
X74967500Y-30255639D01*
X74936413Y-30059364D01*
X74884820Y-29900576D01*
X74875006Y-29870370D01*
X74875005Y-29870367D01*
X74811223Y-29745189D01*
X74784787Y-29693306D01*
X74667981Y-29532536D01*
X74527464Y-29392019D01*
X74366694Y-29275213D01*
X74189632Y-29184994D01*
X74189629Y-29184993D01*
X74000637Y-29123587D01*
X73902498Y-29108043D01*
X73804361Y-29092500D01*
X73605639Y-29092500D01*
X73540214Y-29102862D01*
X73409362Y-29123587D01*
X73220370Y-29184993D01*
X73220367Y-29184994D01*
X73043305Y-29275213D01*
X72882533Y-29392021D01*
X72742021Y-29532533D01*
X72625213Y-29693305D01*
X72545485Y-29849780D01*
X72497510Y-29900576D01*
X72429689Y-29917371D01*
X72363554Y-29894833D01*
X72324515Y-29849780D01*
X72271223Y-29745189D01*
X72244787Y-29693306D01*
X72127981Y-29532536D01*
X71987464Y-29392019D01*
X71826694Y-29275213D01*
X71649632Y-29184994D01*
X71649629Y-29184993D01*
X71460637Y-29123587D01*
X71362498Y-29108043D01*
X71264361Y-29092500D01*
X71065639Y-29092500D01*
X71000214Y-29102862D01*
X70869362Y-29123587D01*
X70680370Y-29184993D01*
X70680367Y-29184994D01*
X70503305Y-29275213D01*
X70342533Y-29392021D01*
X70202021Y-29532533D01*
X70085213Y-29693305D01*
X70005204Y-29850331D01*
X69957229Y-29901127D01*
X69889408Y-29917922D01*
X69823273Y-29895384D01*
X69784234Y-29850331D01*
X69704358Y-29693567D01*
X69677268Y-29656283D01*
X69114494Y-30219057D01*
X69098381Y-30158919D01*
X69031502Y-30043080D01*
X68936920Y-29948498D01*
X68821081Y-29881619D01*
X68760942Y-29865504D01*
X69323716Y-29302731D01*
X69323715Y-29302730D01*
X69286432Y-29275641D01*
X69109437Y-29185457D01*
X68920522Y-29124075D01*
X68724321Y-29093000D01*
X68525679Y-29093000D01*
X68329479Y-29124075D01*
X68329476Y-29124075D01*
X68140562Y-29185457D01*
X67963564Y-29275643D01*
X67926283Y-29302729D01*
X67926282Y-29302730D01*
X68489058Y-29865504D01*
X68428919Y-29881619D01*
X68313080Y-29948498D01*
X68218498Y-30043080D01*
X68151619Y-30158919D01*
X68135504Y-30219057D01*
X67572730Y-29656282D01*
X67572729Y-29656283D01*
X67545641Y-29693566D01*
X67465764Y-29850332D01*
X67417790Y-29901127D01*
X67349969Y-29917922D01*
X67283834Y-29895384D01*
X67244796Y-29850332D01*
X67164787Y-29693306D01*
X67047981Y-29532536D01*
X66907464Y-29392019D01*
X66746694Y-29275213D01*
X66569632Y-29184994D01*
X66569629Y-29184993D01*
X66380637Y-29123587D01*
X66282498Y-29108043D01*
X66184361Y-29092500D01*
X65985639Y-29092500D01*
X65920214Y-29102862D01*
X65789362Y-29123587D01*
X65600370Y-29184993D01*
X65600356Y-29184999D01*
X65595786Y-29187328D01*
X65527116Y-29200219D01*
X65462377Y-29173937D01*
X65422125Y-29116828D01*
X65415500Y-29076839D01*
X65415500Y-21473160D01*
X65435185Y-21406121D01*
X65487989Y-21360366D01*
X65557147Y-21350422D01*
X65595796Y-21362676D01*
X65600363Y-21365003D01*
X65600370Y-21365006D01*
X65664809Y-21385943D01*
X65789364Y-21426413D01*
X65985639Y-21457500D01*
X65985640Y-21457500D01*
X66184360Y-21457500D01*
X66184361Y-21457500D01*
X66380636Y-21426413D01*
X66569632Y-21365005D01*
X66746694Y-21274787D01*
X66907464Y-21157981D01*
X67047981Y-21017464D01*
X67164787Y-20856694D01*
X67244796Y-20699667D01*
X67292769Y-20648872D01*
X67360590Y-20632077D01*
X67426725Y-20654614D01*
X67465765Y-20699668D01*
X67545641Y-20856432D01*
X67572730Y-20893715D01*
X68135504Y-20330941D01*
X68151619Y-20391081D01*
X68218498Y-20506920D01*
X68313080Y-20601502D01*
X68428919Y-20668381D01*
X68489057Y-20684494D01*
X67926283Y-21247268D01*
X67926283Y-21247269D01*
X67963567Y-21274358D01*
X68140562Y-21364542D01*
X68329477Y-21425924D01*
X68525679Y-21457000D01*
X68724321Y-21457000D01*
X68920520Y-21425924D01*
X68920523Y-21425924D01*
X69109437Y-21364542D01*
X69286425Y-21274362D01*
X69323716Y-21247268D01*
X68760942Y-20684494D01*
X68821081Y-20668381D01*
X68936920Y-20601502D01*
X69031502Y-20506920D01*
X69098381Y-20391081D01*
X69114495Y-20330942D01*
X69677268Y-20893715D01*
X69704364Y-20856422D01*
X69784234Y-20699669D01*
X69832208Y-20648872D01*
X69900029Y-20632077D01*
X69966164Y-20654614D01*
X70005203Y-20699667D01*
X70085213Y-20856694D01*
X70202019Y-21017464D01*
X70342536Y-21157981D01*
X70503306Y-21274787D01*
X70533595Y-21290220D01*
X70680367Y-21365005D01*
X70680370Y-21365006D01*
X70744809Y-21385943D01*
X70869364Y-21426413D01*
X71065639Y-21457500D01*
X71065640Y-21457500D01*
X71264360Y-21457500D01*
X71264361Y-21457500D01*
X71460636Y-21426413D01*
X71649632Y-21365005D01*
X71826694Y-21274787D01*
X71987464Y-21157981D01*
X72127981Y-21017464D01*
X72244787Y-20856694D01*
X72324515Y-20700218D01*
X72372490Y-20649423D01*
X72440311Y-20632628D01*
X72506446Y-20655165D01*
X72545484Y-20700218D01*
X72625213Y-20856694D01*
X72742019Y-21017464D01*
X72882536Y-21157981D01*
X73043306Y-21274787D01*
X73073595Y-21290220D01*
X73220367Y-21365005D01*
X73220370Y-21365006D01*
X73284809Y-21385943D01*
X73409364Y-21426413D01*
X73605639Y-21457500D01*
X73605640Y-21457500D01*
X73804360Y-21457500D01*
X73804361Y-21457500D01*
X74000636Y-21426413D01*
X74189632Y-21365005D01*
X74366694Y-21274787D01*
X74527464Y-21157981D01*
X74667981Y-21017464D01*
X74784787Y-20856694D01*
X74875005Y-20679632D01*
X74936413Y-20490636D01*
X74967500Y-20294361D01*
X74967500Y-20095639D01*
X74936413Y-19899364D01*
X74878661Y-19721619D01*
X74875006Y-19710370D01*
X74875005Y-19710367D01*
X74811522Y-19585776D01*
X74784787Y-19533306D01*
X74667981Y-19372536D01*
X74527464Y-19232019D01*
X74366694Y-19115213D01*
X74189632Y-19024994D01*
X74189629Y-19024993D01*
X74000637Y-18963587D01*
X73859088Y-18941168D01*
X73804361Y-18932500D01*
X73605639Y-18932500D01*
X73550912Y-18941168D01*
X73409362Y-18963587D01*
X73220370Y-19024993D01*
X73220367Y-19024994D01*
X73043305Y-19115213D01*
X72882533Y-19232021D01*
X72742021Y-19372533D01*
X72625213Y-19533305D01*
X72545485Y-19689780D01*
X72497510Y-19740576D01*
X72429689Y-19757371D01*
X72363554Y-19734833D01*
X72324515Y-19689780D01*
X72305179Y-19651832D01*
X72244787Y-19533306D01*
X72127981Y-19372536D01*
X71987464Y-19232019D01*
X71826694Y-19115213D01*
X71649632Y-19024994D01*
X71649629Y-19024993D01*
X71460637Y-18963587D01*
X71319088Y-18941168D01*
X71264361Y-18932500D01*
X71065639Y-18932500D01*
X71010912Y-18941168D01*
X70869362Y-18963587D01*
X70680370Y-19024993D01*
X70680367Y-19024994D01*
X70503305Y-19115213D01*
X70342533Y-19232021D01*
X70202021Y-19372533D01*
X70085213Y-19533305D01*
X70005204Y-19690331D01*
X69957229Y-19741127D01*
X69889408Y-19757922D01*
X69823273Y-19735384D01*
X69784234Y-19690331D01*
X69704358Y-19533567D01*
X69677268Y-19496283D01*
X69114494Y-20059057D01*
X69098381Y-19998919D01*
X69031502Y-19883080D01*
X68936920Y-19788498D01*
X68821081Y-19721619D01*
X68760942Y-19705504D01*
X69323716Y-19142731D01*
X69323715Y-19142730D01*
X69286432Y-19115641D01*
X69109437Y-19025457D01*
X68920522Y-18964075D01*
X68724321Y-18933000D01*
X68525679Y-18933000D01*
X68329479Y-18964075D01*
X68329476Y-18964075D01*
X68140562Y-19025457D01*
X67963564Y-19115643D01*
X67926283Y-19142729D01*
X67926282Y-19142730D01*
X68489058Y-19705504D01*
X68428919Y-19721619D01*
X68313080Y-19788498D01*
X68218498Y-19883080D01*
X68151619Y-19998919D01*
X68135504Y-20059057D01*
X67572730Y-19496282D01*
X67572729Y-19496283D01*
X67545641Y-19533566D01*
X67465764Y-19690332D01*
X67417790Y-19741127D01*
X67349969Y-19757922D01*
X67283834Y-19735384D01*
X67244796Y-19690332D01*
X67164787Y-19533306D01*
X67047981Y-19372536D01*
X66907464Y-19232019D01*
X66746694Y-19115213D01*
X66569632Y-19024994D01*
X66569629Y-19024993D01*
X66380637Y-18963587D01*
X66239088Y-18941168D01*
X66184361Y-18932500D01*
X66005940Y-18932500D01*
X65938901Y-18912815D01*
X65918259Y-18896181D01*
X64190292Y-17168213D01*
X64190288Y-17168210D01*
X64059185Y-17080609D01*
X64059172Y-17080602D01*
X63913501Y-17020264D01*
X63913489Y-17020261D01*
X63758845Y-16989500D01*
X63758842Y-16989500D01*
X59981242Y-16989500D01*
X59823557Y-16989500D01*
X59823554Y-16989500D01*
X59668909Y-17020261D01*
X59668897Y-17020264D01*
X59626232Y-17037936D01*
X59626233Y-17037937D01*
X59523223Y-17080604D01*
X59523215Y-17080609D01*
X59406091Y-17158870D01*
X59392109Y-17168211D01*
X52929022Y-23631298D01*
X52867699Y-23664783D01*
X52831619Y-23667235D01*
X52827359Y-23666900D01*
X52827352Y-23666900D01*
X52622648Y-23666900D01*
X52610924Y-23668757D01*
X52420465Y-23698922D01*
X52225776Y-23762181D01*
X52043386Y-23855115D01*
X51877786Y-23975428D01*
X51733028Y-24120186D01*
X51612715Y-24285786D01*
X51519781Y-24468176D01*
X51456522Y-24662865D01*
X51425172Y-24860804D01*
X51424500Y-24865048D01*
X51424500Y-25069752D01*
X51426634Y-25083223D01*
X51456522Y-25271934D01*
X51519781Y-25466623D01*
X51568200Y-25561649D01*
X51593213Y-25610740D01*
X51612715Y-25649013D01*
X51733028Y-25814613D01*
X51733034Y-25814619D01*
X51877781Y-25959366D01*
X51934138Y-26000311D01*
X51976804Y-26055641D01*
X51982783Y-26125254D01*
X51950178Y-26187049D01*
X51900258Y-26218335D01*
X51855886Y-26233038D01*
X51855875Y-26233043D01*
X51706654Y-26325084D01*
X51582684Y-26449054D01*
X51490643Y-26598275D01*
X51490641Y-26598280D01*
X51435494Y-26764702D01*
X51435493Y-26764709D01*
X51425000Y-26867413D01*
X51425000Y-27217400D01*
X52409314Y-27217400D01*
X52404920Y-27221794D01*
X52352259Y-27313006D01*
X52325000Y-27414739D01*
X52325000Y-27520061D01*
X52352259Y-27621794D01*
X52404920Y-27713006D01*
X52409314Y-27717400D01*
X51425001Y-27717400D01*
X51425001Y-28067386D01*
X51435494Y-28170097D01*
X51481422Y-28308696D01*
X51483824Y-28378524D01*
X51448092Y-28438566D01*
X51385572Y-28469759D01*
X51363716Y-28471700D01*
X49337198Y-28471700D01*
X49270159Y-28452015D01*
X49249517Y-28435381D01*
X48390090Y-27575955D01*
X48390088Y-27575952D01*
X48271217Y-27457081D01*
X48271216Y-27457080D01*
X48184404Y-27406960D01*
X48184404Y-27406959D01*
X48184400Y-27406958D01*
X48134285Y-27378023D01*
X47981557Y-27337099D01*
X47823443Y-27337099D01*
X47815847Y-27337099D01*
X47815831Y-27337100D01*
X46115030Y-27337100D01*
X46047991Y-27317415D01*
X46002236Y-27264611D01*
X45992292Y-27195453D01*
X46000469Y-27165647D01*
X46041164Y-27067400D01*
X46074362Y-26987253D01*
X46115500Y-26780435D01*
X46115500Y-26569565D01*
X46074362Y-26362747D01*
X45998070Y-26178563D01*
X45993666Y-26167930D01*
X45993661Y-26167921D01*
X45876512Y-25992596D01*
X45876509Y-25992592D01*
X45727407Y-25843490D01*
X45727403Y-25843487D01*
X45552078Y-25726338D01*
X45552069Y-25726333D01*
X45357253Y-25645638D01*
X45357245Y-25645636D01*
X45150439Y-25604500D01*
X45150435Y-25604500D01*
X44939565Y-25604500D01*
X44939560Y-25604500D01*
X44732754Y-25645636D01*
X44732746Y-25645638D01*
X44537930Y-25726333D01*
X44537921Y-25726338D01*
X44362596Y-25843487D01*
X44362592Y-25843490D01*
X44213490Y-25992592D01*
X44213487Y-25992596D01*
X44096338Y-26167921D01*
X44096333Y-26167930D01*
X44015638Y-26362746D01*
X44015636Y-26362754D01*
X43974500Y-26569560D01*
X43974500Y-26780439D01*
X44015636Y-26987245D01*
X44015638Y-26987253D01*
X44089531Y-27165647D01*
X44097000Y-27235117D01*
X44065725Y-27297596D01*
X44005636Y-27333248D01*
X43974970Y-27337100D01*
X31367697Y-27337100D01*
X31300658Y-27317415D01*
X31280016Y-27300781D01*
X30903149Y-26923914D01*
X30869664Y-26862591D01*
X30869213Y-26812040D01*
X30875500Y-26780435D01*
X30875500Y-26569564D01*
X30875499Y-26569560D01*
X30851529Y-26449054D01*
X30834362Y-26362747D01*
X30758070Y-26178563D01*
X30753666Y-26167930D01*
X30753661Y-26167921D01*
X30636512Y-25992596D01*
X30636509Y-25992592D01*
X30487407Y-25843490D01*
X30487403Y-25843487D01*
X30312078Y-25726338D01*
X30312069Y-25726333D01*
X30117253Y-25645638D01*
X30117245Y-25645636D01*
X29910439Y-25604500D01*
X29910435Y-25604500D01*
X29699565Y-25604500D01*
X29699560Y-25604500D01*
X29668191Y-25610740D01*
X29647207Y-25608862D01*
X29626353Y-25611861D01*
X29613105Y-25605811D01*
X29598599Y-25604513D01*
X29581961Y-25591587D01*
X29562797Y-25582836D01*
X29554922Y-25570583D01*
X29543422Y-25561649D01*
X29536413Y-25541782D01*
X29525023Y-25524058D01*
X29521488Y-25499472D01*
X29520178Y-25495759D01*
X29520000Y-25489123D01*
X29520000Y-25320876D01*
X29539685Y-25253837D01*
X29592489Y-25208082D01*
X29661647Y-25198138D01*
X29668166Y-25199254D01*
X29699565Y-25205500D01*
X29910436Y-25205500D01*
X29910437Y-25205499D01*
X30117253Y-25164362D01*
X30312072Y-25083665D01*
X30487404Y-24966512D01*
X30487407Y-24966509D01*
X30539769Y-24914148D01*
X30636509Y-24817407D01*
X30636512Y-24817404D01*
X30753665Y-24642072D01*
X30834362Y-24447253D01*
X30875500Y-24240435D01*
X30875500Y-24240388D01*
X43974999Y-24240388D01*
X44016118Y-24447101D01*
X44016120Y-24447107D01*
X44096778Y-24641833D01*
X44131959Y-24694485D01*
X44627356Y-24199089D01*
X44653622Y-24297114D01*
X44708916Y-24392886D01*
X44787114Y-24471084D01*
X44882886Y-24526378D01*
X44980910Y-24552643D01*
X44485513Y-25048039D01*
X44538164Y-25083220D01*
X44538167Y-25083222D01*
X44732892Y-25163879D01*
X44732898Y-25163881D01*
X44939611Y-25205000D01*
X45150388Y-25205000D01*
X45357101Y-25163881D01*
X45357107Y-25163879D01*
X45551830Y-25083223D01*
X45604485Y-25048039D01*
X45109090Y-24552643D01*
X45207114Y-24526378D01*
X45302886Y-24471084D01*
X45381084Y-24392886D01*
X45436378Y-24297114D01*
X45462643Y-24199089D01*
X45958039Y-24694485D01*
X45993223Y-24641830D01*
X46073879Y-24447107D01*
X46073881Y-24447101D01*
X46115000Y-24240388D01*
X46115000Y-24029611D01*
X46073881Y-23822898D01*
X46073879Y-23822892D01*
X45993222Y-23628167D01*
X45993220Y-23628164D01*
X45958039Y-23575513D01*
X45462643Y-24070909D01*
X45436378Y-23972886D01*
X45381084Y-23877114D01*
X45302886Y-23798916D01*
X45207114Y-23743622D01*
X45109089Y-23717356D01*
X45604485Y-23221959D01*
X45604485Y-23221958D01*
X45551833Y-23186778D01*
X45357107Y-23106120D01*
X45357101Y-23106118D01*
X45150388Y-23065000D01*
X44939612Y-23065000D01*
X44732898Y-23106118D01*
X44732892Y-23106120D01*
X44538168Y-23186777D01*
X44538156Y-23186784D01*
X44485513Y-23221958D01*
X44485512Y-23221959D01*
X44980910Y-23717356D01*
X44882886Y-23743622D01*
X44787114Y-23798916D01*
X44708916Y-23877114D01*
X44653622Y-23972886D01*
X44627356Y-24070909D01*
X44131959Y-23575512D01*
X44131958Y-23575513D01*
X44096784Y-23628156D01*
X44096777Y-23628168D01*
X44016120Y-23822892D01*
X44016118Y-23822898D01*
X43975000Y-24029611D01*
X43975000Y-24240388D01*
X43974999Y-24240388D01*
X30875500Y-24240388D01*
X30875500Y-24029565D01*
X30834362Y-23822747D01*
X30755061Y-23631298D01*
X30753666Y-23627930D01*
X30753661Y-23627921D01*
X30636512Y-23452596D01*
X30636509Y-23452592D01*
X30487407Y-23303490D01*
X30487403Y-23303487D01*
X30312078Y-23186338D01*
X30312069Y-23186333D01*
X30117253Y-23105638D01*
X30117245Y-23105636D01*
X29910439Y-23064500D01*
X29910435Y-23064500D01*
X29699565Y-23064500D01*
X29699560Y-23064500D01*
X29492754Y-23105636D01*
X29492751Y-23105637D01*
X29492750Y-23105637D01*
X29492747Y-23105638D01*
X29472643Y-23113965D01*
X29403175Y-23121433D01*
X29340696Y-23090157D01*
X29305044Y-23030068D01*
X29307539Y-22960243D01*
X29337511Y-22911723D01*
X29556086Y-22693147D01*
X29617407Y-22659664D01*
X29667957Y-22659213D01*
X29699562Y-22665500D01*
X29699565Y-22665500D01*
X29910436Y-22665500D01*
X29910437Y-22665499D01*
X30117253Y-22624362D01*
X30312072Y-22543665D01*
X30487404Y-22426512D01*
X30636512Y-22277404D01*
X30753665Y-22102072D01*
X30834362Y-21907253D01*
X30875500Y-21700435D01*
X30875500Y-21489565D01*
X30875499Y-21489560D01*
X43974500Y-21489560D01*
X43974500Y-21700439D01*
X44015636Y-21907245D01*
X44015638Y-21907253D01*
X44096333Y-22102069D01*
X44096338Y-22102078D01*
X44213487Y-22277403D01*
X44213490Y-22277407D01*
X44362592Y-22426509D01*
X44362596Y-22426512D01*
X44537921Y-22543661D01*
X44537927Y-22543664D01*
X44537928Y-22543665D01*
X44732747Y-22624362D01*
X44907958Y-22659213D01*
X44939560Y-22665499D01*
X44939564Y-22665500D01*
X44939565Y-22665500D01*
X45150436Y-22665500D01*
X45150437Y-22665499D01*
X45357253Y-22624362D01*
X45552072Y-22543665D01*
X45727404Y-22426512D01*
X45876512Y-22277404D01*
X45993665Y-22102072D01*
X46074362Y-21907253D01*
X46115500Y-21700435D01*
X46115500Y-21489565D01*
X46074362Y-21282747D01*
X45993665Y-21087928D01*
X45993664Y-21087927D01*
X45993661Y-21087921D01*
X45876512Y-20912596D01*
X45876509Y-20912592D01*
X45727407Y-20763490D01*
X45727403Y-20763487D01*
X45552078Y-20646338D01*
X45552069Y-20646333D01*
X45357253Y-20565638D01*
X45357245Y-20565636D01*
X45150439Y-20524500D01*
X45150435Y-20524500D01*
X44939565Y-20524500D01*
X44939560Y-20524500D01*
X44732754Y-20565636D01*
X44732746Y-20565638D01*
X44537930Y-20646333D01*
X44537921Y-20646338D01*
X44362596Y-20763487D01*
X44362592Y-20763490D01*
X44213490Y-20912592D01*
X44213487Y-20912596D01*
X44096338Y-21087921D01*
X44096333Y-21087930D01*
X44015638Y-21282746D01*
X44015636Y-21282754D01*
X43974500Y-21489560D01*
X30875499Y-21489560D01*
X30834362Y-21282747D01*
X30753665Y-21087928D01*
X30753664Y-21087927D01*
X30753661Y-21087921D01*
X30636512Y-20912596D01*
X30636509Y-20912592D01*
X30487407Y-20763490D01*
X30487403Y-20763487D01*
X30312078Y-20646338D01*
X30312069Y-20646333D01*
X30117253Y-20565638D01*
X30117245Y-20565636D01*
X29910439Y-20524500D01*
X29910435Y-20524500D01*
X29699565Y-20524500D01*
X29699560Y-20524500D01*
X29492754Y-20565636D01*
X29492746Y-20565638D01*
X29297930Y-20646333D01*
X29297921Y-20646338D01*
X29122596Y-20763487D01*
X29122592Y-20763490D01*
X28973490Y-20912592D01*
X28973487Y-20912596D01*
X28856338Y-21087921D01*
X28856333Y-21087930D01*
X28775638Y-21282746D01*
X28775636Y-21282754D01*
X28734500Y-21489560D01*
X28734500Y-21489564D01*
X28734500Y-21489565D01*
X28734500Y-21700435D01*
X28740787Y-21732042D01*
X28734558Y-21801633D01*
X28706850Y-21843913D01*
X28152115Y-22398648D01*
X28152108Y-22398655D01*
X28149086Y-22401678D01*
X28149084Y-22401680D01*
X28037280Y-22513484D01*
X28014087Y-22553656D01*
X28008091Y-22564039D01*
X28008090Y-22564042D01*
X27973264Y-22624363D01*
X27958223Y-22650415D01*
X27917299Y-22803143D01*
X27917299Y-22803145D01*
X27917299Y-22971246D01*
X27917300Y-22971259D01*
X27917300Y-29150430D01*
X27917299Y-29150448D01*
X27917299Y-29316154D01*
X27917298Y-29316154D01*
X27918446Y-29320439D01*
X27955842Y-29460000D01*
X27958224Y-29468887D01*
X27966660Y-29483498D01*
X27966661Y-29483500D01*
X28037277Y-29605812D01*
X28037281Y-29605817D01*
X28156149Y-29724685D01*
X28156155Y-29724690D01*
X29155044Y-30723579D01*
X29188529Y-30784902D01*
X29183545Y-30854594D01*
X29141673Y-30910527D01*
X29136256Y-30914360D01*
X29122598Y-30923485D01*
X29122589Y-30923494D01*
X28973490Y-31072592D01*
X28973487Y-31072596D01*
X28856338Y-31247921D01*
X28856333Y-31247930D01*
X28775638Y-31442746D01*
X28775636Y-31442754D01*
X28734500Y-31649560D01*
X28734500Y-31860439D01*
X28775636Y-32067245D01*
X28775638Y-32067253D01*
X28856333Y-32262069D01*
X28856338Y-32262078D01*
X28973487Y-32437403D01*
X28973490Y-32437407D01*
X29122592Y-32586509D01*
X29122596Y-32586512D01*
X29297921Y-32703661D01*
X29297930Y-32703666D01*
X29335722Y-32719320D01*
X29492747Y-32784362D01*
X29654429Y-32816522D01*
X29699560Y-32825499D01*
X29699564Y-32825500D01*
X29699565Y-32825500D01*
X29910436Y-32825500D01*
X29910437Y-32825499D01*
X30117253Y-32784362D01*
X30312072Y-32703665D01*
X30487404Y-32586512D01*
X30636512Y-32437404D01*
X30691180Y-32355587D01*
X30744789Y-32310783D01*
X30814114Y-32302074D01*
X30877142Y-32332228D01*
X30881962Y-32336797D01*
X42098181Y-43553016D01*
X42131666Y-43614339D01*
X42134500Y-43640697D01*
X42134500Y-54778330D01*
X42134499Y-54778348D01*
X42134499Y-54944054D01*
X42134498Y-54944054D01*
X42162827Y-55049780D01*
X42175423Y-55096785D01*
X42201940Y-55142713D01*
X42230852Y-55192790D01*
X42254479Y-55233714D01*
X42254481Y-55233717D01*
X42373349Y-55352585D01*
X42373355Y-55352590D01*
X42547892Y-55527128D01*
X42581377Y-55588451D01*
X42580873Y-55636223D01*
X42582152Y-55636426D01*
X42550500Y-55836263D01*
X42550500Y-56033736D01*
X42581389Y-56228763D01*
X42642408Y-56416558D01*
X42642409Y-56416561D01*
X42732056Y-56592501D01*
X42732058Y-56592504D01*
X42848115Y-56752246D01*
X42987753Y-56891884D01*
X43147494Y-57007941D01*
X43147496Y-57007942D01*
X43147499Y-57007944D01*
X43317956Y-57094797D01*
X43368749Y-57142768D01*
X43385544Y-57210589D01*
X43363007Y-57276724D01*
X43317954Y-57315763D01*
X43147767Y-57402479D01*
X43147760Y-57402483D01*
X43112010Y-57428456D01*
X43112010Y-57428457D01*
X43675591Y-57992037D01*
X43612007Y-58009075D01*
X43497993Y-58074901D01*
X43404901Y-58167993D01*
X43339075Y-58282007D01*
X43322037Y-58345590D01*
X42758457Y-57782010D01*
X42758456Y-57782010D01*
X42732483Y-57817760D01*
X42732482Y-57817762D01*
X42642873Y-57993626D01*
X42581876Y-58181353D01*
X42551000Y-58376302D01*
X42551000Y-58573697D01*
X42581876Y-58768646D01*
X42642873Y-58956373D01*
X42732483Y-59132239D01*
X42758457Y-59167988D01*
X42758457Y-59167989D01*
X43322037Y-58604409D01*
X43339075Y-58667993D01*
X43404901Y-58782007D01*
X43497993Y-58875099D01*
X43612007Y-58940925D01*
X43675590Y-58957962D01*
X43112009Y-59521541D01*
X43112010Y-59521542D01*
X43147755Y-59547512D01*
X43147778Y-59547526D01*
X43318502Y-59634516D01*
X43369298Y-59682490D01*
X43386093Y-59750311D01*
X43363555Y-59816446D01*
X43318502Y-59855484D01*
X43147772Y-59942476D01*
X43147760Y-59942483D01*
X43112010Y-59968456D01*
X43112010Y-59968457D01*
X43675591Y-60532037D01*
X43612007Y-60549075D01*
X43497993Y-60614901D01*
X43404901Y-60707993D01*
X43339075Y-60822007D01*
X43322037Y-60885590D01*
X42758457Y-60322010D01*
X42758456Y-60322010D01*
X42732483Y-60357760D01*
X42732482Y-60357762D01*
X42642873Y-60533626D01*
X42581876Y-60721353D01*
X42551000Y-60916302D01*
X42551000Y-61113697D01*
X42581876Y-61308646D01*
X42642873Y-61496373D01*
X42732483Y-61672239D01*
X42758457Y-61707988D01*
X42758457Y-61707989D01*
X43322037Y-61144409D01*
X43339075Y-61207993D01*
X43404901Y-61322007D01*
X43497993Y-61415099D01*
X43612007Y-61480925D01*
X43675590Y-61497962D01*
X43112009Y-62061541D01*
X43112010Y-62061542D01*
X43147755Y-62087512D01*
X43147768Y-62087520D01*
X43317953Y-62174235D01*
X43368749Y-62222210D01*
X43385544Y-62290031D01*
X43363006Y-62356166D01*
X43317954Y-62395203D01*
X43175515Y-62467781D01*
X43147495Y-62482058D01*
X42987753Y-62598115D01*
X42848115Y-62737753D01*
X42732058Y-62897495D01*
X42732056Y-62897499D01*
X42653164Y-63052333D01*
X42645485Y-63067403D01*
X42597510Y-63118199D01*
X42529689Y-63134994D01*
X42463554Y-63112456D01*
X42424515Y-63067403D01*
X42416837Y-63052334D01*
X42337944Y-62897499D01*
X42327430Y-62883028D01*
X42221884Y-62737753D01*
X42082246Y-62598115D01*
X41918560Y-62479192D01*
X41919599Y-62477761D01*
X41877833Y-62431593D01*
X41865500Y-62377682D01*
X41865500Y-50755945D01*
X41865500Y-50755943D01*
X41824577Y-50603216D01*
X41800340Y-50561236D01*
X41745524Y-50466290D01*
X41745521Y-50466286D01*
X41745520Y-50466284D01*
X41633716Y-50354480D01*
X41633715Y-50354479D01*
X41629385Y-50350149D01*
X41629374Y-50350139D01*
X30903149Y-39623914D01*
X30869664Y-39562591D01*
X30869213Y-39512040D01*
X30875500Y-39480435D01*
X30875500Y-39269564D01*
X30875499Y-39269560D01*
X30862110Y-39202246D01*
X30834362Y-39062747D01*
X30753665Y-38867928D01*
X30753664Y-38867927D01*
X30753661Y-38867921D01*
X30636512Y-38692596D01*
X30636509Y-38692592D01*
X30487407Y-38543490D01*
X30487403Y-38543487D01*
X30312078Y-38426338D01*
X30312069Y-38426333D01*
X30117253Y-38345638D01*
X30117245Y-38345636D01*
X29910439Y-38304500D01*
X29910435Y-38304500D01*
X29699565Y-38304500D01*
X29699560Y-38304500D01*
X29492754Y-38345636D01*
X29492746Y-38345638D01*
X29297930Y-38426333D01*
X29297921Y-38426338D01*
X29122596Y-38543487D01*
X29122592Y-38543490D01*
X28973490Y-38692592D01*
X28973487Y-38692596D01*
X28856338Y-38867921D01*
X28856333Y-38867930D01*
X28775638Y-39062746D01*
X28775636Y-39062754D01*
X28734500Y-39269560D01*
X28734500Y-39480439D01*
X28775636Y-39687245D01*
X28775638Y-39687253D01*
X28856333Y-39882069D01*
X28856338Y-39882078D01*
X28973487Y-40057403D01*
X28973490Y-40057407D01*
X29122592Y-40206509D01*
X29122596Y-40206512D01*
X29297921Y-40323661D01*
X29297927Y-40323664D01*
X29297928Y-40323665D01*
X29492747Y-40404362D01*
X29667958Y-40439213D01*
X29699560Y-40445499D01*
X29699564Y-40445500D01*
X29699565Y-40445500D01*
X29910436Y-40445500D01*
X29928314Y-40441943D01*
X29942040Y-40439213D01*
X30011631Y-40445439D01*
X30053914Y-40473149D01*
X40628181Y-51047416D01*
X40661666Y-51108739D01*
X40664500Y-51135097D01*
X40664500Y-62377682D01*
X40644815Y-62444721D01*
X40610675Y-62478139D01*
X40611440Y-62479192D01*
X40447753Y-62598115D01*
X40308115Y-62737753D01*
X40192058Y-62897495D01*
X40192056Y-62897499D01*
X40113164Y-63052333D01*
X40105485Y-63067403D01*
X40057510Y-63118199D01*
X39989689Y-63134994D01*
X39923554Y-63112456D01*
X39884515Y-63067403D01*
X39876837Y-63052334D01*
X39797944Y-62897499D01*
X39787430Y-62883028D01*
X39681884Y-62737753D01*
X39542246Y-62598115D01*
X39382504Y-62482058D01*
X39382503Y-62482057D01*
X39382501Y-62482056D01*
X39206561Y-62392409D01*
X39206558Y-62392408D01*
X39018763Y-62331389D01*
X38823736Y-62300500D01*
X38823731Y-62300500D01*
X38626269Y-62300500D01*
X38626264Y-62300500D01*
X38431236Y-62331389D01*
X38243441Y-62392408D01*
X38243439Y-62392408D01*
X38243439Y-62392409D01*
X38199921Y-62414583D01*
X38067495Y-62482058D01*
X37907753Y-62598115D01*
X37768115Y-62737753D01*
X37652058Y-62897495D01*
X37562408Y-63073441D01*
X37501389Y-63261236D01*
X37470500Y-63456263D01*
X37470500Y-63653732D01*
X37470499Y-63653734D01*
X37501389Y-63848763D01*
X37553298Y-64008521D01*
X37562409Y-64036561D01*
X37652056Y-64212501D01*
X37652058Y-64212504D01*
X37768115Y-64372246D01*
X37868688Y-64472819D01*
X37902173Y-64534142D01*
X37897189Y-64603834D01*
X37855317Y-64659767D01*
X37789853Y-64684184D01*
X37781007Y-64684500D01*
X37440783Y-64684500D01*
X37373744Y-64664815D01*
X37353102Y-64648181D01*
X35509209Y-62804289D01*
X35509206Y-62804285D01*
X35509206Y-62804286D01*
X35502139Y-62797219D01*
X35502139Y-62797218D01*
X35362782Y-62657861D01*
X35362781Y-62657860D01*
X35362780Y-62657859D01*
X35198920Y-62548371D01*
X35198911Y-62548366D01*
X35077579Y-62498109D01*
X35077578Y-62498108D01*
X35070165Y-62495038D01*
X35016836Y-62472949D01*
X34896969Y-62449106D01*
X34892887Y-62448294D01*
X34892876Y-62448291D01*
X34823543Y-62434500D01*
X34823541Y-62434500D01*
X34626459Y-62434500D01*
X34626457Y-62434500D01*
X34553031Y-62449106D01*
X34553030Y-62449106D01*
X34433167Y-62472947D01*
X34433159Y-62472950D01*
X34379834Y-62495037D01*
X34379834Y-62495038D01*
X34334315Y-62513892D01*
X34251089Y-62548366D01*
X34251079Y-62548371D01*
X34087218Y-62657860D01*
X34087214Y-62657863D01*
X33947863Y-62797214D01*
X33947860Y-62797218D01*
X33838371Y-62961079D01*
X33838364Y-62961092D01*
X33800572Y-63052333D01*
X33800572Y-63052334D01*
X33762949Y-63143163D01*
X33762947Y-63143171D01*
X33724500Y-63336455D01*
X33724500Y-63533544D01*
X33748407Y-63653731D01*
X33762947Y-63726829D01*
X33762949Y-63726837D01*
X33838364Y-63908907D01*
X33838371Y-63908920D01*
X33947859Y-64072780D01*
X33947860Y-64072781D01*
X33947861Y-64072782D01*
X34087218Y-64212139D01*
X34087219Y-64212139D01*
X34094286Y-64219206D01*
X34094285Y-64219206D01*
X34094289Y-64219209D01*
X36337216Y-66462138D01*
X36340879Y-66465144D01*
X36380216Y-66522888D01*
X36382089Y-66592732D01*
X36345904Y-66652502D01*
X36283149Y-66683221D01*
X36262218Y-66685000D01*
X17529726Y-66685000D01*
X17462687Y-66665315D01*
X17416932Y-66612511D01*
X17407253Y-66580398D01*
X17381090Y-66415214D01*
X17303239Y-66175616D01*
X17261747Y-66094184D01*
X17188870Y-65951155D01*
X17169952Y-65925117D01*
X17040798Y-65747350D01*
X17040794Y-65747345D01*
X16862658Y-65569209D01*
X16862656Y-65569207D01*
X16776113Y-65506330D01*
X16733449Y-65451001D01*
X16725000Y-65406013D01*
X16725000Y-63212648D01*
X19154500Y-63212648D01*
X19154500Y-63417351D01*
X19186522Y-63619534D01*
X19249781Y-63814223D01*
X19312485Y-63937284D01*
X19340262Y-63991800D01*
X19342715Y-63996613D01*
X19463028Y-64162213D01*
X19607786Y-64306971D01*
X19760441Y-64417879D01*
X19773390Y-64427287D01*
X19875465Y-64479297D01*
X19955776Y-64520218D01*
X19955778Y-64520218D01*
X19955781Y-64520220D01*
X20060137Y-64554127D01*
X20150465Y-64583477D01*
X20251557Y-64599488D01*
X20352648Y-64615500D01*
X20352649Y-64615500D01*
X20557351Y-64615500D01*
X20557352Y-64615500D01*
X20759534Y-64583477D01*
X20954219Y-64520220D01*
X21136610Y-64427287D01*
X21229590Y-64359732D01*
X21302213Y-64306971D01*
X21302215Y-64306968D01*
X21302219Y-64306966D01*
X21446966Y-64162219D01*
X21446968Y-64162215D01*
X21446971Y-64162213D01*
X21542868Y-64030220D01*
X21567287Y-63996610D01*
X21660220Y-63814219D01*
X21723477Y-63619534D01*
X21755500Y-63417352D01*
X21755500Y-63212648D01*
X21744495Y-63143164D01*
X21723477Y-63010465D01*
X21671501Y-62850500D01*
X21660220Y-62815781D01*
X21660218Y-62815778D01*
X21660218Y-62815776D01*
X21585829Y-62669781D01*
X21567287Y-62633390D01*
X21555711Y-62617457D01*
X21533655Y-62587098D01*
X21533654Y-62587097D01*
X21482990Y-62517363D01*
X24554500Y-62517363D01*
X24554500Y-63717381D01*
X24554501Y-63717398D01*
X24565000Y-63820176D01*
X24565001Y-63820179D01*
X24620185Y-63986711D01*
X24620187Y-63986716D01*
X24636861Y-64013749D01*
X24712288Y-64136036D01*
X24836344Y-64260092D01*
X24985666Y-64352194D01*
X25152203Y-64407379D01*
X25254991Y-64417880D01*
X26455008Y-64417879D01*
X26557797Y-64407379D01*
X26724334Y-64352194D01*
X26873656Y-64260092D01*
X26997712Y-64136036D01*
X27089814Y-63986714D01*
X27144999Y-63820177D01*
X27155500Y-63717389D01*
X27155500Y-63653734D01*
X29850499Y-63653734D01*
X29881389Y-63848763D01*
X29933298Y-64008521D01*
X29942409Y-64036561D01*
X30032056Y-64212501D01*
X30032058Y-64212504D01*
X30148115Y-64372246D01*
X30287753Y-64511884D01*
X30390391Y-64586453D01*
X30447499Y-64627944D01*
X30623439Y-64717591D01*
X30748637Y-64758270D01*
X30811236Y-64778610D01*
X31006264Y-64809500D01*
X31006269Y-64809500D01*
X31203736Y-64809500D01*
X31398763Y-64778610D01*
X31586561Y-64717591D01*
X31762501Y-64627944D01*
X31879620Y-64542853D01*
X31922246Y-64511884D01*
X31922248Y-64511881D01*
X31922252Y-64511879D01*
X32061879Y-64372252D01*
X32061881Y-64372248D01*
X32061884Y-64372246D01*
X32143367Y-64260092D01*
X32177944Y-64212501D01*
X32267591Y-64036561D01*
X32328610Y-63848763D01*
X32334081Y-63814219D01*
X32359500Y-63653734D01*
X32359500Y-63456263D01*
X32328610Y-63261236D01*
X32290246Y-63143164D01*
X32267591Y-63073439D01*
X32177944Y-62897499D01*
X32167430Y-62883028D01*
X32061884Y-62737753D01*
X31922246Y-62598115D01*
X31762505Y-62482058D01*
X31734485Y-62467781D01*
X31592043Y-62395202D01*
X31541250Y-62347230D01*
X31524455Y-62279409D01*
X31546992Y-62213275D01*
X31592046Y-62174235D01*
X31762241Y-62087516D01*
X31797988Y-62061543D01*
X31797988Y-62061541D01*
X31234410Y-61497962D01*
X31297993Y-61480925D01*
X31412007Y-61415099D01*
X31505099Y-61322007D01*
X31570925Y-61207993D01*
X31587962Y-61144409D01*
X32151541Y-61707988D01*
X32151543Y-61707988D01*
X32177516Y-61672241D01*
X32267126Y-61496373D01*
X32328123Y-61308646D01*
X32359000Y-61113697D01*
X32359000Y-60916302D01*
X32328123Y-60721353D01*
X32267126Y-60533626D01*
X32177520Y-60357768D01*
X32177512Y-60357755D01*
X32151542Y-60322010D01*
X32151541Y-60322009D01*
X31587962Y-60885589D01*
X31570925Y-60822007D01*
X31505099Y-60707993D01*
X31412007Y-60614901D01*
X31297993Y-60549075D01*
X31234409Y-60532037D01*
X31797989Y-59968457D01*
X31762236Y-59942481D01*
X31592045Y-59855763D01*
X31541250Y-59807789D01*
X31524455Y-59739968D01*
X31546993Y-59673833D01*
X31592042Y-59634798D01*
X31762501Y-59547944D01*
X31810283Y-59513228D01*
X31922246Y-59431884D01*
X31922248Y-59431881D01*
X31922252Y-59431879D01*
X32061879Y-59292252D01*
X32061881Y-59292248D01*
X32061884Y-59292246D01*
X32125197Y-59205102D01*
X32177944Y-59132501D01*
X32267591Y-58956561D01*
X32328610Y-58768763D01*
X32336742Y-58717420D01*
X32359500Y-58573736D01*
X32359500Y-58376263D01*
X32328610Y-58181236D01*
X32272671Y-58009075D01*
X32267591Y-57993439D01*
X32177944Y-57817499D01*
X32152160Y-57782010D01*
X32061884Y-57657753D01*
X31922246Y-57518115D01*
X31762505Y-57402058D01*
X31756119Y-57398804D01*
X31592593Y-57315482D01*
X31541800Y-57267510D01*
X31525005Y-57199689D01*
X31547542Y-57133554D01*
X31592593Y-57094517D01*
X31762501Y-57007944D01*
X31798545Y-56981757D01*
X31922246Y-56891884D01*
X31922248Y-56891881D01*
X31922252Y-56891879D01*
X32061879Y-56752252D01*
X32061881Y-56752248D01*
X32061884Y-56752246D01*
X32112779Y-56682192D01*
X32177944Y-56592501D01*
X32267591Y-56416561D01*
X32328610Y-56228763D01*
X32338709Y-56165000D01*
X32359500Y-56033736D01*
X32359500Y-55836263D01*
X32328610Y-55641236D01*
X32291153Y-55525957D01*
X32267591Y-55453439D01*
X32177944Y-55277499D01*
X32146133Y-55233714D01*
X32061884Y-55117753D01*
X31922246Y-54978115D01*
X31762505Y-54862058D01*
X31756119Y-54858804D01*
X31592593Y-54775482D01*
X31541800Y-54727510D01*
X31525005Y-54659689D01*
X31547542Y-54593554D01*
X31592593Y-54554517D01*
X31762501Y-54467944D01*
X31798842Y-54441541D01*
X31922246Y-54351884D01*
X31922248Y-54351881D01*
X31922252Y-54351879D01*
X32061879Y-54212252D01*
X32061881Y-54212248D01*
X32061884Y-54212246D01*
X32140377Y-54104208D01*
X32177944Y-54052501D01*
X32267591Y-53876561D01*
X32328610Y-53688763D01*
X32332390Y-53664896D01*
X32359500Y-53493736D01*
X32359500Y-53296263D01*
X32328610Y-53101236D01*
X32272671Y-52929075D01*
X32267591Y-52913439D01*
X32177944Y-52737499D01*
X32160444Y-52713412D01*
X32061884Y-52577753D01*
X31922246Y-52438115D01*
X31762505Y-52322058D01*
X31721738Y-52301286D01*
X31592593Y-52235482D01*
X31541800Y-52187510D01*
X31525005Y-52119689D01*
X31547542Y-52053554D01*
X31592593Y-52014517D01*
X31762501Y-51927944D01*
X31798842Y-51901541D01*
X31922246Y-51811884D01*
X31922248Y-51811881D01*
X31922252Y-51811879D01*
X32061879Y-51672252D01*
X32061881Y-51672248D01*
X32061884Y-51672246D01*
X32140377Y-51564208D01*
X32177944Y-51512501D01*
X32267591Y-51336561D01*
X32328610Y-51148763D01*
X32359500Y-50953736D01*
X32359500Y-50756263D01*
X32328610Y-50561236D01*
X32272671Y-50389075D01*
X32267591Y-50373439D01*
X32177944Y-50197499D01*
X32170486Y-50187234D01*
X32061884Y-50037753D01*
X31922246Y-49898115D01*
X31762505Y-49782058D01*
X31756119Y-49778804D01*
X31592593Y-49695482D01*
X31541800Y-49647510D01*
X31525005Y-49579689D01*
X31547542Y-49513554D01*
X31592593Y-49474517D01*
X31762501Y-49387944D01*
X31861084Y-49316320D01*
X31922246Y-49271884D01*
X31922248Y-49271881D01*
X31922252Y-49271879D01*
X32061879Y-49132252D01*
X32061881Y-49132248D01*
X32061884Y-49132246D01*
X32112779Y-49062192D01*
X32177944Y-48972501D01*
X32267591Y-48796561D01*
X32328610Y-48608763D01*
X32329350Y-48604088D01*
X32359500Y-48413736D01*
X32359500Y-48216263D01*
X32328610Y-48021236D01*
X32271353Y-47845018D01*
X32267591Y-47833439D01*
X32177944Y-47657499D01*
X32116400Y-47572790D01*
X32061884Y-47497753D01*
X31922246Y-47358115D01*
X31778003Y-47253318D01*
X31735337Y-47197989D01*
X31729358Y-47128375D01*
X31761963Y-47066580D01*
X31822802Y-47032223D01*
X31850888Y-47029000D01*
X31906828Y-47029000D01*
X31906844Y-47028999D01*
X31966372Y-47022598D01*
X31966379Y-47022596D01*
X32101086Y-46972354D01*
X32101093Y-46972350D01*
X32216187Y-46886190D01*
X32216190Y-46886187D01*
X32302350Y-46771093D01*
X32302354Y-46771086D01*
X32352596Y-46636379D01*
X32352598Y-46636372D01*
X32358999Y-46576844D01*
X32359000Y-46576827D01*
X32359000Y-46025000D01*
X31538012Y-46025000D01*
X31570925Y-45967993D01*
X31605000Y-45840826D01*
X31605000Y-45709174D01*
X31570925Y-45582007D01*
X31538012Y-45525000D01*
X32359000Y-45525000D01*
X32359000Y-44973172D01*
X32358999Y-44973155D01*
X32352598Y-44913627D01*
X32352596Y-44913620D01*
X32302354Y-44778913D01*
X32302350Y-44778906D01*
X32216190Y-44663812D01*
X32216187Y-44663809D01*
X32101093Y-44577649D01*
X32101086Y-44577645D01*
X31966379Y-44527403D01*
X31966372Y-44527401D01*
X31906844Y-44521000D01*
X31355000Y-44521000D01*
X31355000Y-45341988D01*
X31297993Y-45309075D01*
X31170826Y-45275000D01*
X31039174Y-45275000D01*
X30912007Y-45309075D01*
X30855000Y-45341988D01*
X30855000Y-44521000D01*
X30303155Y-44521000D01*
X30243627Y-44527401D01*
X30243620Y-44527403D01*
X30108913Y-44577645D01*
X30108906Y-44577649D01*
X29993812Y-44663809D01*
X29993809Y-44663812D01*
X29907649Y-44778906D01*
X29907645Y-44778913D01*
X29857403Y-44913620D01*
X29857401Y-44913627D01*
X29851000Y-44973155D01*
X29851000Y-45525000D01*
X30671988Y-45525000D01*
X30639075Y-45582007D01*
X30605000Y-45709174D01*
X30605000Y-45840826D01*
X30639075Y-45967993D01*
X30671988Y-46025000D01*
X29851000Y-46025000D01*
X29851000Y-46576844D01*
X29857401Y-46636372D01*
X29857403Y-46636379D01*
X29907645Y-46771086D01*
X29907649Y-46771093D01*
X29993809Y-46886187D01*
X29993812Y-46886190D01*
X30108906Y-46972350D01*
X30108913Y-46972354D01*
X30243620Y-47022596D01*
X30243627Y-47022598D01*
X30303155Y-47028999D01*
X30303172Y-47029000D01*
X30359112Y-47029000D01*
X30426151Y-47048685D01*
X30471906Y-47101489D01*
X30481850Y-47170647D01*
X30452825Y-47234203D01*
X30431997Y-47253318D01*
X30287753Y-47358115D01*
X30148115Y-47497753D01*
X30032058Y-47657495D01*
X29942408Y-47833441D01*
X29881389Y-48021236D01*
X29850500Y-48216263D01*
X29850500Y-48413736D01*
X29881389Y-48608763D01*
X29942408Y-48796558D01*
X29942409Y-48796561D01*
X29951913Y-48815213D01*
X30032058Y-48972504D01*
X30148115Y-49132246D01*
X30287753Y-49271884D01*
X30434854Y-49378757D01*
X30447499Y-49387944D01*
X30617404Y-49474516D01*
X30668199Y-49522490D01*
X30684994Y-49590311D01*
X30662456Y-49656446D01*
X30617404Y-49695483D01*
X30460321Y-49775522D01*
X30447495Y-49782058D01*
X30287753Y-49898115D01*
X30148115Y-50037753D01*
X30032058Y-50197495D01*
X29942408Y-50373441D01*
X29881389Y-50561236D01*
X29850500Y-50756263D01*
X29850500Y-50953736D01*
X29881389Y-51148763D01*
X29942408Y-51336558D01*
X29942409Y-51336561D01*
X30032056Y-51512501D01*
X30032058Y-51512504D01*
X30148115Y-51672246D01*
X30287753Y-51811884D01*
X30411158Y-51901541D01*
X30447499Y-51927944D01*
X30617404Y-52014516D01*
X30668199Y-52062490D01*
X30684994Y-52130311D01*
X30662456Y-52196446D01*
X30617404Y-52235483D01*
X30488262Y-52301286D01*
X30447495Y-52322058D01*
X30287753Y-52438115D01*
X30148115Y-52577753D01*
X30032058Y-52737495D01*
X29942408Y-52913441D01*
X29881389Y-53101236D01*
X29850500Y-53296263D01*
X29850500Y-53493736D01*
X29881389Y-53688763D01*
X29942408Y-53876558D01*
X29942409Y-53876561D01*
X30032056Y-54052501D01*
X30032058Y-54052504D01*
X30148115Y-54212246D01*
X30287753Y-54351884D01*
X30411158Y-54441541D01*
X30447499Y-54467944D01*
X30617404Y-54554516D01*
X30668199Y-54602490D01*
X30684994Y-54670311D01*
X30662456Y-54736446D01*
X30617404Y-54775483D01*
X30460321Y-54855522D01*
X30447495Y-54862058D01*
X30287753Y-54978115D01*
X30148115Y-55117753D01*
X30032058Y-55277495D01*
X29942408Y-55453441D01*
X29881389Y-55641236D01*
X29850500Y-55836263D01*
X29850500Y-56033736D01*
X29881389Y-56228763D01*
X29942408Y-56416558D01*
X29942409Y-56416561D01*
X30032056Y-56592501D01*
X30032058Y-56592504D01*
X30148115Y-56752246D01*
X30287753Y-56891884D01*
X30437234Y-57000486D01*
X30447499Y-57007944D01*
X30617404Y-57094516D01*
X30668199Y-57142490D01*
X30684994Y-57210311D01*
X30662456Y-57276446D01*
X30617404Y-57315483D01*
X30515742Y-57367284D01*
X30447495Y-57402058D01*
X30287753Y-57518115D01*
X30148115Y-57657753D01*
X30032058Y-57817495D01*
X29942408Y-57993441D01*
X29881389Y-58181236D01*
X29850500Y-58376263D01*
X29850500Y-58573736D01*
X29881389Y-58768763D01*
X29942348Y-58956373D01*
X29942409Y-58956561D01*
X30025811Y-59120244D01*
X30032058Y-59132504D01*
X30148115Y-59292246D01*
X30287753Y-59431884D01*
X30447494Y-59547941D01*
X30447496Y-59547942D01*
X30447499Y-59547944D01*
X30617956Y-59634797D01*
X30668749Y-59682768D01*
X30685544Y-59750589D01*
X30663007Y-59816724D01*
X30617954Y-59855763D01*
X30447767Y-59942479D01*
X30447760Y-59942483D01*
X30412010Y-59968456D01*
X30412010Y-59968457D01*
X30975591Y-60532037D01*
X30912007Y-60549075D01*
X30797993Y-60614901D01*
X30704901Y-60707993D01*
X30639075Y-60822007D01*
X30622037Y-60885590D01*
X30058457Y-60322010D01*
X30058456Y-60322010D01*
X30032483Y-60357760D01*
X30032482Y-60357762D01*
X29942873Y-60533626D01*
X29881876Y-60721353D01*
X29851000Y-60916302D01*
X29851000Y-61113697D01*
X29881876Y-61308646D01*
X29942873Y-61496373D01*
X30032483Y-61672239D01*
X30058457Y-61707988D01*
X30058457Y-61707989D01*
X30622037Y-61144409D01*
X30639075Y-61207993D01*
X30704901Y-61322007D01*
X30797993Y-61415099D01*
X30912007Y-61480925D01*
X30975590Y-61497962D01*
X30412009Y-62061541D01*
X30412010Y-62061542D01*
X30447755Y-62087512D01*
X30447768Y-62087520D01*
X30617953Y-62174235D01*
X30668749Y-62222210D01*
X30685544Y-62290031D01*
X30663006Y-62356166D01*
X30617954Y-62395203D01*
X30475515Y-62467781D01*
X30447495Y-62482058D01*
X30287753Y-62598115D01*
X30148115Y-62737753D01*
X30032058Y-62897495D01*
X29942408Y-63073441D01*
X29881389Y-63261236D01*
X29850500Y-63456263D01*
X29850500Y-63653732D01*
X29850499Y-63653734D01*
X27155500Y-63653734D01*
X27155499Y-63112456D01*
X27155499Y-62517378D01*
X27155498Y-62517361D01*
X27144999Y-62414583D01*
X27144998Y-62414580D01*
X27132771Y-62377682D01*
X27089814Y-62248046D01*
X26997712Y-62098724D01*
X26873656Y-61974668D01*
X26724334Y-61882566D01*
X26662558Y-61862095D01*
X26605115Y-61822323D01*
X26578292Y-61757807D01*
X26577946Y-61734660D01*
X26580921Y-61696853D01*
X25901447Y-61017380D01*
X25907661Y-61017380D01*
X26009394Y-60990121D01*
X26100606Y-60937460D01*
X26175080Y-60862986D01*
X26227741Y-60771774D01*
X26255000Y-60670041D01*
X26255000Y-60663828D01*
X26934474Y-61343302D01*
X26934474Y-61343301D01*
X26966859Y-61298729D01*
X27059755Y-61116411D01*
X27122989Y-60921799D01*
X27127704Y-60892036D01*
X27127704Y-60892034D01*
X27155000Y-60719697D01*
X27155000Y-60515062D01*
X27122990Y-60312962D01*
X27059755Y-60118348D01*
X26966859Y-59936030D01*
X26934474Y-59891457D01*
X26934474Y-59891456D01*
X26255000Y-60570931D01*
X26255000Y-60564719D01*
X26227741Y-60462986D01*
X26175080Y-60371774D01*
X26100606Y-60297300D01*
X26009394Y-60244639D01*
X25907661Y-60217380D01*
X25901446Y-60217380D01*
X26580922Y-59537904D01*
X26580921Y-59537903D01*
X26536359Y-59505527D01*
X26536350Y-59505521D01*
X26354031Y-59412624D01*
X26159417Y-59349389D01*
X25957317Y-59317380D01*
X25752683Y-59317380D01*
X25550582Y-59349389D01*
X25355968Y-59412624D01*
X25173644Y-59505523D01*
X25129077Y-59537903D01*
X25129077Y-59537904D01*
X25808554Y-60217380D01*
X25802339Y-60217380D01*
X25700606Y-60244639D01*
X25609394Y-60297300D01*
X25534920Y-60371774D01*
X25482259Y-60462986D01*
X25455000Y-60564719D01*
X25455000Y-60570933D01*
X24775524Y-59891457D01*
X24775523Y-59891457D01*
X24743143Y-59936024D01*
X24650244Y-60118348D01*
X24587009Y-60312962D01*
X24555000Y-60515062D01*
X24555000Y-60719697D01*
X24587009Y-60921797D01*
X24650244Y-61116411D01*
X24743141Y-61298730D01*
X24743147Y-61298739D01*
X24775523Y-61343301D01*
X24775524Y-61343302D01*
X25455000Y-60663826D01*
X25455000Y-60670041D01*
X25482259Y-60771774D01*
X25534920Y-60862986D01*
X25609394Y-60937460D01*
X25700606Y-60990121D01*
X25802339Y-61017380D01*
X25808553Y-61017380D01*
X25129076Y-61696854D01*
X25132052Y-61734662D01*
X25117687Y-61803039D01*
X25068636Y-61852795D01*
X25047440Y-61862095D01*
X24985672Y-61882564D01*
X24985663Y-61882567D01*
X24836342Y-61974669D01*
X24712289Y-62098722D01*
X24620187Y-62248043D01*
X24620185Y-62248048D01*
X24602804Y-62300500D01*
X24565001Y-62414583D01*
X24565001Y-62414584D01*
X24565000Y-62414584D01*
X24554500Y-62517363D01*
X21482990Y-62517363D01*
X21446971Y-62467787D01*
X21446967Y-62467782D01*
X21302213Y-62323028D01*
X21136611Y-62202713D01*
X21082621Y-62175203D01*
X21031825Y-62127228D01*
X21015031Y-62059407D01*
X21037569Y-61993272D01*
X21082624Y-61954233D01*
X21136349Y-61926859D01*
X21180921Y-61894474D01*
X20501447Y-61215000D01*
X20507661Y-61215000D01*
X20609394Y-61187741D01*
X20700606Y-61135080D01*
X20775080Y-61060606D01*
X20827741Y-60969394D01*
X20855000Y-60867661D01*
X20855000Y-60861447D01*
X21534474Y-61540921D01*
X21566859Y-61496349D01*
X21659755Y-61314031D01*
X21722990Y-61119417D01*
X21755000Y-60917317D01*
X21755000Y-60712682D01*
X21726001Y-60529598D01*
X21726000Y-60529593D01*
X21722988Y-60510576D01*
X21659755Y-60315968D01*
X21566859Y-60133650D01*
X21534474Y-60089077D01*
X21534474Y-60089076D01*
X20855000Y-60768551D01*
X20855000Y-60762339D01*
X20827741Y-60660606D01*
X20775080Y-60569394D01*
X20700606Y-60494920D01*
X20609394Y-60442259D01*
X20507661Y-60415000D01*
X20501446Y-60415000D01*
X21180922Y-59735524D01*
X21180921Y-59735523D01*
X21136359Y-59703147D01*
X21136350Y-59703141D01*
X21121644Y-59695648D01*
X20954031Y-59610244D01*
X20759417Y-59547009D01*
X20557317Y-59515000D01*
X20352683Y-59515000D01*
X20150582Y-59547009D01*
X19955968Y-59610244D01*
X19773644Y-59703143D01*
X19729077Y-59735523D01*
X19729077Y-59735524D01*
X20408554Y-60415000D01*
X20402339Y-60415000D01*
X20300606Y-60442259D01*
X20209394Y-60494920D01*
X20134920Y-60569394D01*
X20082259Y-60660606D01*
X20055000Y-60762339D01*
X20055000Y-60768553D01*
X19375524Y-60089077D01*
X19375523Y-60089077D01*
X19343143Y-60133644D01*
X19250244Y-60315968D01*
X19187009Y-60510582D01*
X19155000Y-60712682D01*
X19155000Y-60917317D01*
X19187009Y-61119417D01*
X19250244Y-61314031D01*
X19343141Y-61496350D01*
X19343147Y-61496359D01*
X19375523Y-61540921D01*
X19375524Y-61540922D01*
X20055000Y-60861446D01*
X20055000Y-60867661D01*
X20082259Y-60969394D01*
X20134920Y-61060606D01*
X20209394Y-61135080D01*
X20300606Y-61187741D01*
X20402339Y-61215000D01*
X20408553Y-61215000D01*
X19729076Y-61894474D01*
X19773652Y-61926861D01*
X19827376Y-61954234D01*
X19878172Y-62002208D01*
X19894968Y-62070028D01*
X19872431Y-62136164D01*
X19827379Y-62175203D01*
X19773386Y-62202714D01*
X19607786Y-62323028D01*
X19463028Y-62467786D01*
X19342715Y-62633386D01*
X19249781Y-62815776D01*
X19186522Y-63010465D01*
X19154500Y-63212648D01*
X16725000Y-63212648D01*
X16725000Y-46544983D01*
X21129500Y-46544983D01*
X21129500Y-47845001D01*
X21129501Y-47845018D01*
X21140000Y-47947796D01*
X21140001Y-47947799D01*
X21195185Y-48114331D01*
X21195187Y-48114336D01*
X21287289Y-48263657D01*
X21411344Y-48387712D01*
X21566120Y-48483178D01*
X21612845Y-48535126D01*
X21624068Y-48604088D01*
X21596224Y-48668171D01*
X21588706Y-48676398D01*
X21449889Y-48815215D01*
X21324951Y-48987179D01*
X21228444Y-49176585D01*
X21162753Y-49378760D01*
X21132543Y-49569500D01*
X21129500Y-49588713D01*
X21129500Y-49801287D01*
X21162754Y-50011243D01*
X21223271Y-50197495D01*
X21228444Y-50213414D01*
X21324951Y-50402820D01*
X21449890Y-50574786D01*
X21600209Y-50725105D01*
X21600214Y-50725109D01*
X21764793Y-50844682D01*
X21807459Y-50900011D01*
X21813438Y-50969625D01*
X21780833Y-51031420D01*
X21764793Y-51045318D01*
X21600214Y-51164890D01*
X21600209Y-51164894D01*
X21449890Y-51315213D01*
X21324951Y-51487179D01*
X21228444Y-51676585D01*
X21162753Y-51878760D01*
X21129500Y-52088713D01*
X21129500Y-52301286D01*
X21151172Y-52438121D01*
X21162754Y-52511243D01*
X21219468Y-52685791D01*
X21228444Y-52713414D01*
X21324951Y-52902820D01*
X21449890Y-53074786D01*
X21600209Y-53225105D01*
X21600214Y-53225109D01*
X21764793Y-53344682D01*
X21807459Y-53400011D01*
X21813438Y-53469625D01*
X21780833Y-53531420D01*
X21764793Y-53545318D01*
X21600214Y-53664890D01*
X21600209Y-53664894D01*
X21449890Y-53815213D01*
X21324951Y-53987179D01*
X21228444Y-54176585D01*
X21162753Y-54378760D01*
X21129500Y-54588713D01*
X21129500Y-54801286D01*
X21160743Y-54998551D01*
X21162754Y-55011243D01*
X21221742Y-55192790D01*
X21228444Y-55213414D01*
X21324951Y-55402820D01*
X21449890Y-55574786D01*
X21600213Y-55725109D01*
X21772179Y-55850048D01*
X21772181Y-55850049D01*
X21772184Y-55850051D01*
X21961588Y-55946557D01*
X22163757Y-56012246D01*
X22373713Y-56045500D01*
X22373714Y-56045500D01*
X22836286Y-56045500D01*
X22836287Y-56045500D01*
X23046243Y-56012246D01*
X23248412Y-55946557D01*
X23437816Y-55850051D01*
X23480224Y-55819240D01*
X23609786Y-55725109D01*
X23609788Y-55725106D01*
X23609792Y-55725104D01*
X23760104Y-55574792D01*
X23760106Y-55574788D01*
X23760109Y-55574786D01*
X23885048Y-55402820D01*
X23885047Y-55402820D01*
X23885051Y-55402816D01*
X23981557Y-55213412D01*
X24047246Y-55011243D01*
X24080500Y-54801287D01*
X24080500Y-54588713D01*
X24047246Y-54378757D01*
X23981557Y-54176588D01*
X23885051Y-53987184D01*
X23885049Y-53987181D01*
X23885048Y-53987179D01*
X23760109Y-53815213D01*
X23609792Y-53664896D01*
X23503943Y-53587993D01*
X23445204Y-53545316D01*
X23402540Y-53489989D01*
X23396561Y-53420376D01*
X23429166Y-53358580D01*
X23445199Y-53344686D01*
X23609792Y-53225104D01*
X23760104Y-53074792D01*
X23760106Y-53074788D01*
X23760109Y-53074786D01*
X23869086Y-52924789D01*
X23885051Y-52902816D01*
X23981557Y-52713412D01*
X24047246Y-52511243D01*
X24080500Y-52301287D01*
X24080500Y-52088713D01*
X24047246Y-51878757D01*
X23981557Y-51676588D01*
X23885051Y-51487184D01*
X23885049Y-51487181D01*
X23885048Y-51487179D01*
X23760109Y-51315213D01*
X23609792Y-51164896D01*
X23547250Y-51119457D01*
X23445204Y-51045316D01*
X23402540Y-50989989D01*
X23396561Y-50920376D01*
X23429166Y-50858580D01*
X23445199Y-50844686D01*
X23609792Y-50725104D01*
X23760104Y-50574792D01*
X23760106Y-50574788D01*
X23760109Y-50574786D01*
X23885048Y-50402820D01*
X23885047Y-50402820D01*
X23885051Y-50402816D01*
X23981557Y-50213412D01*
X24047246Y-50011243D01*
X24080500Y-49801287D01*
X24080500Y-49588713D01*
X24047246Y-49378757D01*
X23981557Y-49176588D01*
X23885051Y-48987184D01*
X23885049Y-48987181D01*
X23885048Y-48987179D01*
X23760109Y-48815213D01*
X23621294Y-48676398D01*
X23587809Y-48615075D01*
X23592793Y-48545383D01*
X23634665Y-48489450D01*
X23643879Y-48483178D01*
X23649331Y-48479814D01*
X23649334Y-48479814D01*
X23798656Y-48387712D01*
X23922712Y-48263656D01*
X24014814Y-48114334D01*
X24069999Y-47947797D01*
X24080500Y-47845009D01*
X24080499Y-46544992D01*
X24069999Y-46442203D01*
X24014814Y-46275666D01*
X23922712Y-46126344D01*
X23798656Y-46002288D01*
X23649334Y-45910186D01*
X23482797Y-45855001D01*
X23482795Y-45855000D01*
X23380010Y-45844500D01*
X21829998Y-45844500D01*
X21829981Y-45844501D01*
X21727203Y-45855000D01*
X21727200Y-45855001D01*
X21560668Y-45910185D01*
X21560663Y-45910187D01*
X21411342Y-46002289D01*
X21287289Y-46126342D01*
X21195187Y-46275663D01*
X21195186Y-46275666D01*
X21140001Y-46442203D01*
X21140001Y-46442204D01*
X21140000Y-46442204D01*
X21129500Y-46544983D01*
X16725000Y-46544983D01*
X16725000Y-40782648D01*
X17014500Y-40782648D01*
X17014500Y-40987351D01*
X17046522Y-41189534D01*
X17109781Y-41384223D01*
X17202715Y-41566613D01*
X17323028Y-41732213D01*
X17467786Y-41876971D01*
X17622749Y-41989556D01*
X17633390Y-41997287D01*
X17749607Y-42056503D01*
X17815776Y-42090218D01*
X17815778Y-42090218D01*
X17815781Y-42090220D01*
X17920137Y-42124127D01*
X18010465Y-42153477D01*
X18111557Y-42169488D01*
X18212648Y-42185500D01*
X18212649Y-42185500D01*
X18417351Y-42185500D01*
X18417352Y-42185500D01*
X18619534Y-42153477D01*
X18814219Y-42090220D01*
X18996610Y-41997287D01*
X19089590Y-41929732D01*
X19162213Y-41876971D01*
X19162215Y-41876968D01*
X19162219Y-41876966D01*
X19306966Y-41732219D01*
X19306968Y-41732215D01*
X19306971Y-41732213D01*
X19359732Y-41659590D01*
X19427287Y-41566610D01*
X19520220Y-41384219D01*
X19583477Y-41189534D01*
X19615500Y-40987352D01*
X19615500Y-40782648D01*
X24634500Y-40782648D01*
X24634500Y-40987351D01*
X24666522Y-41189534D01*
X24729781Y-41384223D01*
X24822715Y-41566613D01*
X24943028Y-41732213D01*
X25087786Y-41876971D01*
X25242749Y-41989556D01*
X25253390Y-41997287D01*
X25369607Y-42056503D01*
X25435776Y-42090218D01*
X25435778Y-42090218D01*
X25435781Y-42090220D01*
X25540137Y-42124127D01*
X25630465Y-42153477D01*
X25731557Y-42169488D01*
X25832648Y-42185500D01*
X25832649Y-42185500D01*
X26037351Y-42185500D01*
X26037352Y-42185500D01*
X26239534Y-42153477D01*
X26434219Y-42090220D01*
X26616610Y-41997287D01*
X26709590Y-41929732D01*
X26782213Y-41876971D01*
X26782215Y-41876968D01*
X26782219Y-41876966D01*
X26926966Y-41732219D01*
X26926968Y-41732215D01*
X26926971Y-41732213D01*
X26979732Y-41659590D01*
X27047287Y-41566610D01*
X27140220Y-41384219D01*
X27203477Y-41189534D01*
X27235500Y-40987352D01*
X27235500Y-40782648D01*
X27203477Y-40580466D01*
X27140220Y-40385781D01*
X27140218Y-40385778D01*
X27140218Y-40385776D01*
X27106503Y-40319607D01*
X27047287Y-40203390D01*
X27039556Y-40192749D01*
X26926971Y-40037786D01*
X26782213Y-39893028D01*
X26616613Y-39772715D01*
X26616612Y-39772714D01*
X26616610Y-39772713D01*
X26559653Y-39743691D01*
X26434223Y-39679781D01*
X26239534Y-39616522D01*
X26064995Y-39588878D01*
X26037352Y-39584500D01*
X25832648Y-39584500D01*
X25808329Y-39588351D01*
X25630465Y-39616522D01*
X25435776Y-39679781D01*
X25253386Y-39772715D01*
X25087786Y-39893028D01*
X24943028Y-40037786D01*
X24822715Y-40203386D01*
X24729781Y-40385776D01*
X24666522Y-40580465D01*
X24634500Y-40782648D01*
X19615500Y-40782648D01*
X19583477Y-40580466D01*
X19520220Y-40385781D01*
X19520218Y-40385778D01*
X19520218Y-40385776D01*
X19486503Y-40319607D01*
X19427287Y-40203390D01*
X19419556Y-40192749D01*
X19306971Y-40037786D01*
X19162213Y-39893028D01*
X18996613Y-39772715D01*
X18996612Y-39772714D01*
X18996610Y-39772713D01*
X18939653Y-39743691D01*
X18814223Y-39679781D01*
X18619534Y-39616522D01*
X18444995Y-39588878D01*
X18417352Y-39584500D01*
X18212648Y-39584500D01*
X18188329Y-39588351D01*
X18010465Y-39616522D01*
X17815776Y-39679781D01*
X17633386Y-39772715D01*
X17467786Y-39893028D01*
X17323028Y-40037786D01*
X17202715Y-40203386D01*
X17109781Y-40385776D01*
X17046522Y-40580465D01*
X17014500Y-40782648D01*
X16725000Y-40782648D01*
X16725000Y-37382648D01*
X17014500Y-37382648D01*
X17014500Y-37587351D01*
X17046522Y-37789534D01*
X17109781Y-37984223D01*
X17202715Y-38166613D01*
X17323028Y-38332213D01*
X17467786Y-38476971D01*
X17613662Y-38582954D01*
X17633390Y-38597287D01*
X17730400Y-38646716D01*
X17815776Y-38690218D01*
X17815778Y-38690218D01*
X17815781Y-38690220D01*
X17920137Y-38724127D01*
X18010465Y-38753477D01*
X18081867Y-38764786D01*
X18212648Y-38785500D01*
X18212649Y-38785500D01*
X18417351Y-38785500D01*
X18417352Y-38785500D01*
X18619534Y-38753477D01*
X18814219Y-38690220D01*
X18996610Y-38597287D01*
X19107856Y-38516463D01*
X19162213Y-38476971D01*
X19162215Y-38476968D01*
X19162219Y-38476966D01*
X19306966Y-38332219D01*
X19306968Y-38332215D01*
X19306971Y-38332213D01*
X19375017Y-38238554D01*
X19427287Y-38166610D01*
X19520220Y-37984219D01*
X19583477Y-37789534D01*
X19615500Y-37587352D01*
X19615500Y-37382648D01*
X24634500Y-37382648D01*
X24634500Y-37587351D01*
X24666522Y-37789534D01*
X24729781Y-37984223D01*
X24822715Y-38166613D01*
X24943028Y-38332213D01*
X25087786Y-38476971D01*
X25233662Y-38582954D01*
X25253390Y-38597287D01*
X25350400Y-38646716D01*
X25435776Y-38690218D01*
X25435778Y-38690218D01*
X25435781Y-38690220D01*
X25540137Y-38724127D01*
X25630465Y-38753477D01*
X25701867Y-38764786D01*
X25832648Y-38785500D01*
X25832649Y-38785500D01*
X26037351Y-38785500D01*
X26037352Y-38785500D01*
X26239534Y-38753477D01*
X26434219Y-38690220D01*
X26616610Y-38597287D01*
X26727856Y-38516463D01*
X26782213Y-38476971D01*
X26782215Y-38476968D01*
X26782219Y-38476966D01*
X26926966Y-38332219D01*
X26926968Y-38332215D01*
X26926971Y-38332213D01*
X26995017Y-38238554D01*
X27047287Y-38166610D01*
X27140220Y-37984219D01*
X27203477Y-37789534D01*
X27235500Y-37587352D01*
X27235500Y-37382648D01*
X27207160Y-37203717D01*
X27203477Y-37180465D01*
X27140218Y-36985776D01*
X27106923Y-36920433D01*
X27047287Y-36803390D01*
X27042177Y-36796356D01*
X27042176Y-36796354D01*
X26993648Y-36729560D01*
X28734500Y-36729560D01*
X28734500Y-36940439D01*
X28775636Y-37147245D01*
X28775638Y-37147253D01*
X28856333Y-37342069D01*
X28856338Y-37342078D01*
X28973487Y-37517403D01*
X28973490Y-37517407D01*
X29122592Y-37666509D01*
X29122596Y-37666512D01*
X29297921Y-37783661D01*
X29297927Y-37783664D01*
X29297928Y-37783665D01*
X29492747Y-37864362D01*
X29699560Y-37905499D01*
X29699564Y-37905500D01*
X29699565Y-37905500D01*
X29910436Y-37905500D01*
X29910437Y-37905499D01*
X30117253Y-37864362D01*
X30312072Y-37783665D01*
X30487404Y-37666512D01*
X30636512Y-37517404D01*
X30753665Y-37342072D01*
X30834362Y-37147253D01*
X30875500Y-36940435D01*
X30875500Y-36729565D01*
X30834362Y-36522747D01*
X30753665Y-36327928D01*
X30753664Y-36327927D01*
X30753661Y-36327921D01*
X30636512Y-36152596D01*
X30636509Y-36152592D01*
X30487407Y-36003490D01*
X30487403Y-36003487D01*
X30312078Y-35886338D01*
X30312069Y-35886333D01*
X30117253Y-35805638D01*
X30117245Y-35805636D01*
X29910439Y-35764500D01*
X29910435Y-35764500D01*
X29699565Y-35764500D01*
X29699560Y-35764500D01*
X29492754Y-35805636D01*
X29492746Y-35805638D01*
X29297930Y-35886333D01*
X29297921Y-35886338D01*
X29122596Y-36003487D01*
X29122592Y-36003490D01*
X28973490Y-36152592D01*
X28973487Y-36152596D01*
X28856338Y-36327921D01*
X28856333Y-36327930D01*
X28775638Y-36522746D01*
X28775636Y-36522754D01*
X28734500Y-36729560D01*
X26993648Y-36729560D01*
X26926971Y-36637787D01*
X26926967Y-36637782D01*
X26782213Y-36493028D01*
X26616613Y-36372715D01*
X26616612Y-36372714D01*
X26616610Y-36372713D01*
X26528701Y-36327921D01*
X26434223Y-36279781D01*
X26239534Y-36216522D01*
X26064995Y-36188878D01*
X26037352Y-36184500D01*
X25832648Y-36184500D01*
X25808329Y-36188351D01*
X25630465Y-36216522D01*
X25435776Y-36279781D01*
X25253386Y-36372715D01*
X25087786Y-36493028D01*
X24943028Y-36637786D01*
X24822715Y-36803386D01*
X24729781Y-36985776D01*
X24666522Y-37180465D01*
X24634500Y-37382648D01*
X19615500Y-37382648D01*
X19587160Y-37203717D01*
X19583477Y-37180465D01*
X19520218Y-36985776D01*
X19486503Y-36919607D01*
X19427287Y-36803390D01*
X19419556Y-36792749D01*
X19306971Y-36637786D01*
X19162213Y-36493028D01*
X18996613Y-36372715D01*
X18996612Y-36372714D01*
X18996610Y-36372713D01*
X18908701Y-36327921D01*
X18814223Y-36279781D01*
X18619534Y-36216522D01*
X18444995Y-36188878D01*
X18417352Y-36184500D01*
X18212648Y-36184500D01*
X18188329Y-36188351D01*
X18010465Y-36216522D01*
X17815776Y-36279781D01*
X17633386Y-36372715D01*
X17467786Y-36493028D01*
X17323028Y-36637786D01*
X17202715Y-36803386D01*
X17109781Y-36985776D01*
X17046522Y-37180465D01*
X17014500Y-37382648D01*
X16725000Y-37382648D01*
X16725000Y-33982648D01*
X17014500Y-33982648D01*
X17014500Y-34187351D01*
X17046522Y-34389534D01*
X17109781Y-34584223D01*
X17202715Y-34766613D01*
X17323028Y-34932213D01*
X17467786Y-35076971D01*
X17610236Y-35180465D01*
X17633390Y-35197287D01*
X17747820Y-35255592D01*
X17815776Y-35290218D01*
X17815778Y-35290218D01*
X17815781Y-35290220D01*
X17920137Y-35324127D01*
X18010465Y-35353477D01*
X18086375Y-35365500D01*
X18212648Y-35385500D01*
X18212649Y-35385500D01*
X18417351Y-35385500D01*
X18417352Y-35385500D01*
X18619534Y-35353477D01*
X18814219Y-35290220D01*
X18996610Y-35197287D01*
X19094028Y-35126509D01*
X19162213Y-35076971D01*
X19162215Y-35076968D01*
X19162219Y-35076966D01*
X19306966Y-34932219D01*
X19306968Y-34932215D01*
X19306971Y-34932213D01*
X19372359Y-34842213D01*
X19427287Y-34766610D01*
X19520220Y-34584219D01*
X19583477Y-34389534D01*
X19615500Y-34187352D01*
X19615500Y-33982648D01*
X24634500Y-33982648D01*
X24634500Y-34187351D01*
X24666522Y-34389534D01*
X24729781Y-34584223D01*
X24822715Y-34766613D01*
X24943028Y-34932213D01*
X25087786Y-35076971D01*
X25230236Y-35180465D01*
X25253390Y-35197287D01*
X25367820Y-35255592D01*
X25435776Y-35290218D01*
X25435778Y-35290218D01*
X25435781Y-35290220D01*
X25540137Y-35324127D01*
X25630465Y-35353477D01*
X25706375Y-35365500D01*
X25832648Y-35385500D01*
X25832649Y-35385500D01*
X26037351Y-35385500D01*
X26037352Y-35385500D01*
X26239534Y-35353477D01*
X26434219Y-35290220D01*
X26616610Y-35197287D01*
X26714028Y-35126509D01*
X26782213Y-35076971D01*
X26782215Y-35076968D01*
X26782219Y-35076966D01*
X26926966Y-34932219D01*
X26926968Y-34932215D01*
X26926971Y-34932213D01*
X26992359Y-34842213D01*
X27047287Y-34766610D01*
X27140220Y-34584219D01*
X27203477Y-34389534D01*
X27235150Y-34189560D01*
X28734500Y-34189560D01*
X28734500Y-34400439D01*
X28775636Y-34607245D01*
X28775638Y-34607253D01*
X28856333Y-34802069D01*
X28856338Y-34802078D01*
X28973487Y-34977403D01*
X28973490Y-34977407D01*
X29122592Y-35126509D01*
X29122596Y-35126512D01*
X29297921Y-35243661D01*
X29297927Y-35243664D01*
X29297928Y-35243665D01*
X29492747Y-35324362D01*
X29699560Y-35365499D01*
X29699564Y-35365500D01*
X29699565Y-35365500D01*
X29910436Y-35365500D01*
X29910437Y-35365499D01*
X30117253Y-35324362D01*
X30312072Y-35243665D01*
X30487404Y-35126512D01*
X30636512Y-34977404D01*
X30753665Y-34802072D01*
X30834362Y-34607253D01*
X30875500Y-34400435D01*
X30875500Y-34189565D01*
X30834362Y-33982747D01*
X30753665Y-33787928D01*
X30753664Y-33787927D01*
X30753661Y-33787921D01*
X30636512Y-33612596D01*
X30636509Y-33612592D01*
X30487407Y-33463490D01*
X30487403Y-33463487D01*
X30312078Y-33346338D01*
X30312069Y-33346333D01*
X30117253Y-33265638D01*
X30117245Y-33265636D01*
X29910439Y-33224500D01*
X29910435Y-33224500D01*
X29699565Y-33224500D01*
X29699560Y-33224500D01*
X29492754Y-33265636D01*
X29492746Y-33265638D01*
X29297930Y-33346333D01*
X29297921Y-33346338D01*
X29122596Y-33463487D01*
X29122592Y-33463490D01*
X28973490Y-33612592D01*
X28973487Y-33612596D01*
X28856338Y-33787921D01*
X28856333Y-33787930D01*
X28775638Y-33982746D01*
X28775636Y-33982754D01*
X28734500Y-34189560D01*
X27235150Y-34189560D01*
X27235500Y-34187352D01*
X27235500Y-33982648D01*
X27221245Y-33892648D01*
X27203477Y-33780465D01*
X27173332Y-33687690D01*
X27140220Y-33585781D01*
X27140218Y-33585778D01*
X27140218Y-33585776D01*
X27106503Y-33519607D01*
X27047287Y-33403390D01*
X27033926Y-33385000D01*
X26926971Y-33237786D01*
X26782213Y-33093028D01*
X26616613Y-32972715D01*
X26616612Y-32972714D01*
X26616610Y-32972713D01*
X26537372Y-32932339D01*
X26434223Y-32879781D01*
X26239534Y-32816522D01*
X26064995Y-32788878D01*
X26037352Y-32784500D01*
X25832648Y-32784500D01*
X25808329Y-32788351D01*
X25630465Y-32816522D01*
X25435776Y-32879781D01*
X25253386Y-32972715D01*
X25087786Y-33093028D01*
X24943028Y-33237786D01*
X24822715Y-33403386D01*
X24729781Y-33585776D01*
X24666522Y-33780465D01*
X24634500Y-33982648D01*
X19615500Y-33982648D01*
X19601245Y-33892648D01*
X19583477Y-33780465D01*
X19553332Y-33687690D01*
X19520220Y-33585781D01*
X19520218Y-33585778D01*
X19520218Y-33585776D01*
X19486503Y-33519607D01*
X19427287Y-33403390D01*
X19413926Y-33385000D01*
X19306971Y-33237786D01*
X19162213Y-33093028D01*
X18996613Y-32972715D01*
X18996612Y-32972714D01*
X18996610Y-32972713D01*
X18917372Y-32932339D01*
X18814223Y-32879781D01*
X18619534Y-32816522D01*
X18444995Y-32788878D01*
X18417352Y-32784500D01*
X18212648Y-32784500D01*
X18188329Y-32788351D01*
X18010465Y-32816522D01*
X17815776Y-32879781D01*
X17633386Y-32972715D01*
X17467786Y-33093028D01*
X17323028Y-33237786D01*
X17202715Y-33403386D01*
X17109781Y-33585776D01*
X17046522Y-33780465D01*
X17014500Y-33982648D01*
X16725000Y-33982648D01*
X16725000Y-20834983D01*
X21024500Y-20834983D01*
X21024500Y-22135001D01*
X21024501Y-22135018D01*
X21035000Y-22237796D01*
X21035001Y-22237799D01*
X21090185Y-22404331D01*
X21090187Y-22404336D01*
X21182289Y-22553657D01*
X21306344Y-22677712D01*
X21461120Y-22773178D01*
X21507845Y-22825126D01*
X21519068Y-22894088D01*
X21491224Y-22958171D01*
X21483706Y-22966398D01*
X21344889Y-23105215D01*
X21219951Y-23277179D01*
X21123444Y-23466585D01*
X21057753Y-23668760D01*
X21024500Y-23878713D01*
X21024500Y-24091286D01*
X21048123Y-24240439D01*
X21057754Y-24301243D01*
X21118615Y-24488554D01*
X21123444Y-24503414D01*
X21219951Y-24692820D01*
X21344890Y-24864786D01*
X21495209Y-25015105D01*
X21495214Y-25015109D01*
X21659793Y-25134682D01*
X21702459Y-25190011D01*
X21708438Y-25259625D01*
X21675833Y-25321420D01*
X21659793Y-25335318D01*
X21495214Y-25454890D01*
X21495209Y-25454894D01*
X21344890Y-25605213D01*
X21219951Y-25777179D01*
X21123444Y-25966585D01*
X21057753Y-26168760D01*
X21024500Y-26378713D01*
X21024500Y-26591286D01*
X21051967Y-26764709D01*
X21057754Y-26801243D01*
X21097612Y-26923914D01*
X21123444Y-27003414D01*
X21219951Y-27192820D01*
X21344890Y-27364786D01*
X21495209Y-27515105D01*
X21495214Y-27515109D01*
X21660218Y-27634991D01*
X21702884Y-27690320D01*
X21708863Y-27759934D01*
X21676258Y-27821729D01*
X21660218Y-27835627D01*
X21495540Y-27955272D01*
X21495535Y-27955276D01*
X21345276Y-28105535D01*
X21345272Y-28105540D01*
X21220379Y-28277442D01*
X21123904Y-28466782D01*
X21058242Y-28668870D01*
X21058242Y-28668873D01*
X21047769Y-28735000D01*
X22095854Y-28735000D01*
X22057370Y-28801657D01*
X22025000Y-28922465D01*
X22025000Y-29047535D01*
X22057370Y-29168343D01*
X22095854Y-29235000D01*
X21047769Y-29235000D01*
X21058242Y-29301126D01*
X21058242Y-29301129D01*
X21123904Y-29503217D01*
X21220379Y-29692557D01*
X21345272Y-29864459D01*
X21345276Y-29864464D01*
X21495535Y-30014723D01*
X21495540Y-30014727D01*
X21667442Y-30139620D01*
X21856782Y-30236095D01*
X22058872Y-30301757D01*
X22250000Y-30332029D01*
X22250000Y-29389145D01*
X22316657Y-29427630D01*
X22437465Y-29460000D01*
X22562535Y-29460000D01*
X22683343Y-29427630D01*
X22750000Y-29389145D01*
X22750000Y-30332028D01*
X22941127Y-30301757D01*
X23143217Y-30236095D01*
X23332557Y-30139620D01*
X23504459Y-30014727D01*
X23504464Y-30014723D01*
X23654723Y-29864464D01*
X23654727Y-29864459D01*
X23779620Y-29692557D01*
X23876095Y-29503217D01*
X23941757Y-29301129D01*
X23941757Y-29301126D01*
X23952231Y-29235000D01*
X22904146Y-29235000D01*
X22942630Y-29168343D01*
X22975000Y-29047535D01*
X22975000Y-28922465D01*
X22942630Y-28801657D01*
X22904146Y-28735000D01*
X23952231Y-28735000D01*
X23941757Y-28668873D01*
X23941757Y-28668870D01*
X23876095Y-28466782D01*
X23779620Y-28277442D01*
X23654727Y-28105540D01*
X23654723Y-28105535D01*
X23504464Y-27955276D01*
X23504459Y-27955272D01*
X23339781Y-27835627D01*
X23297115Y-27780297D01*
X23291136Y-27710684D01*
X23323741Y-27648889D01*
X23339776Y-27634994D01*
X23504792Y-27515104D01*
X23655104Y-27364792D01*
X23655106Y-27364788D01*
X23655109Y-27364786D01*
X23780048Y-27192820D01*
X23780047Y-27192820D01*
X23780051Y-27192816D01*
X23876557Y-27003412D01*
X23942246Y-26801243D01*
X23975500Y-26591287D01*
X23975500Y-26378713D01*
X23942246Y-26168757D01*
X23876557Y-25966588D01*
X23780051Y-25777184D01*
X23780049Y-25777181D01*
X23780048Y-25777179D01*
X23655109Y-25605213D01*
X23504792Y-25454896D01*
X23504784Y-25454890D01*
X23340204Y-25335316D01*
X23297540Y-25279989D01*
X23291561Y-25210376D01*
X23324166Y-25148580D01*
X23340199Y-25134686D01*
X23504792Y-25015104D01*
X23655104Y-24864792D01*
X23655106Y-24864788D01*
X23655109Y-24864786D01*
X23780048Y-24692820D01*
X23780047Y-24692820D01*
X23780051Y-24692816D01*
X23876557Y-24503412D01*
X23942246Y-24301243D01*
X23975500Y-24091287D01*
X23975500Y-23878713D01*
X23942246Y-23668757D01*
X23876557Y-23466588D01*
X23780051Y-23277184D01*
X23780049Y-23277181D01*
X23780048Y-23277179D01*
X23655109Y-23105213D01*
X23516294Y-22966398D01*
X23482809Y-22905075D01*
X23487793Y-22835383D01*
X23529665Y-22779450D01*
X23538879Y-22773178D01*
X23544331Y-22769814D01*
X23544334Y-22769814D01*
X23693656Y-22677712D01*
X23817712Y-22553656D01*
X23909814Y-22404334D01*
X23964999Y-22237797D01*
X23975500Y-22135009D01*
X23975499Y-20834992D01*
X23964999Y-20732203D01*
X23909814Y-20565666D01*
X23817712Y-20416344D01*
X23693656Y-20292288D01*
X23544334Y-20200186D01*
X23377797Y-20145001D01*
X23377795Y-20145000D01*
X23275010Y-20134500D01*
X21724998Y-20134500D01*
X21724981Y-20134501D01*
X21622203Y-20145000D01*
X21622200Y-20145001D01*
X21455668Y-20200185D01*
X21455663Y-20200187D01*
X21306342Y-20292289D01*
X21182289Y-20416342D01*
X21090187Y-20565663D01*
X21090185Y-20565668D01*
X21067997Y-20632628D01*
X21035001Y-20732203D01*
X21035001Y-20732204D01*
X21035000Y-20732204D01*
X21024500Y-20834983D01*
X16725000Y-20834983D01*
X16725000Y-19982648D01*
X49974500Y-19982648D01*
X49974500Y-20187351D01*
X50006522Y-20389534D01*
X50069781Y-20584223D01*
X50118394Y-20679629D01*
X50162585Y-20766359D01*
X50162715Y-20766613D01*
X50283028Y-20932213D01*
X50427786Y-21076971D01*
X50539285Y-21157978D01*
X50593390Y-21197287D01*
X50691483Y-21247268D01*
X50775776Y-21290218D01*
X50775778Y-21290218D01*
X50775781Y-21290220D01*
X50850643Y-21314544D01*
X50970465Y-21353477D01*
X51043256Y-21365006D01*
X51172648Y-21385500D01*
X51172649Y-21385500D01*
X51377351Y-21385500D01*
X51377352Y-21385500D01*
X51579534Y-21353477D01*
X51774219Y-21290220D01*
X51956610Y-21197287D01*
X52073547Y-21112328D01*
X52122213Y-21076971D01*
X52122215Y-21076968D01*
X52122219Y-21076966D01*
X52266966Y-20932219D01*
X52266968Y-20932215D01*
X52266971Y-20932213D01*
X52387286Y-20766611D01*
X52387415Y-20766359D01*
X52414795Y-20712621D01*
X52462769Y-20661826D01*
X52530589Y-20645030D01*
X52596725Y-20667567D01*
X52635765Y-20712621D01*
X52663141Y-20766350D01*
X52663147Y-20766359D01*
X52695523Y-20810921D01*
X52695524Y-20810922D01*
X53375000Y-20131446D01*
X53375000Y-20137661D01*
X53402259Y-20239394D01*
X53454920Y-20330606D01*
X53529394Y-20405080D01*
X53620606Y-20457741D01*
X53722339Y-20485000D01*
X53728553Y-20485000D01*
X53049076Y-21164474D01*
X53093650Y-21196859D01*
X53275968Y-21289755D01*
X53470582Y-21352990D01*
X53672683Y-21385000D01*
X53877317Y-21385000D01*
X54079417Y-21352990D01*
X54274031Y-21289755D01*
X54456349Y-21196859D01*
X54500921Y-21164474D01*
X53821447Y-20485000D01*
X53827661Y-20485000D01*
X53929394Y-20457741D01*
X54020606Y-20405080D01*
X54095080Y-20330606D01*
X54147741Y-20239394D01*
X54175000Y-20137661D01*
X54175000Y-20131447D01*
X54854474Y-20810921D01*
X54886859Y-20766349D01*
X54979755Y-20584031D01*
X55042990Y-20389417D01*
X55075000Y-20187317D01*
X55075000Y-19982682D01*
X55042990Y-19780582D01*
X54979755Y-19585968D01*
X54886859Y-19403650D01*
X54854474Y-19359077D01*
X54854474Y-19359076D01*
X54175000Y-20038551D01*
X54175000Y-20032339D01*
X54147741Y-19930606D01*
X54095080Y-19839394D01*
X54020606Y-19764920D01*
X53929394Y-19712259D01*
X53827661Y-19685000D01*
X53821446Y-19685000D01*
X54500922Y-19005524D01*
X54500921Y-19005523D01*
X54456359Y-18973147D01*
X54456350Y-18973141D01*
X54274031Y-18880244D01*
X54079417Y-18817009D01*
X53877317Y-18785000D01*
X53672683Y-18785000D01*
X53470582Y-18817009D01*
X53275968Y-18880244D01*
X53093644Y-18973143D01*
X53049077Y-19005523D01*
X53049077Y-19005524D01*
X53728554Y-19685000D01*
X53722339Y-19685000D01*
X53620606Y-19712259D01*
X53529394Y-19764920D01*
X53454920Y-19839394D01*
X53402259Y-19930606D01*
X53375000Y-20032339D01*
X53375000Y-20038553D01*
X52695524Y-19359077D01*
X52695523Y-19359077D01*
X52663143Y-19403644D01*
X52635765Y-19457378D01*
X52587790Y-19508174D01*
X52519969Y-19524969D01*
X52453834Y-19502431D01*
X52414795Y-19457378D01*
X52387284Y-19403385D01*
X52266971Y-19237786D01*
X52122213Y-19093028D01*
X51956613Y-18972715D01*
X51956612Y-18972714D01*
X51956610Y-18972713D01*
X51877688Y-18932500D01*
X51774223Y-18879781D01*
X51579534Y-18816522D01*
X51401154Y-18788270D01*
X51377352Y-18784500D01*
X51172648Y-18784500D01*
X51148846Y-18788270D01*
X50970465Y-18816522D01*
X50775776Y-18879781D01*
X50593386Y-18972715D01*
X50427786Y-19093028D01*
X50283028Y-19237786D01*
X50162715Y-19403386D01*
X50069781Y-19585776D01*
X50006522Y-19780465D01*
X49974500Y-19982648D01*
X16725000Y-19982648D01*
X16725000Y-17173986D01*
X16744685Y-17106947D01*
X16776113Y-17073669D01*
X16862656Y-17010793D01*
X17040793Y-16832656D01*
X17110935Y-16736113D01*
X17166263Y-16693449D01*
X17211252Y-16685000D01*
X76428748Y-16685000D01*
X76495787Y-16704685D01*
G37*
%TD.AperFunction*%
%TA.AperFunction,Conductor*%
G36*
X44851541Y-59167988D02*
G01*
X44851543Y-59167988D01*
X44877516Y-59132241D01*
X44967125Y-58956373D01*
X44983074Y-58907287D01*
X45022511Y-58849611D01*
X45086869Y-58822412D01*
X45155715Y-58834325D01*
X45188687Y-58857922D01*
X49760922Y-63430157D01*
X49794407Y-63491480D01*
X49791173Y-63556155D01*
X49786522Y-63570468D01*
X49763253Y-63717383D01*
X49754500Y-63772648D01*
X49754500Y-63977352D01*
X49756788Y-63991800D01*
X49786522Y-64179534D01*
X49849781Y-64374223D01*
X49916011Y-64504205D01*
X49928907Y-64572874D01*
X49902631Y-64637615D01*
X49845524Y-64677872D01*
X49805526Y-64684500D01*
X48704474Y-64684500D01*
X48637435Y-64664815D01*
X48591680Y-64612011D01*
X48581736Y-64542853D01*
X48593989Y-64504205D01*
X48660218Y-64374223D01*
X48660218Y-64374222D01*
X48660220Y-64374219D01*
X48723477Y-64179534D01*
X48755500Y-63977352D01*
X48755500Y-63772648D01*
X48723477Y-63570466D01*
X48711480Y-63533544D01*
X48660218Y-63375776D01*
X48626503Y-63309607D01*
X48567287Y-63193390D01*
X48530796Y-63143164D01*
X48446971Y-63027786D01*
X48302213Y-62883028D01*
X48136613Y-62762715D01*
X48136612Y-62762714D01*
X48136610Y-62762713D01*
X48057978Y-62722648D01*
X47954223Y-62669781D01*
X47759534Y-62606522D01*
X47584995Y-62578878D01*
X47557352Y-62574500D01*
X47352648Y-62574500D01*
X47328329Y-62578351D01*
X47150465Y-62606522D01*
X46955776Y-62669781D01*
X46773386Y-62762715D01*
X46607786Y-62883028D01*
X46463028Y-63027786D01*
X46342715Y-63193386D01*
X46249781Y-63375776D01*
X46186522Y-63570465D01*
X46163253Y-63717383D01*
X46154500Y-63772648D01*
X46154500Y-63977352D01*
X46156788Y-63991800D01*
X46186522Y-64179534D01*
X46249781Y-64374223D01*
X46316011Y-64504205D01*
X46328907Y-64572874D01*
X46302631Y-64637615D01*
X46245524Y-64677872D01*
X46205526Y-64684500D01*
X44748993Y-64684500D01*
X44681954Y-64664815D01*
X44636199Y-64612011D01*
X44626255Y-64542853D01*
X44655280Y-64479297D01*
X44661312Y-64472819D01*
X44706847Y-64427284D01*
X44761879Y-64372252D01*
X44761881Y-64372248D01*
X44761884Y-64372246D01*
X44843367Y-64260092D01*
X44877944Y-64212501D01*
X44967591Y-64036561D01*
X45028610Y-63848763D01*
X45034081Y-63814219D01*
X45059500Y-63653734D01*
X45059500Y-63456263D01*
X45028610Y-63261236D01*
X44990246Y-63143164D01*
X44967591Y-63073439D01*
X44877944Y-62897499D01*
X44867430Y-62883028D01*
X44761884Y-62737753D01*
X44622246Y-62598115D01*
X44462505Y-62482058D01*
X44434485Y-62467781D01*
X44292043Y-62395202D01*
X44241250Y-62347230D01*
X44224455Y-62279409D01*
X44246992Y-62213275D01*
X44292046Y-62174235D01*
X44462241Y-62087516D01*
X44497988Y-62061543D01*
X44497988Y-62061541D01*
X43934410Y-61497962D01*
X43997993Y-61480925D01*
X44112007Y-61415099D01*
X44205099Y-61322007D01*
X44270925Y-61207993D01*
X44287962Y-61144409D01*
X44851541Y-61707988D01*
X44851543Y-61707988D01*
X44877516Y-61672241D01*
X44967126Y-61496373D01*
X45028123Y-61308646D01*
X45059000Y-61113697D01*
X45059000Y-60916302D01*
X45028123Y-60721353D01*
X44967126Y-60533626D01*
X44877520Y-60357768D01*
X44877512Y-60357755D01*
X44851542Y-60322010D01*
X44851541Y-60322009D01*
X44287962Y-60885589D01*
X44270925Y-60822007D01*
X44205099Y-60707993D01*
X44112007Y-60614901D01*
X43997993Y-60549075D01*
X43934409Y-60532037D01*
X44497989Y-59968457D01*
X44462239Y-59942483D01*
X44291497Y-59855485D01*
X44240701Y-59807510D01*
X44223906Y-59739689D01*
X44246444Y-59673554D01*
X44291497Y-59634515D01*
X44462241Y-59547516D01*
X44497988Y-59521543D01*
X44497988Y-59521541D01*
X43934410Y-58957962D01*
X43997993Y-58940925D01*
X44112007Y-58875099D01*
X44205099Y-58782007D01*
X44270925Y-58667993D01*
X44287962Y-58604409D01*
X44851541Y-59167988D01*
G37*
%TD.AperFunction*%
%TA.AperFunction,Conductor*%
G36*
X44753375Y-56886214D02*
G01*
X44802070Y-56936320D01*
X44816400Y-56994186D01*
X44816400Y-57765791D01*
X44796715Y-57832830D01*
X44780081Y-57853472D01*
X44287962Y-58345590D01*
X44270925Y-58282007D01*
X44205099Y-58167993D01*
X44112007Y-58074901D01*
X43997993Y-58009075D01*
X43934409Y-57992037D01*
X44497989Y-57428457D01*
X44462236Y-57402481D01*
X44292045Y-57315763D01*
X44241250Y-57267789D01*
X44224455Y-57199968D01*
X44246993Y-57133833D01*
X44292042Y-57094798D01*
X44462501Y-57007944D01*
X44560679Y-56936614D01*
X44619515Y-56893868D01*
X44685321Y-56870388D01*
X44753375Y-56886214D01*
G37*
%TD.AperFunction*%
%TA.AperFunction,Conductor*%
G36*
X44780081Y-54016527D02*
G01*
X44813566Y-54077850D01*
X44816400Y-54104208D01*
X44816400Y-54875813D01*
X44796715Y-54942852D01*
X44743911Y-54988607D01*
X44674753Y-54998551D01*
X44619515Y-54976132D01*
X44462500Y-54862055D01*
X44413590Y-54837134D01*
X44292043Y-54775202D01*
X44241250Y-54727230D01*
X44224455Y-54659409D01*
X44246992Y-54593275D01*
X44292046Y-54554235D01*
X44462241Y-54467516D01*
X44497988Y-54441543D01*
X44497988Y-54441541D01*
X43934409Y-53877962D01*
X43997993Y-53860925D01*
X44112007Y-53795099D01*
X44205099Y-53702007D01*
X44270925Y-53587993D01*
X44287962Y-53524409D01*
X44780081Y-54016527D01*
G37*
%TD.AperFunction*%
%TA.AperFunction,Conductor*%
G36*
X44780081Y-51476527D02*
G01*
X44813566Y-51537850D01*
X44816400Y-51564208D01*
X44816400Y-52685791D01*
X44796715Y-52752830D01*
X44780081Y-52773472D01*
X44287962Y-53265590D01*
X44270925Y-53202007D01*
X44205099Y-53087993D01*
X44112007Y-52994901D01*
X43997993Y-52929075D01*
X43934408Y-52912037D01*
X44497989Y-52348457D01*
X44462239Y-52322483D01*
X44291497Y-52235485D01*
X44240701Y-52187510D01*
X44223906Y-52119689D01*
X44246444Y-52053554D01*
X44291497Y-52014515D01*
X44462241Y-51927516D01*
X44497988Y-51901543D01*
X44497988Y-51901541D01*
X43934409Y-51337962D01*
X43997993Y-51320925D01*
X44112007Y-51255099D01*
X44205099Y-51162007D01*
X44270925Y-51047993D01*
X44287962Y-50984409D01*
X44780081Y-51476527D01*
G37*
%TD.AperFunction*%
%TA.AperFunction,Conductor*%
G36*
X44753375Y-49266214D02*
G01*
X44802070Y-49316320D01*
X44816400Y-49374186D01*
X44816400Y-50145791D01*
X44796715Y-50212830D01*
X44780081Y-50233472D01*
X44287962Y-50725590D01*
X44270925Y-50662007D01*
X44205099Y-50547993D01*
X44112007Y-50454901D01*
X43997993Y-50389075D01*
X43934408Y-50372037D01*
X44497989Y-49808457D01*
X44462236Y-49782481D01*
X44292045Y-49695763D01*
X44241250Y-49647789D01*
X44224455Y-49579968D01*
X44246993Y-49513833D01*
X44292042Y-49474798D01*
X44462501Y-49387944D01*
X44561084Y-49316320D01*
X44619515Y-49273868D01*
X44685321Y-49250388D01*
X44753375Y-49266214D01*
G37*
%TD.AperFunction*%
%TA.AperFunction,Conductor*%
G36*
X68151619Y-30551081D02*
G01*
X68218498Y-30666920D01*
X68313080Y-30761502D01*
X68428919Y-30828381D01*
X68489057Y-30844494D01*
X67926283Y-31407268D01*
X67926283Y-31407269D01*
X67935524Y-31413983D01*
X67978189Y-31469314D01*
X67984167Y-31538927D01*
X67951560Y-31600722D01*
X67890721Y-31635078D01*
X67862637Y-31638300D01*
X66848215Y-31638300D01*
X66781176Y-31618615D01*
X66735421Y-31565811D01*
X66725477Y-31496653D01*
X66754502Y-31433097D01*
X66775330Y-31413982D01*
X66801955Y-31394636D01*
X66907464Y-31317981D01*
X67047981Y-31177464D01*
X67164787Y-31016694D01*
X67244796Y-30859667D01*
X67292769Y-30808872D01*
X67360590Y-30792077D01*
X67426725Y-30814614D01*
X67465765Y-30859668D01*
X67545641Y-31016432D01*
X67572730Y-31053715D01*
X68135504Y-30490941D01*
X68151619Y-30551081D01*
G37*
%TD.AperFunction*%
%TA.AperFunction,Conductor*%
G36*
X59661860Y-19265131D02*
G01*
X59717793Y-19307003D01*
X59742210Y-19372467D01*
X59742297Y-19381806D01*
X59742500Y-19381806D01*
X59742500Y-21004870D01*
X59742501Y-21004876D01*
X59748908Y-21064483D01*
X59799202Y-21199328D01*
X59799206Y-21199335D01*
X59885452Y-21314544D01*
X59885455Y-21314547D01*
X60000664Y-21400793D01*
X60000671Y-21400797D01*
X60135517Y-21451091D01*
X60135516Y-21451091D01*
X60142444Y-21451835D01*
X60195127Y-21457500D01*
X61814872Y-21457499D01*
X61874483Y-21451091D01*
X62009331Y-21400796D01*
X62124546Y-21314546D01*
X62210796Y-21199331D01*
X62261091Y-21064483D01*
X62267500Y-21004873D01*
X62267499Y-20966197D01*
X62287182Y-20899161D01*
X62339985Y-20853405D01*
X62409143Y-20843460D01*
X62472699Y-20872483D01*
X62491817Y-20893312D01*
X62582019Y-21017464D01*
X62722536Y-21157981D01*
X62883306Y-21274787D01*
X62913595Y-21290220D01*
X63060367Y-21365005D01*
X63060370Y-21365006D01*
X63124809Y-21385943D01*
X63249364Y-21426413D01*
X63445639Y-21457500D01*
X63445640Y-21457500D01*
X63644360Y-21457500D01*
X63644361Y-21457500D01*
X63840636Y-21426413D01*
X63840646Y-21426409D01*
X63842891Y-21425871D01*
X63843778Y-21425915D01*
X63845448Y-21425651D01*
X63845503Y-21426001D01*
X63912674Y-21429357D01*
X63959527Y-21458762D01*
X64178181Y-21677416D01*
X64211666Y-21738739D01*
X64214500Y-21765097D01*
X64214500Y-29076839D01*
X64194815Y-29143878D01*
X64142011Y-29189633D01*
X64072853Y-29199577D01*
X64034214Y-29187328D01*
X64029643Y-29184999D01*
X64029629Y-29184993D01*
X63840637Y-29123587D01*
X63742498Y-29108043D01*
X63644361Y-29092500D01*
X63445639Y-29092500D01*
X63406384Y-29098717D01*
X63249360Y-29123587D01*
X63247087Y-29124133D01*
X63246197Y-29124088D01*
X63244552Y-29124349D01*
X63244497Y-29124003D01*
X63177305Y-29120635D01*
X63130472Y-29091237D01*
X62749790Y-28710555D01*
X62749788Y-28710552D01*
X62630917Y-28591681D01*
X62630909Y-28591675D01*
X62528580Y-28532596D01*
X62528578Y-28532595D01*
X62493990Y-28512625D01*
X62493989Y-28512624D01*
X62481463Y-28509267D01*
X62341257Y-28471699D01*
X62183143Y-28471699D01*
X62175547Y-28471699D01*
X62175531Y-28471700D01*
X54086284Y-28471700D01*
X54019245Y-28452015D01*
X53973490Y-28399211D01*
X53963546Y-28330053D01*
X53968578Y-28308696D01*
X54014505Y-28170097D01*
X54014506Y-28170090D01*
X54024999Y-28067386D01*
X54025000Y-28067373D01*
X54025000Y-27717400D01*
X53040686Y-27717400D01*
X53045080Y-27713006D01*
X53097741Y-27621794D01*
X53125000Y-27520061D01*
X53125000Y-27414739D01*
X53097741Y-27313006D01*
X53045080Y-27221794D01*
X53040686Y-27217400D01*
X54024999Y-27217400D01*
X54024999Y-26867428D01*
X54024998Y-26867413D01*
X54014505Y-26764702D01*
X53959358Y-26598280D01*
X53959356Y-26598275D01*
X53867315Y-26449054D01*
X53743345Y-26325084D01*
X53594124Y-26233043D01*
X53594121Y-26233042D01*
X53549741Y-26218336D01*
X53492297Y-26178563D01*
X53465474Y-26114047D01*
X53477789Y-26045271D01*
X53515861Y-26000312D01*
X53572219Y-25959366D01*
X53716966Y-25814619D01*
X53716968Y-25814615D01*
X53716971Y-25814613D01*
X53781105Y-25726338D01*
X53837287Y-25649010D01*
X53930220Y-25466619D01*
X53993477Y-25271934D01*
X54025500Y-25069752D01*
X54025500Y-24865048D01*
X54025499Y-24865044D01*
X54025165Y-24860804D01*
X54039519Y-24792424D01*
X54061097Y-24763379D01*
X59530846Y-19293630D01*
X59592168Y-19260147D01*
X59661860Y-19265131D01*
G37*
%TD.AperFunction*%
%TD*%
M02*
