%TF.GenerationSoftware,KiCad,Pcbnew,10.0.2-10.0.2~ubuntu24.04.1*%
%TF.CreationDate,2026-05-19T00:47:11+02:00*%
%TF.ProjectId,SmartStepperServo,536d6172-7453-4746-9570-706572536572,rev?*%
%TF.SameCoordinates,Original*%
%TF.FileFunction,Legend,Top*%
%TF.FilePolarity,Positive*%
%FSLAX46Y46*%
G04 Gerber Fmt 4.6, Leading zero omitted, Abs format (unit mm)*
G04 Created by KiCad (PCBNEW 10.0.2-10.0.2~ubuntu24.04.1) date 2026-05-19 00:47:11*
%MOMM*%
%LPD*%
G01*
G04 APERTURE LIST*
%ADD10C,0.150000*%
%ADD11C,0.300000*%
%ADD12C,0.000000*%
%ADD13C,0.450000*%
%ADD14C,0.100000*%
%ADD15C,0.120000*%
%ADD16C,0.200000*%
%ADD17C,0.127000*%
G04 APERTURE END LIST*
D10*
X14259657Y-23479398D02*
X15459657Y-23479398D01*
X15002514Y-23479398D02*
X15059657Y-23593684D01*
X15059657Y-23593684D02*
X15059657Y-23822255D01*
X15059657Y-23822255D02*
X15002514Y-23936541D01*
X15002514Y-23936541D02*
X14945371Y-23993684D01*
X14945371Y-23993684D02*
X14831085Y-24050826D01*
X14831085Y-24050826D02*
X14488228Y-24050826D01*
X14488228Y-24050826D02*
X14373942Y-23993684D01*
X14373942Y-23993684D02*
X14316800Y-23936541D01*
X14316800Y-23936541D02*
X14259657Y-23822255D01*
X14259657Y-23822255D02*
X14259657Y-23593684D01*
X14259657Y-23593684D02*
X14316800Y-23479398D01*
X15059657Y-24450826D02*
X14259657Y-24736540D01*
X15059657Y-25022255D02*
X14259657Y-24736540D01*
X14259657Y-24736540D02*
X13973942Y-24622255D01*
X13973942Y-24622255D02*
X13916800Y-24565112D01*
X13916800Y-24565112D02*
X13859657Y-24450826D01*
X14888228Y-26393684D02*
X14888228Y-26793684D01*
X14259657Y-26965112D02*
X14259657Y-26393684D01*
X14259657Y-26393684D02*
X15459657Y-26393684D01*
X15459657Y-26393684D02*
X15459657Y-26965112D01*
X14259657Y-27479398D02*
X15059657Y-27479398D01*
X14945371Y-27479398D02*
X15002514Y-27536541D01*
X15002514Y-27536541D02*
X15059657Y-27650826D01*
X15059657Y-27650826D02*
X15059657Y-27822255D01*
X15059657Y-27822255D02*
X15002514Y-27936541D01*
X15002514Y-27936541D02*
X14888228Y-27993684D01*
X14888228Y-27993684D02*
X14259657Y-27993684D01*
X14888228Y-27993684D02*
X15002514Y-28050826D01*
X15002514Y-28050826D02*
X15059657Y-28165112D01*
X15059657Y-28165112D02*
X15059657Y-28336541D01*
X15059657Y-28336541D02*
X15002514Y-28450826D01*
X15002514Y-28450826D02*
X14888228Y-28507969D01*
X14888228Y-28507969D02*
X14259657Y-28507969D01*
X14259657Y-29079398D02*
X15059657Y-29079398D01*
X15459657Y-29079398D02*
X15402514Y-29022255D01*
X15402514Y-29022255D02*
X15345371Y-29079398D01*
X15345371Y-29079398D02*
X15402514Y-29136541D01*
X15402514Y-29136541D02*
X15459657Y-29079398D01*
X15459657Y-29079398D02*
X15345371Y-29079398D01*
X14259657Y-29822255D02*
X14316800Y-29707970D01*
X14316800Y-29707970D02*
X14431085Y-29650827D01*
X14431085Y-29650827D02*
X15459657Y-29650827D01*
X14316800Y-30336541D02*
X14259657Y-30336541D01*
X14259657Y-30336541D02*
X14145371Y-30279398D01*
X14145371Y-30279398D02*
X14088228Y-30222255D01*
X14602514Y-31707970D02*
X14602514Y-32279399D01*
X14259657Y-31593684D02*
X15459657Y-31993684D01*
X15459657Y-31993684D02*
X14259657Y-32393684D01*
X15059657Y-32793684D02*
X14259657Y-32793684D01*
X14945371Y-32793684D02*
X15002514Y-32850827D01*
X15002514Y-32850827D02*
X15059657Y-32965112D01*
X15059657Y-32965112D02*
X15059657Y-33136541D01*
X15059657Y-33136541D02*
X15002514Y-33250827D01*
X15002514Y-33250827D02*
X14888228Y-33307970D01*
X14888228Y-33307970D02*
X14259657Y-33307970D01*
X15059657Y-33707969D02*
X15059657Y-34165112D01*
X15459657Y-33879398D02*
X14431085Y-33879398D01*
X14431085Y-33879398D02*
X14316800Y-33936541D01*
X14316800Y-33936541D02*
X14259657Y-34050826D01*
X14259657Y-34050826D02*
X14259657Y-34165112D01*
X14259657Y-34736540D02*
X14316800Y-34622255D01*
X14316800Y-34622255D02*
X14373942Y-34565112D01*
X14373942Y-34565112D02*
X14488228Y-34507969D01*
X14488228Y-34507969D02*
X14831085Y-34507969D01*
X14831085Y-34507969D02*
X14945371Y-34565112D01*
X14945371Y-34565112D02*
X15002514Y-34622255D01*
X15002514Y-34622255D02*
X15059657Y-34736540D01*
X15059657Y-34736540D02*
X15059657Y-34907969D01*
X15059657Y-34907969D02*
X15002514Y-35022255D01*
X15002514Y-35022255D02*
X14945371Y-35079398D01*
X14945371Y-35079398D02*
X14831085Y-35136540D01*
X14831085Y-35136540D02*
X14488228Y-35136540D01*
X14488228Y-35136540D02*
X14373942Y-35079398D01*
X14373942Y-35079398D02*
X14316800Y-35022255D01*
X14316800Y-35022255D02*
X14259657Y-34907969D01*
X14259657Y-34907969D02*
X14259657Y-34736540D01*
X15059657Y-35650826D02*
X14259657Y-35650826D01*
X14945371Y-35650826D02*
X15002514Y-35707969D01*
X15002514Y-35707969D02*
X15059657Y-35822254D01*
X15059657Y-35822254D02*
X15059657Y-35993683D01*
X15059657Y-35993683D02*
X15002514Y-36107969D01*
X15002514Y-36107969D02*
X14888228Y-36165112D01*
X14888228Y-36165112D02*
X14259657Y-36165112D01*
X15059657Y-38165112D02*
X14259657Y-38165112D01*
X15059657Y-37650826D02*
X14431085Y-37650826D01*
X14431085Y-37650826D02*
X14316800Y-37707969D01*
X14316800Y-37707969D02*
X14259657Y-37822254D01*
X14259657Y-37822254D02*
X14259657Y-37993683D01*
X14259657Y-37993683D02*
X14316800Y-38107969D01*
X14316800Y-38107969D02*
X14373942Y-38165112D01*
X15059657Y-38736540D02*
X14259657Y-38736540D01*
X14945371Y-38736540D02*
X15002514Y-38793683D01*
X15002514Y-38793683D02*
X15059657Y-38907968D01*
X15059657Y-38907968D02*
X15059657Y-39079397D01*
X15059657Y-39079397D02*
X15002514Y-39193683D01*
X15002514Y-39193683D02*
X14888228Y-39250826D01*
X14888228Y-39250826D02*
X14259657Y-39250826D01*
X14259657Y-40336540D02*
X15459657Y-40336540D01*
X14316800Y-40336540D02*
X14259657Y-40222254D01*
X14259657Y-40222254D02*
X14259657Y-39993682D01*
X14259657Y-39993682D02*
X14316800Y-39879397D01*
X14316800Y-39879397D02*
X14373942Y-39822254D01*
X14373942Y-39822254D02*
X14488228Y-39765111D01*
X14488228Y-39765111D02*
X14831085Y-39765111D01*
X14831085Y-39765111D02*
X14945371Y-39822254D01*
X14945371Y-39822254D02*
X15002514Y-39879397D01*
X15002514Y-39879397D02*
X15059657Y-39993682D01*
X15059657Y-39993682D02*
X15059657Y-40222254D01*
X15059657Y-40222254D02*
X15002514Y-40336540D01*
X14602514Y-41765111D02*
X14602514Y-42336540D01*
X14259657Y-41650825D02*
X15459657Y-42050825D01*
X15459657Y-42050825D02*
X14259657Y-42450825D01*
X15059657Y-42850825D02*
X14259657Y-42850825D01*
X14945371Y-42850825D02*
X15002514Y-42907968D01*
X15002514Y-42907968D02*
X15059657Y-43022253D01*
X15059657Y-43022253D02*
X15059657Y-43193682D01*
X15059657Y-43193682D02*
X15002514Y-43307968D01*
X15002514Y-43307968D02*
X14888228Y-43365111D01*
X14888228Y-43365111D02*
X14259657Y-43365111D01*
X14259657Y-44450825D02*
X15459657Y-44450825D01*
X14316800Y-44450825D02*
X14259657Y-44336539D01*
X14259657Y-44336539D02*
X14259657Y-44107967D01*
X14259657Y-44107967D02*
X14316800Y-43993682D01*
X14316800Y-43993682D02*
X14373942Y-43936539D01*
X14373942Y-43936539D02*
X14488228Y-43879396D01*
X14488228Y-43879396D02*
X14831085Y-43879396D01*
X14831085Y-43879396D02*
X14945371Y-43936539D01*
X14945371Y-43936539D02*
X15002514Y-43993682D01*
X15002514Y-43993682D02*
X15059657Y-44107967D01*
X15059657Y-44107967D02*
X15059657Y-44336539D01*
X15059657Y-44336539D02*
X15002514Y-44450825D01*
X14259657Y-45022253D02*
X15059657Y-45022253D01*
X14831085Y-45022253D02*
X14945371Y-45079396D01*
X14945371Y-45079396D02*
X15002514Y-45136539D01*
X15002514Y-45136539D02*
X15059657Y-45250824D01*
X15059657Y-45250824D02*
X15059657Y-45365110D01*
X14316800Y-46222253D02*
X14259657Y-46107967D01*
X14259657Y-46107967D02*
X14259657Y-45879396D01*
X14259657Y-45879396D02*
X14316800Y-45765110D01*
X14316800Y-45765110D02*
X14431085Y-45707967D01*
X14431085Y-45707967D02*
X14888228Y-45707967D01*
X14888228Y-45707967D02*
X15002514Y-45765110D01*
X15002514Y-45765110D02*
X15059657Y-45879396D01*
X15059657Y-45879396D02*
X15059657Y-46107967D01*
X15059657Y-46107967D02*
X15002514Y-46222253D01*
X15002514Y-46222253D02*
X14888228Y-46279396D01*
X14888228Y-46279396D02*
X14773942Y-46279396D01*
X14773942Y-46279396D02*
X14659657Y-45707967D01*
X14259657Y-47307967D02*
X14888228Y-47307967D01*
X14888228Y-47307967D02*
X15002514Y-47250824D01*
X15002514Y-47250824D02*
X15059657Y-47136538D01*
X15059657Y-47136538D02*
X15059657Y-46907967D01*
X15059657Y-46907967D02*
X15002514Y-46793681D01*
X14316800Y-47307967D02*
X14259657Y-47193681D01*
X14259657Y-47193681D02*
X14259657Y-46907967D01*
X14259657Y-46907967D02*
X14316800Y-46793681D01*
X14316800Y-46793681D02*
X14431085Y-46736538D01*
X14431085Y-46736538D02*
X14545371Y-46736538D01*
X14545371Y-46736538D02*
X14659657Y-46793681D01*
X14659657Y-46793681D02*
X14716800Y-46907967D01*
X14716800Y-46907967D02*
X14716800Y-47193681D01*
X14716800Y-47193681D02*
X14773942Y-47307967D01*
X14316800Y-47822252D02*
X14259657Y-47936538D01*
X14259657Y-47936538D02*
X14259657Y-48165109D01*
X14259657Y-48165109D02*
X14316800Y-48279395D01*
X14316800Y-48279395D02*
X14431085Y-48336538D01*
X14431085Y-48336538D02*
X14488228Y-48336538D01*
X14488228Y-48336538D02*
X14602514Y-48279395D01*
X14602514Y-48279395D02*
X14659657Y-48165109D01*
X14659657Y-48165109D02*
X14659657Y-47993681D01*
X14659657Y-47993681D02*
X14716800Y-47879395D01*
X14716800Y-47879395D02*
X14831085Y-47822252D01*
X14831085Y-47822252D02*
X14888228Y-47822252D01*
X14888228Y-47822252D02*
X15002514Y-47879395D01*
X15002514Y-47879395D02*
X15059657Y-47993681D01*
X15059657Y-47993681D02*
X15059657Y-48165109D01*
X15059657Y-48165109D02*
X15002514Y-48279395D01*
X14259657Y-49765110D02*
X15459657Y-49765110D01*
X15459657Y-49765110D02*
X15459657Y-50222253D01*
X15459657Y-50222253D02*
X15402514Y-50336538D01*
X15402514Y-50336538D02*
X15345371Y-50393681D01*
X15345371Y-50393681D02*
X15231085Y-50450824D01*
X15231085Y-50450824D02*
X15059657Y-50450824D01*
X15059657Y-50450824D02*
X14945371Y-50393681D01*
X14945371Y-50393681D02*
X14888228Y-50336538D01*
X14888228Y-50336538D02*
X14831085Y-50222253D01*
X14831085Y-50222253D02*
X14831085Y-49765110D01*
X15059657Y-50793681D02*
X15059657Y-51250824D01*
X14259657Y-50965110D02*
X15288228Y-50965110D01*
X15288228Y-50965110D02*
X15402514Y-51022253D01*
X15402514Y-51022253D02*
X15459657Y-51136538D01*
X15459657Y-51136538D02*
X15459657Y-51250824D01*
X14316800Y-52107967D02*
X14259657Y-51993681D01*
X14259657Y-51993681D02*
X14259657Y-51765110D01*
X14259657Y-51765110D02*
X14316800Y-51650824D01*
X14316800Y-51650824D02*
X14431085Y-51593681D01*
X14431085Y-51593681D02*
X14888228Y-51593681D01*
X14888228Y-51593681D02*
X15002514Y-51650824D01*
X15002514Y-51650824D02*
X15059657Y-51765110D01*
X15059657Y-51765110D02*
X15059657Y-51993681D01*
X15059657Y-51993681D02*
X15002514Y-52107967D01*
X15002514Y-52107967D02*
X14888228Y-52165110D01*
X14888228Y-52165110D02*
X14773942Y-52165110D01*
X14773942Y-52165110D02*
X14659657Y-51593681D01*
X14259657Y-52679395D02*
X15059657Y-52679395D01*
X15459657Y-52679395D02*
X15402514Y-52622252D01*
X15402514Y-52622252D02*
X15345371Y-52679395D01*
X15345371Y-52679395D02*
X15402514Y-52736538D01*
X15402514Y-52736538D02*
X15459657Y-52679395D01*
X15459657Y-52679395D02*
X15345371Y-52679395D01*
X15059657Y-53079395D02*
X15059657Y-53536538D01*
X14259657Y-53250824D02*
X15288228Y-53250824D01*
X15288228Y-53250824D02*
X15402514Y-53307967D01*
X15402514Y-53307967D02*
X15459657Y-53422252D01*
X15459657Y-53422252D02*
X15459657Y-53536538D01*
X15059657Y-53765109D02*
X15059657Y-54222252D01*
X14259657Y-53936538D02*
X15288228Y-53936538D01*
X15288228Y-53936538D02*
X15402514Y-53993681D01*
X15402514Y-53993681D02*
X15459657Y-54107966D01*
X15459657Y-54107966D02*
X15459657Y-54222252D01*
X14316800Y-55079395D02*
X14259657Y-54965109D01*
X14259657Y-54965109D02*
X14259657Y-54736538D01*
X14259657Y-54736538D02*
X14316800Y-54622252D01*
X14316800Y-54622252D02*
X14431085Y-54565109D01*
X14431085Y-54565109D02*
X14888228Y-54565109D01*
X14888228Y-54565109D02*
X15002514Y-54622252D01*
X15002514Y-54622252D02*
X15059657Y-54736538D01*
X15059657Y-54736538D02*
X15059657Y-54965109D01*
X15059657Y-54965109D02*
X15002514Y-55079395D01*
X15002514Y-55079395D02*
X14888228Y-55136538D01*
X14888228Y-55136538D02*
X14773942Y-55136538D01*
X14773942Y-55136538D02*
X14659657Y-54565109D01*
X14259657Y-55650823D02*
X15059657Y-55650823D01*
X14831085Y-55650823D02*
X14945371Y-55707966D01*
X14945371Y-55707966D02*
X15002514Y-55765109D01*
X15002514Y-55765109D02*
X15059657Y-55879394D01*
X15059657Y-55879394D02*
X15059657Y-55993680D01*
D11*
X53949987Y-17139400D02*
X54135701Y-17234638D01*
X54135701Y-17234638D02*
X54445225Y-17234638D01*
X54445225Y-17234638D02*
X54569034Y-17139400D01*
X54569034Y-17139400D02*
X54630939Y-17044161D01*
X54630939Y-17044161D02*
X54692844Y-16853685D01*
X54692844Y-16853685D02*
X54692844Y-16663209D01*
X54692844Y-16663209D02*
X54630939Y-16472733D01*
X54630939Y-16472733D02*
X54569034Y-16377495D01*
X54569034Y-16377495D02*
X54445225Y-16282257D01*
X54445225Y-16282257D02*
X54197606Y-16187019D01*
X54197606Y-16187019D02*
X54073796Y-16091780D01*
X54073796Y-16091780D02*
X54011891Y-15996542D01*
X54011891Y-15996542D02*
X53949987Y-15806066D01*
X53949987Y-15806066D02*
X53949987Y-15615590D01*
X53949987Y-15615590D02*
X54011891Y-15425114D01*
X54011891Y-15425114D02*
X54073796Y-15329876D01*
X54073796Y-15329876D02*
X54197606Y-15234638D01*
X54197606Y-15234638D02*
X54507129Y-15234638D01*
X54507129Y-15234638D02*
X54692844Y-15329876D01*
X55249986Y-17234638D02*
X55249986Y-15901304D01*
X55249986Y-16091780D02*
X55311891Y-15996542D01*
X55311891Y-15996542D02*
X55435701Y-15901304D01*
X55435701Y-15901304D02*
X55621415Y-15901304D01*
X55621415Y-15901304D02*
X55745224Y-15996542D01*
X55745224Y-15996542D02*
X55807129Y-16187019D01*
X55807129Y-16187019D02*
X55807129Y-17234638D01*
X55807129Y-16187019D02*
X55869034Y-15996542D01*
X55869034Y-15996542D02*
X55992843Y-15901304D01*
X55992843Y-15901304D02*
X56178558Y-15901304D01*
X56178558Y-15901304D02*
X56302367Y-15996542D01*
X56302367Y-15996542D02*
X56364272Y-16187019D01*
X56364272Y-16187019D02*
X56364272Y-17234638D01*
X57540462Y-17234638D02*
X57540462Y-16187019D01*
X57540462Y-16187019D02*
X57478557Y-15996542D01*
X57478557Y-15996542D02*
X57354748Y-15901304D01*
X57354748Y-15901304D02*
X57107129Y-15901304D01*
X57107129Y-15901304D02*
X56983319Y-15996542D01*
X57540462Y-17139400D02*
X57416653Y-17234638D01*
X57416653Y-17234638D02*
X57107129Y-17234638D01*
X57107129Y-17234638D02*
X56983319Y-17139400D01*
X56983319Y-17139400D02*
X56921415Y-16948923D01*
X56921415Y-16948923D02*
X56921415Y-16758447D01*
X56921415Y-16758447D02*
X56983319Y-16567971D01*
X56983319Y-16567971D02*
X57107129Y-16472733D01*
X57107129Y-16472733D02*
X57416653Y-16472733D01*
X57416653Y-16472733D02*
X57540462Y-16377495D01*
X58159509Y-17234638D02*
X58159509Y-15901304D01*
X58159509Y-16282257D02*
X58221414Y-16091780D01*
X58221414Y-16091780D02*
X58283319Y-15996542D01*
X58283319Y-15996542D02*
X58407128Y-15901304D01*
X58407128Y-15901304D02*
X58530938Y-15901304D01*
X58778557Y-15901304D02*
X59273795Y-15901304D01*
X58964271Y-15234638D02*
X58964271Y-16948923D01*
X58964271Y-16948923D02*
X59026176Y-17139400D01*
X59026176Y-17139400D02*
X59149986Y-17234638D01*
X59149986Y-17234638D02*
X59273795Y-17234638D01*
X60635700Y-17139400D02*
X60821414Y-17234638D01*
X60821414Y-17234638D02*
X61130938Y-17234638D01*
X61130938Y-17234638D02*
X61254747Y-17139400D01*
X61254747Y-17139400D02*
X61316652Y-17044161D01*
X61316652Y-17044161D02*
X61378557Y-16853685D01*
X61378557Y-16853685D02*
X61378557Y-16663209D01*
X61378557Y-16663209D02*
X61316652Y-16472733D01*
X61316652Y-16472733D02*
X61254747Y-16377495D01*
X61254747Y-16377495D02*
X61130938Y-16282257D01*
X61130938Y-16282257D02*
X60883319Y-16187019D01*
X60883319Y-16187019D02*
X60759509Y-16091780D01*
X60759509Y-16091780D02*
X60697604Y-15996542D01*
X60697604Y-15996542D02*
X60635700Y-15806066D01*
X60635700Y-15806066D02*
X60635700Y-15615590D01*
X60635700Y-15615590D02*
X60697604Y-15425114D01*
X60697604Y-15425114D02*
X60759509Y-15329876D01*
X60759509Y-15329876D02*
X60883319Y-15234638D01*
X60883319Y-15234638D02*
X61192842Y-15234638D01*
X61192842Y-15234638D02*
X61378557Y-15329876D01*
X61749985Y-15901304D02*
X62245223Y-15901304D01*
X61935699Y-15234638D02*
X61935699Y-16948923D01*
X61935699Y-16948923D02*
X61997604Y-17139400D01*
X61997604Y-17139400D02*
X62121414Y-17234638D01*
X62121414Y-17234638D02*
X62245223Y-17234638D01*
X63173794Y-17139400D02*
X63049985Y-17234638D01*
X63049985Y-17234638D02*
X62802366Y-17234638D01*
X62802366Y-17234638D02*
X62678556Y-17139400D01*
X62678556Y-17139400D02*
X62616652Y-16948923D01*
X62616652Y-16948923D02*
X62616652Y-16187019D01*
X62616652Y-16187019D02*
X62678556Y-15996542D01*
X62678556Y-15996542D02*
X62802366Y-15901304D01*
X62802366Y-15901304D02*
X63049985Y-15901304D01*
X63049985Y-15901304D02*
X63173794Y-15996542D01*
X63173794Y-15996542D02*
X63235699Y-16187019D01*
X63235699Y-16187019D02*
X63235699Y-16377495D01*
X63235699Y-16377495D02*
X62616652Y-16567971D01*
X63792842Y-15901304D02*
X63792842Y-17901304D01*
X63792842Y-15996542D02*
X63916652Y-15901304D01*
X63916652Y-15901304D02*
X64164271Y-15901304D01*
X64164271Y-15901304D02*
X64288080Y-15996542D01*
X64288080Y-15996542D02*
X64349985Y-16091780D01*
X64349985Y-16091780D02*
X64411890Y-16282257D01*
X64411890Y-16282257D02*
X64411890Y-16853685D01*
X64411890Y-16853685D02*
X64349985Y-17044161D01*
X64349985Y-17044161D02*
X64288080Y-17139400D01*
X64288080Y-17139400D02*
X64164271Y-17234638D01*
X64164271Y-17234638D02*
X63916652Y-17234638D01*
X63916652Y-17234638D02*
X63792842Y-17139400D01*
X64969032Y-15901304D02*
X64969032Y-17901304D01*
X64969032Y-15996542D02*
X65092842Y-15901304D01*
X65092842Y-15901304D02*
X65340461Y-15901304D01*
X65340461Y-15901304D02*
X65464270Y-15996542D01*
X65464270Y-15996542D02*
X65526175Y-16091780D01*
X65526175Y-16091780D02*
X65588080Y-16282257D01*
X65588080Y-16282257D02*
X65588080Y-16853685D01*
X65588080Y-16853685D02*
X65526175Y-17044161D01*
X65526175Y-17044161D02*
X65464270Y-17139400D01*
X65464270Y-17139400D02*
X65340461Y-17234638D01*
X65340461Y-17234638D02*
X65092842Y-17234638D01*
X65092842Y-17234638D02*
X64969032Y-17139400D01*
X66640460Y-17139400D02*
X66516651Y-17234638D01*
X66516651Y-17234638D02*
X66269032Y-17234638D01*
X66269032Y-17234638D02*
X66145222Y-17139400D01*
X66145222Y-17139400D02*
X66083318Y-16948923D01*
X66083318Y-16948923D02*
X66083318Y-16187019D01*
X66083318Y-16187019D02*
X66145222Y-15996542D01*
X66145222Y-15996542D02*
X66269032Y-15901304D01*
X66269032Y-15901304D02*
X66516651Y-15901304D01*
X66516651Y-15901304D02*
X66640460Y-15996542D01*
X66640460Y-15996542D02*
X66702365Y-16187019D01*
X66702365Y-16187019D02*
X66702365Y-16377495D01*
X66702365Y-16377495D02*
X66083318Y-16567971D01*
X67259508Y-17234638D02*
X67259508Y-15901304D01*
X67259508Y-16282257D02*
X67321413Y-16091780D01*
X67321413Y-16091780D02*
X67383318Y-15996542D01*
X67383318Y-15996542D02*
X67507127Y-15901304D01*
X67507127Y-15901304D02*
X67630937Y-15901304D01*
X68992842Y-17139400D02*
X69178556Y-17234638D01*
X69178556Y-17234638D02*
X69488080Y-17234638D01*
X69488080Y-17234638D02*
X69611889Y-17139400D01*
X69611889Y-17139400D02*
X69673794Y-17044161D01*
X69673794Y-17044161D02*
X69735699Y-16853685D01*
X69735699Y-16853685D02*
X69735699Y-16663209D01*
X69735699Y-16663209D02*
X69673794Y-16472733D01*
X69673794Y-16472733D02*
X69611889Y-16377495D01*
X69611889Y-16377495D02*
X69488080Y-16282257D01*
X69488080Y-16282257D02*
X69240461Y-16187019D01*
X69240461Y-16187019D02*
X69116651Y-16091780D01*
X69116651Y-16091780D02*
X69054746Y-15996542D01*
X69054746Y-15996542D02*
X68992842Y-15806066D01*
X68992842Y-15806066D02*
X68992842Y-15615590D01*
X68992842Y-15615590D02*
X69054746Y-15425114D01*
X69054746Y-15425114D02*
X69116651Y-15329876D01*
X69116651Y-15329876D02*
X69240461Y-15234638D01*
X69240461Y-15234638D02*
X69549984Y-15234638D01*
X69549984Y-15234638D02*
X69735699Y-15329876D01*
X70788079Y-17139400D02*
X70664270Y-17234638D01*
X70664270Y-17234638D02*
X70416651Y-17234638D01*
X70416651Y-17234638D02*
X70292841Y-17139400D01*
X70292841Y-17139400D02*
X70230937Y-16948923D01*
X70230937Y-16948923D02*
X70230937Y-16187019D01*
X70230937Y-16187019D02*
X70292841Y-15996542D01*
X70292841Y-15996542D02*
X70416651Y-15901304D01*
X70416651Y-15901304D02*
X70664270Y-15901304D01*
X70664270Y-15901304D02*
X70788079Y-15996542D01*
X70788079Y-15996542D02*
X70849984Y-16187019D01*
X70849984Y-16187019D02*
X70849984Y-16377495D01*
X70849984Y-16377495D02*
X70230937Y-16567971D01*
X71407127Y-17234638D02*
X71407127Y-15901304D01*
X71407127Y-16282257D02*
X71469032Y-16091780D01*
X71469032Y-16091780D02*
X71530937Y-15996542D01*
X71530937Y-15996542D02*
X71654746Y-15901304D01*
X71654746Y-15901304D02*
X71778556Y-15901304D01*
X72088080Y-15901304D02*
X72397604Y-17234638D01*
X72397604Y-17234638D02*
X72707127Y-15901304D01*
X73388080Y-17234638D02*
X73264270Y-17139400D01*
X73264270Y-17139400D02*
X73202365Y-17044161D01*
X73202365Y-17044161D02*
X73140461Y-16853685D01*
X73140461Y-16853685D02*
X73140461Y-16282257D01*
X73140461Y-16282257D02*
X73202365Y-16091780D01*
X73202365Y-16091780D02*
X73264270Y-15996542D01*
X73264270Y-15996542D02*
X73388080Y-15901304D01*
X73388080Y-15901304D02*
X73573794Y-15901304D01*
X73573794Y-15901304D02*
X73697603Y-15996542D01*
X73697603Y-15996542D02*
X73759508Y-16091780D01*
X73759508Y-16091780D02*
X73821413Y-16282257D01*
X73821413Y-16282257D02*
X73821413Y-16853685D01*
X73821413Y-16853685D02*
X73759508Y-17044161D01*
X73759508Y-17044161D02*
X73697603Y-17139400D01*
X73697603Y-17139400D02*
X73573794Y-17234638D01*
X73573794Y-17234638D02*
X73388080Y-17234638D01*
D12*
G36*
X52115878Y-17880986D02*
G01*
X52393360Y-17950359D01*
X52670841Y-18019724D01*
X52878965Y-18158459D01*
X53017688Y-18158459D01*
X53225816Y-18297195D01*
X53364539Y-18297195D01*
X53503288Y-18435948D01*
X53850140Y-18574680D01*
X54058247Y-18713432D01*
X54266361Y-18852168D01*
X54613204Y-19129648D01*
X55168167Y-19684623D01*
X55445642Y-20031461D01*
X55653748Y-20308962D01*
X55792508Y-20517071D01*
X56278093Y-21488255D01*
X56347476Y-21696341D01*
X56416851Y-21904453D01*
X56486206Y-22181947D01*
X56555571Y-22459424D01*
X56624947Y-22945029D01*
X56624947Y-24193687D01*
X56555571Y-24679284D01*
X56486206Y-24956773D01*
X56416851Y-25234252D01*
X56347476Y-25442366D01*
X56278093Y-25650478D01*
X55792508Y-26621643D01*
X55653748Y-26829773D01*
X55515017Y-27037872D01*
X55237535Y-27384724D01*
X54682588Y-27939716D01*
X54335712Y-28217185D01*
X54127603Y-28355910D01*
X53850140Y-28494669D01*
X53711384Y-28633394D01*
X53503288Y-28702769D01*
X53364539Y-28841516D01*
X53364539Y-30159555D01*
X53572660Y-30367660D01*
X53919488Y-30575784D01*
X54127603Y-30783889D01*
X54335712Y-31061362D01*
X54613204Y-31616324D01*
X54682588Y-31824447D01*
X54682588Y-31963182D01*
X54821322Y-32101925D01*
X55029442Y-32171299D01*
X55306914Y-32240653D01*
X55445642Y-32240653D01*
X55653748Y-32310032D01*
X56069993Y-32518151D01*
X56278093Y-32656879D01*
X56486206Y-32795616D01*
X56971797Y-33281216D01*
X57110547Y-33489328D01*
X57249279Y-33697440D01*
X57526766Y-34252396D01*
X57526766Y-34391144D01*
X57665500Y-34599259D01*
X57665500Y-34807370D01*
X57804242Y-34946094D01*
X58081730Y-35015475D01*
X58359197Y-35084849D01*
X58706060Y-35154207D01*
X58983541Y-35154207D01*
X59261023Y-35223583D01*
X59469128Y-35292945D01*
X59746622Y-35362333D01*
X60024104Y-35431692D01*
X60301587Y-35501068D01*
X60509691Y-35570435D01*
X60717800Y-35639810D01*
X60925911Y-35709193D01*
X61134020Y-35778551D01*
X61342138Y-35847918D01*
X61550254Y-35917281D01*
X61758354Y-35986663D01*
X61966474Y-36056042D01*
X62174582Y-36125404D01*
X62382697Y-36264148D01*
X62521432Y-36264148D01*
X62729554Y-36402892D01*
X62868291Y-36402892D01*
X63076395Y-36541629D01*
X63215138Y-36541629D01*
X63561988Y-36749735D01*
X63700718Y-36749735D01*
X65365614Y-37582180D01*
X65504367Y-37720928D01*
X65851218Y-37859670D01*
X65989957Y-37998404D01*
X66198071Y-38067779D01*
X66336805Y-38206527D01*
X66544913Y-38275888D01*
X66753035Y-38414623D01*
X66961136Y-38553368D01*
X67169256Y-38692095D01*
X67377378Y-38830856D01*
X67585454Y-38969599D01*
X67862955Y-39177694D01*
X68140446Y-39385817D01*
X68417927Y-39593925D01*
X68764779Y-39871422D01*
X69319747Y-40357001D01*
X70984636Y-42021882D01*
X71331483Y-42438112D01*
X71608943Y-42784969D01*
X71817064Y-43062439D01*
X71955802Y-43270548D01*
X72163925Y-43548053D01*
X72302665Y-43756156D01*
X72441404Y-43964262D01*
X72580141Y-44172372D01*
X72649517Y-44380480D01*
X72788235Y-44519221D01*
X72927004Y-44866074D01*
X73065746Y-45004817D01*
X73273846Y-45490402D01*
X73412587Y-45629158D01*
X74522517Y-45559783D01*
X75008099Y-45629158D01*
X75354957Y-45698514D01*
X75632440Y-45767886D01*
X75909932Y-45837255D01*
X76118042Y-45906617D01*
X76326162Y-45976001D01*
X76881117Y-46253492D01*
X77158599Y-46461608D01*
X77574811Y-46877821D01*
X77782916Y-47155309D01*
X77921662Y-47363413D01*
X77991052Y-47571525D01*
X78129779Y-47710260D01*
X78199159Y-47848990D01*
X78199159Y-47987746D01*
X78407273Y-48334605D01*
X78476644Y-48542704D01*
X78546002Y-48750822D01*
X78615366Y-48958938D01*
X78684741Y-49167036D01*
X78754116Y-49444524D01*
X78823477Y-49722008D01*
X78892836Y-50138219D01*
X78962222Y-50485074D01*
X79031601Y-50970671D01*
X79100978Y-51664383D01*
X79170337Y-52704935D01*
X79170337Y-55341006D01*
X79100978Y-56520315D01*
X79031601Y-57283369D01*
X78962222Y-57838346D01*
X78892836Y-58254568D01*
X78823477Y-58670781D01*
X78754116Y-59017655D01*
X78684741Y-59364486D01*
X78615366Y-59572611D01*
X78546002Y-59850079D01*
X78476644Y-60058197D01*
X78407273Y-60266306D01*
X78268519Y-60474412D01*
X78268519Y-60613151D01*
X78129779Y-60821276D01*
X78129779Y-60960001D01*
X77991052Y-61237485D01*
X77852305Y-61376238D01*
X77782916Y-61584356D01*
X77644186Y-61792455D01*
X77505446Y-62000568D01*
X77158599Y-62416798D01*
X76811738Y-62763633D01*
X76464887Y-63041125D01*
X76256772Y-63179856D01*
X75563056Y-63526712D01*
X75354957Y-63596092D01*
X75146845Y-63665460D01*
X74938722Y-63734817D01*
X74661251Y-63804192D01*
X74245028Y-63873561D01*
X72788235Y-63804192D01*
X72510773Y-63804192D01*
X72025189Y-64081690D01*
X71817064Y-64151050D01*
X71747696Y-64289770D01*
X71678321Y-64567268D01*
X71678321Y-64775382D01*
X71608943Y-64983494D01*
X71539591Y-65191610D01*
X71400845Y-65399716D01*
X71400845Y-65538443D01*
X71123363Y-66093424D01*
X70984636Y-66301530D01*
X70845886Y-66509641D01*
X70221549Y-67133976D01*
X69874692Y-67411465D01*
X69666590Y-67550217D01*
X69458474Y-67688937D01*
X69250354Y-67758329D01*
X69111629Y-67897048D01*
X68903525Y-67966415D01*
X68764779Y-68105162D01*
X67932334Y-68521391D01*
X67793587Y-68521391D01*
X67307986Y-68798874D01*
X67169256Y-68798874D01*
X66961136Y-68937594D01*
X66822400Y-68937594D01*
X66614297Y-69076346D01*
X66475564Y-69076346D01*
X66267445Y-69215078D01*
X66059329Y-69284457D01*
X65851218Y-69353833D01*
X65643111Y-69423210D01*
X65434988Y-69492556D01*
X65296254Y-69492556D01*
X65088152Y-69631322D01*
X64880038Y-69700677D01*
X64602536Y-69770043D01*
X64394438Y-69839434D01*
X64186317Y-69908793D01*
X63908846Y-69978175D01*
X63700718Y-70047540D01*
X63423245Y-70116902D01*
X63145774Y-70186272D01*
X62937663Y-70255657D01*
X62660174Y-70325022D01*
X62313316Y-70394387D01*
X62035842Y-70463765D01*
X61758354Y-70533134D01*
X61411493Y-70602502D01*
X61064654Y-70671872D01*
X60717800Y-70741236D01*
X60440321Y-70810615D01*
X60024104Y-70879990D01*
X59677252Y-70949345D01*
X59261023Y-71018720D01*
X58844788Y-71088093D01*
X58428580Y-71157475D01*
X57942990Y-71226843D01*
X57388029Y-71296210D01*
X56763684Y-71365581D01*
X56208717Y-71434950D01*
X55445642Y-71504310D01*
X54405105Y-71573684D01*
X52809587Y-71643051D01*
X49063562Y-71643051D01*
X47606804Y-71573684D01*
X46566228Y-71504310D01*
X45803161Y-71434950D01*
X45248194Y-71365581D01*
X44623868Y-71296210D01*
X44068904Y-71226843D01*
X43513940Y-71157475D01*
X43097722Y-71088093D01*
X42681502Y-71018720D01*
X42195904Y-70949345D01*
X41849051Y-70879990D01*
X41432833Y-70810615D01*
X41155347Y-70741236D01*
X40808498Y-70671872D01*
X40392268Y-70602502D01*
X40114798Y-70533134D01*
X39837316Y-70463765D01*
X39559828Y-70394387D01*
X39212973Y-70325022D01*
X38935497Y-70255657D01*
X38658005Y-70186272D01*
X38380532Y-70116902D01*
X38172425Y-70047540D01*
X37894947Y-69978175D01*
X37617473Y-69908793D01*
X37409355Y-69839434D01*
X37201232Y-69770043D01*
X36923763Y-69700677D01*
X36715632Y-69631322D01*
X36507517Y-69561949D01*
X36299411Y-69492556D01*
X36091303Y-69423210D01*
X35883195Y-69353833D01*
X35675088Y-69215078D01*
X35536341Y-69215078D01*
X35328229Y-69145708D01*
X35120106Y-69006975D01*
X34981373Y-69006975D01*
X34773269Y-68937594D01*
X34426410Y-68729499D01*
X34287685Y-68729499D01*
X33940815Y-68521391D01*
X33802092Y-68521391D01*
X32830891Y-68035779D01*
X32692143Y-67897048D01*
X32345315Y-67758329D01*
X32137196Y-67619571D01*
X31929078Y-67480825D01*
X31651605Y-67272724D01*
X30819149Y-66440270D01*
X30680422Y-66232165D01*
X30541676Y-66024050D01*
X30333560Y-65607820D01*
X30333560Y-65469092D01*
X30194825Y-65260983D01*
X30125453Y-65052863D01*
X30056079Y-64844748D01*
X29986727Y-64567268D01*
X29986727Y-64359164D01*
X29917350Y-64220421D01*
X29778604Y-64081690D01*
X29639868Y-64012304D01*
X29501120Y-64012304D01*
X29362389Y-63873561D01*
X29223641Y-63804192D01*
X28946152Y-63804192D01*
X27420009Y-63873561D01*
X27003779Y-63804192D01*
X26726296Y-63734817D01*
X26448824Y-63665460D01*
X26240713Y-63596092D01*
X25269508Y-63110497D01*
X24992036Y-62902384D01*
X24159589Y-62069946D01*
X24020859Y-61861834D01*
X23882118Y-61653718D01*
X23743365Y-61445611D01*
X23327148Y-60613151D01*
X23327148Y-60474412D01*
X23188397Y-60266306D01*
X23119027Y-59988829D01*
X23049666Y-59780725D01*
X22980304Y-59503232D01*
X22910929Y-59225759D01*
X22841553Y-58878886D01*
X22772191Y-58462671D01*
X22702834Y-58046450D01*
X22633448Y-57630219D01*
X22564069Y-57005894D01*
X22494692Y-56312191D01*
X22429187Y-55132902D01*
X23882118Y-55132902D01*
X23951484Y-56242810D01*
X24020859Y-57075274D01*
X24090224Y-57560849D01*
X24159589Y-58046450D01*
X24228959Y-58393307D01*
X24298328Y-58740167D01*
X24367695Y-59017655D01*
X24437077Y-59295122D01*
X24506448Y-59503232D01*
X24575825Y-59711336D01*
X24645180Y-59919457D01*
X25061405Y-60751901D01*
X25200148Y-60960001D01*
X25408268Y-61237485D01*
X25893848Y-61723078D01*
X26101961Y-61861834D01*
X26310091Y-62000568D01*
X26587571Y-62139325D01*
X26726296Y-62139325D01*
X26934417Y-62278043D01*
X27211896Y-62347434D01*
X27558755Y-62416798D01*
X28113705Y-62416798D01*
X28252447Y-62278043D01*
X28183083Y-62139325D01*
X28183083Y-61861834D01*
X28113705Y-61445611D01*
X27974953Y-61306878D01*
X27558755Y-61237485D01*
X27211896Y-61237485D01*
X27003779Y-61168113D01*
X26795671Y-61098772D01*
X26379462Y-60890632D01*
X26171337Y-60751901D01*
X25755123Y-60335681D01*
X25616381Y-60127570D01*
X25477630Y-59919457D01*
X25200148Y-59364486D01*
X25130783Y-59156368D01*
X25061405Y-58948273D01*
X24992036Y-58670781D01*
X24922668Y-58393307D01*
X24853298Y-58115815D01*
X24783932Y-57768976D01*
X24714554Y-57283369D01*
X24645180Y-56728421D01*
X24575825Y-55757230D01*
X24575825Y-55341006D01*
X27489391Y-55341006D01*
X27558755Y-53537389D01*
X28391192Y-53537389D01*
X28460571Y-55757230D01*
X28529924Y-56867165D01*
X28599313Y-57699607D01*
X28668666Y-58462671D01*
X28738042Y-59225759D01*
X28807421Y-59850079D01*
X28876791Y-60335681D01*
X28946152Y-60821276D01*
X29015529Y-61237485D01*
X29084900Y-61584356D01*
X29154266Y-61792455D01*
X29293005Y-62069946D01*
X29709237Y-62486148D01*
X29986727Y-62624900D01*
X30125453Y-62624900D01*
X30125453Y-62416798D01*
X30056079Y-62069946D01*
X30056079Y-61653718D01*
X29917350Y-61168113D01*
X29847968Y-60682524D01*
X29778604Y-60196939D01*
X29709237Y-59572611D01*
X29639868Y-58878886D01*
X29576262Y-58115815D01*
X30333560Y-58115815D01*
X30402928Y-58809533D01*
X30472307Y-59433862D01*
X30541676Y-60058197D01*
X30611034Y-60682524D01*
X30680422Y-61098772D01*
X30749784Y-61514953D01*
X30819149Y-61931204D01*
X30888513Y-62278043D01*
X30957898Y-62694276D01*
X31027273Y-62971754D01*
X31096645Y-63249241D01*
X31166006Y-63526712D01*
X31235393Y-63804192D01*
X31304752Y-64012304D01*
X31374121Y-64220421D01*
X31443480Y-64428525D01*
X31512866Y-64636657D01*
X31651605Y-64844748D01*
X31651605Y-64983494D01*
X31720978Y-65122242D01*
X31859710Y-65330341D01*
X32067808Y-65607820D01*
X32553416Y-66093424D01*
X32900273Y-66370904D01*
X33108372Y-66509641D01*
X33316492Y-66579017D01*
X33455224Y-66717747D01*
X33663336Y-66787128D01*
X33802092Y-66925857D01*
X33940815Y-66925857D01*
X34703894Y-67342089D01*
X34842643Y-67342089D01*
X35189490Y-67550217D01*
X35397599Y-67619571D01*
X35536341Y-67619571D01*
X35744446Y-67758329D01*
X35883195Y-67758329D01*
X36091303Y-67758329D01*
X36021942Y-67619571D01*
X35883195Y-67411465D01*
X35883195Y-67272724D01*
X35813834Y-67064600D01*
X35675088Y-66856489D01*
X35605713Y-66648378D01*
X35536341Y-66370904D01*
X35466975Y-66162777D01*
X35397599Y-65885302D01*
X35328229Y-65677202D01*
X35258864Y-65469092D01*
X35189490Y-65191610D01*
X35189490Y-64914137D01*
X35050758Y-64636657D01*
X34981373Y-64359164D01*
X34912011Y-64012304D01*
X34842643Y-63734817D01*
X34773269Y-63387974D01*
X34703894Y-63110497D01*
X34634534Y-62763633D01*
X34565169Y-62416798D01*
X34495790Y-62000568D01*
X34426410Y-61653718D01*
X34426410Y-61237485D01*
X34357057Y-60821276D01*
X34287685Y-60335681D01*
X34218292Y-59988829D01*
X34148932Y-59850079D01*
X33871450Y-59572611D01*
X33732715Y-59503232D01*
X33455224Y-59433862D01*
X33316492Y-59433862D01*
X33108372Y-59295122D01*
X32969630Y-59295122D01*
X32761537Y-59156368D01*
X32622790Y-59156368D01*
X32067808Y-58878886D01*
X31859710Y-58740167D01*
X31651605Y-58601407D01*
X31374121Y-58393307D01*
X30749784Y-57768976D01*
X30541676Y-57422119D01*
X30402928Y-57283369D01*
X30333560Y-58115815D01*
X29576262Y-58115815D01*
X29570481Y-58046450D01*
X29501120Y-57144638D01*
X29431746Y-55687854D01*
X29458429Y-53259899D01*
X30194825Y-53259899D01*
X30264187Y-54231085D01*
X30333560Y-54786041D01*
X30402928Y-55132902D01*
X30472307Y-55479753D01*
X30541676Y-55687854D01*
X30611034Y-55965339D01*
X30680422Y-56173454D01*
X30749784Y-56381571D01*
X30957898Y-56797791D01*
X31096645Y-57005894D01*
X31304752Y-57283369D01*
X31859710Y-57838346D01*
X32137196Y-58046450D01*
X32345315Y-58185184D01*
X33177736Y-58601407D01*
X33385845Y-58670781D01*
X33593964Y-58740167D01*
X33732715Y-58740167D01*
X33940815Y-58878886D01*
X34079559Y-58878886D01*
X34287685Y-58948273D01*
X34565169Y-59156368D01*
X34703894Y-59364486D01*
X34842643Y-59641975D01*
X34912011Y-60058197D01*
X34981373Y-60543798D01*
X34981373Y-60960001D01*
X35050758Y-61376238D01*
X35120106Y-61792455D01*
X35189490Y-62208677D01*
X35258864Y-62624900D01*
X35328229Y-62971754D01*
X35397599Y-63318612D01*
X35466975Y-63734817D01*
X35536341Y-64081690D01*
X35605713Y-64359164D01*
X35675088Y-64636657D01*
X35744446Y-64983494D01*
X35813834Y-65260983D01*
X35883195Y-65469092D01*
X35952559Y-65746567D01*
X36021942Y-65954689D01*
X36091303Y-66232165D01*
X36160682Y-66440270D01*
X36230055Y-66648378D01*
X36299411Y-66856489D01*
X36368801Y-67064600D01*
X36646284Y-67619571D01*
X37270602Y-68243893D01*
X37409355Y-68313278D01*
X37617473Y-68382647D01*
X37894947Y-68452009D01*
X38103043Y-68521391D01*
X38380532Y-68590753D01*
X38588651Y-68660132D01*
X38866116Y-68729499D01*
X39143599Y-68798874D01*
X39421088Y-68868233D01*
X39698588Y-68937594D01*
X39906683Y-69006975D01*
X40184164Y-69076346D01*
X40531016Y-69145708D01*
X40877870Y-69215078D01*
X41224707Y-69284457D01*
X41502192Y-69353833D01*
X41849051Y-69423210D01*
X42265271Y-69492556D01*
X42612129Y-69561949D01*
X43028356Y-69631322D01*
X43444588Y-69700677D01*
X43930170Y-69770043D01*
X44415754Y-69839434D01*
X44901356Y-69908793D01*
X45456317Y-69978175D01*
X46150028Y-70047540D01*
X46913082Y-70116902D01*
X47884286Y-70186272D01*
X49271678Y-70255657D01*
X52740201Y-70255657D01*
X54058247Y-70186272D01*
X55098808Y-70116902D01*
X55861870Y-70047540D01*
X56555571Y-69978175D01*
X57041171Y-69908793D01*
X57596127Y-69839434D01*
X58081730Y-69770043D01*
X58567314Y-69700677D01*
X58983541Y-69631322D01*
X59330399Y-69561949D01*
X59746622Y-69492556D01*
X60093472Y-69423210D01*
X60440321Y-69353833D01*
X60717800Y-69284457D01*
X61064654Y-69215078D01*
X61411493Y-69145708D01*
X61688987Y-69076346D01*
X61966474Y-69006975D01*
X62243954Y-68937594D01*
X62521432Y-68868233D01*
X62798922Y-68798874D01*
X63076395Y-68729499D01*
X63284517Y-68660132D01*
X63561988Y-68590753D01*
X63770100Y-68521391D01*
X64047583Y-68452009D01*
X64186317Y-68382647D01*
X64394438Y-68243893D01*
X64810665Y-67827679D01*
X65504367Y-67827679D01*
X65712478Y-67827679D01*
X65851218Y-67827679D01*
X66059329Y-67688937D01*
X66198071Y-67688937D01*
X66406179Y-67550217D01*
X66544913Y-67550217D01*
X66753035Y-67411465D01*
X66891776Y-67411465D01*
X68417927Y-66648378D01*
X68626039Y-66509641D01*
X68834133Y-66370904D01*
X69180993Y-66093424D01*
X69666590Y-65607820D01*
X69874692Y-65330341D01*
X70152190Y-64775382D01*
X70221549Y-64567268D01*
X70221549Y-64428525D01*
X70360283Y-64220421D01*
X70429664Y-63942944D01*
X70499025Y-63734817D01*
X70568397Y-63457365D01*
X70637772Y-63179856D01*
X70707157Y-62902384D01*
X70776517Y-62555539D01*
X71539591Y-62555539D01*
X71747696Y-62624900D01*
X71886433Y-62555539D01*
X72163925Y-62347434D01*
X72233277Y-62278043D01*
X73412587Y-62278043D01*
X73551329Y-62416798D01*
X74106279Y-62416798D01*
X74522517Y-62347434D01*
X74730634Y-62278043D01*
X74938722Y-62208677D01*
X75354957Y-62000568D01*
X75563056Y-61861834D01*
X75771177Y-61723078D01*
X76187401Y-61306878D01*
X76395523Y-61029380D01*
X76534265Y-60821276D01*
X76673001Y-60613151D01*
X76881117Y-60196939D01*
X76881117Y-60058197D01*
X77019845Y-59850079D01*
X77089222Y-59641975D01*
X77158599Y-59433862D01*
X77227975Y-59225759D01*
X77297342Y-58948273D01*
X77366711Y-58601407D01*
X77436083Y-58254568D01*
X77505446Y-57838346D01*
X77574811Y-57352743D01*
X77644186Y-56728421D01*
X77713551Y-55895978D01*
X77713551Y-52635553D01*
X77644186Y-51803133D01*
X77574811Y-51109416D01*
X77505446Y-50762566D01*
X77436083Y-50415707D01*
X77366711Y-50068853D01*
X77297342Y-49791370D01*
X77227975Y-49513890D01*
X77158599Y-49305783D01*
X77019845Y-49097669D01*
X77019845Y-48958938D01*
X76950490Y-48750822D01*
X76881117Y-48612089D01*
X76742366Y-48473330D01*
X76673001Y-48265210D01*
X76534265Y-48057111D01*
X75909932Y-47432786D01*
X75493709Y-47224675D01*
X75285582Y-47155309D01*
X75077475Y-47085945D01*
X74661251Y-47016558D01*
X74106279Y-47016558D01*
X73967549Y-47155309D01*
X73967549Y-47640884D01*
X74106279Y-48542704D01*
X74175661Y-50276972D01*
X74106279Y-53745477D01*
X74106279Y-55202272D01*
X74245028Y-55341006D01*
X77089222Y-55341006D01*
X77089222Y-55618488D01*
X77019845Y-56520315D01*
X76950490Y-57144638D01*
X76881117Y-57560849D01*
X76811738Y-57907697D01*
X76742366Y-58254568D01*
X76673001Y-58532045D01*
X76603634Y-58809533D01*
X76534265Y-59087006D01*
X76464887Y-59295122D01*
X76256772Y-59641975D01*
X76256772Y-59780725D01*
X76118042Y-59919457D01*
X76048675Y-60127570D01*
X75840549Y-60405056D01*
X75563056Y-60682524D01*
X75354957Y-60821276D01*
X75146845Y-60960001D01*
X74869374Y-61098772D01*
X74661251Y-61168113D01*
X74453147Y-61237485D01*
X74036915Y-61306878D01*
X73620715Y-61376238D01*
X73551329Y-61514953D01*
X73481965Y-61931204D01*
X73412587Y-62278043D01*
X72233277Y-62278043D01*
X72302665Y-62208677D01*
X72441404Y-62000568D01*
X72580141Y-61723078D01*
X72649517Y-61376238D01*
X72718879Y-61029380D01*
X72788235Y-60613151D01*
X72857623Y-60127570D01*
X72927004Y-59572611D01*
X72996357Y-58878886D01*
X73065746Y-58115815D01*
X73135099Y-57214017D01*
X73204478Y-56104082D01*
X73273846Y-53814860D01*
X73273846Y-50970671D01*
X73204478Y-49097669D01*
X73135099Y-48126495D01*
X73065746Y-47640884D01*
X72996357Y-47432786D01*
X72927004Y-47294047D01*
X72580141Y-46947184D01*
X72441404Y-46877821D01*
X72302665Y-46877821D01*
X72163925Y-47432786D01*
X72163925Y-48889563D01*
X72302665Y-50831928D01*
X72302665Y-53676119D01*
X72233281Y-56381571D01*
X72163925Y-57491492D01*
X72094549Y-58393307D01*
X72025189Y-59156368D01*
X71955802Y-59850079D01*
X71886433Y-60405056D01*
X71817064Y-60890632D01*
X71678321Y-61445611D01*
X71608943Y-61931204D01*
X71539591Y-62347434D01*
X71539591Y-62555539D01*
X70776517Y-62555539D01*
X70818143Y-62347434D01*
X70845886Y-62208677D01*
X70915248Y-61792455D01*
X70984636Y-61376238D01*
X71053991Y-60890632D01*
X71123363Y-60335681D01*
X71192742Y-59780725D01*
X71262109Y-59087006D01*
X71331483Y-58323938D01*
X71262109Y-57283369D01*
X71123363Y-57422119D01*
X70845886Y-57838346D01*
X70429664Y-58254568D01*
X70082805Y-58532045D01*
X69805320Y-58740167D01*
X69319747Y-58948273D01*
X69180993Y-59087006D01*
X69042254Y-59156368D01*
X68903525Y-59156368D01*
X68695397Y-59295122D01*
X68556650Y-59295122D01*
X68348543Y-59433862D01*
X68209820Y-59433862D01*
X67932334Y-59503232D01*
X67654855Y-59641975D01*
X67516114Y-59780725D01*
X67377378Y-60058197D01*
X67307986Y-60405056D01*
X67238613Y-60821276D01*
X67169256Y-61237485D01*
X67099879Y-61653718D01*
X67099879Y-62000568D01*
X67030502Y-62416798D01*
X66961136Y-62763633D01*
X66891776Y-63110497D01*
X66822400Y-63457365D01*
X66753035Y-63734817D01*
X66683654Y-64081690D01*
X66614297Y-64359164D01*
X66544913Y-64636657D01*
X66475564Y-64914137D01*
X66406179Y-65191610D01*
X66336805Y-65469092D01*
X66267445Y-65677202D01*
X66198071Y-65954689D01*
X66128695Y-66232165D01*
X66059329Y-66440270D01*
X65989957Y-66648378D01*
X65920582Y-66856489D01*
X65851218Y-67064600D01*
X65781836Y-67272724D01*
X65712478Y-67480825D01*
X65573728Y-67688937D01*
X65504367Y-67827679D01*
X64810665Y-67827679D01*
X64880038Y-67758329D01*
X64949386Y-67550217D01*
X65088152Y-67411465D01*
X65157507Y-67272724D01*
X65226872Y-67064600D01*
X65296254Y-66856489D01*
X65365614Y-66648378D01*
X65434988Y-66440270D01*
X65504367Y-66232165D01*
X65573728Y-66024050D01*
X65643111Y-65746567D01*
X65712478Y-65469092D01*
X65781836Y-65260983D01*
X65851218Y-64983494D01*
X65920582Y-64706021D01*
X65989957Y-64359164D01*
X66059329Y-64012304D01*
X66128695Y-63734817D01*
X66198071Y-63387974D01*
X66267445Y-62971754D01*
X66336805Y-62624900D01*
X66406179Y-62208677D01*
X66475564Y-61792455D01*
X66475564Y-61376238D01*
X66544913Y-60960001D01*
X66614297Y-60543798D01*
X66683654Y-60127570D01*
X66753035Y-59711336D01*
X66822400Y-59503232D01*
X66891776Y-59364486D01*
X67238613Y-59017655D01*
X67516114Y-58878886D01*
X67724220Y-58809533D01*
X67932334Y-58740167D01*
X68140446Y-58670781D01*
X68279178Y-58670781D01*
X68487298Y-58601407D01*
X69180993Y-58254568D01*
X69389112Y-58115815D01*
X69597214Y-57977086D01*
X70013444Y-57630219D01*
X70221549Y-57422119D01*
X70499025Y-57075274D01*
X70637772Y-56867165D01*
X70707157Y-56659054D01*
X70845886Y-56520315D01*
X70845886Y-56381571D01*
X70984636Y-56173454D01*
X71053991Y-55965339D01*
X71123363Y-55687854D01*
X71192742Y-55479753D01*
X71262109Y-55132902D01*
X71331483Y-54786041D01*
X71400845Y-54231085D01*
X71470218Y-53259899D01*
X71470218Y-50554447D01*
X71400845Y-49722008D01*
X71331483Y-49167036D01*
X71262109Y-48820195D01*
X71192742Y-48542704D01*
X71123363Y-48334605D01*
X71053991Y-48057111D01*
X70984636Y-47848990D01*
X70776517Y-47502159D01*
X70776517Y-47363413D01*
X70707157Y-47224675D01*
X70568397Y-47085945D01*
X70499025Y-46877821D01*
X70360283Y-46669701D01*
X70152190Y-46392228D01*
X69874692Y-46045380D01*
X69389112Y-45559783D01*
X69042254Y-45282298D01*
X68764779Y-45074190D01*
X68556650Y-44935449D01*
X68348543Y-44866074D01*
X68209820Y-44727338D01*
X67516114Y-44380480D01*
X67377378Y-44380480D01*
X67030502Y-44172372D01*
X66891776Y-44172372D01*
X66683654Y-44033629D01*
X66406179Y-43964262D01*
X66267445Y-43964262D01*
X66059329Y-43894887D01*
X65851218Y-43756156D01*
X65643111Y-43686784D01*
X65365614Y-43617415D01*
X65088152Y-43548053D01*
X64880038Y-43478669D01*
X64602536Y-43409290D01*
X64394438Y-43339933D01*
X64116958Y-43270548D01*
X63839477Y-43201178D01*
X63561988Y-43131810D01*
X63284517Y-43062439D01*
X62937663Y-42993062D01*
X62660174Y-42993062D01*
X62313316Y-42854329D01*
X62035842Y-42784969D01*
X61688987Y-42715585D01*
X61272774Y-42646204D01*
X60925911Y-42576846D01*
X60579076Y-42507486D01*
X60162837Y-42438112D01*
X59746622Y-42368725D01*
X59330399Y-42299354D01*
X58844788Y-42229995D01*
X58428580Y-42160623D01*
X57804242Y-42091262D01*
X57179916Y-42021882D01*
X56555571Y-41952510D01*
X55861870Y-41883145D01*
X54960062Y-41813786D01*
X53850140Y-41744410D01*
X52393360Y-41675027D01*
X49410435Y-41675027D01*
X47814910Y-41744410D01*
X46774348Y-41813786D01*
X45941922Y-41883145D01*
X45248194Y-41952510D01*
X44554499Y-42021882D01*
X43999541Y-42091262D01*
X43375197Y-42160623D01*
X42889617Y-42229995D01*
X42473392Y-42299354D01*
X42057163Y-42368725D01*
X41640935Y-42438112D01*
X41224707Y-42507486D01*
X40808498Y-42576846D01*
X40461644Y-42646204D01*
X40114798Y-42715585D01*
X39837316Y-42784969D01*
X39490457Y-42854329D01*
X39143599Y-42923707D01*
X38866116Y-42993062D01*
X38519275Y-43062439D01*
X38172425Y-43131810D01*
X37894947Y-43201178D01*
X37617473Y-43339933D01*
X37339985Y-43339933D01*
X37062499Y-43409290D01*
X36854389Y-43478669D01*
X36576897Y-43548053D01*
X36368801Y-43617415D01*
X36091303Y-43686784D01*
X35883195Y-43756156D01*
X35675088Y-43825512D01*
X35466975Y-43894887D01*
X35258864Y-43964262D01*
X35050758Y-44033629D01*
X34842643Y-44102992D01*
X34634534Y-44241730D01*
X34495790Y-44241730D01*
X34287685Y-44380480D01*
X34148932Y-44380480D01*
X33593964Y-44657959D01*
X33455224Y-44796708D01*
X33247127Y-44866074D01*
X33039022Y-45004817D01*
X32830891Y-45143559D01*
X32622790Y-45282298D01*
X31582226Y-46322860D01*
X31374121Y-46600341D01*
X31235393Y-46808468D01*
X31166006Y-47016558D01*
X31027273Y-47155309D01*
X30819149Y-47571525D01*
X30819149Y-47710260D01*
X30680422Y-47918362D01*
X30611034Y-48126495D01*
X30541676Y-48403974D01*
X30472307Y-48612089D01*
X30402928Y-48958938D01*
X30333560Y-49236414D01*
X30264187Y-49791370D01*
X30194825Y-50623814D01*
X30194825Y-53259899D01*
X29458429Y-53259899D01*
X29487400Y-50623814D01*
X29501120Y-49375142D01*
X29501120Y-47432786D01*
X29431746Y-46947184D01*
X29223641Y-46877821D01*
X29154266Y-46947184D01*
X29084900Y-46947184D01*
X28807421Y-47224675D01*
X28738042Y-47363413D01*
X28668666Y-47571525D01*
X28599313Y-47779643D01*
X28529924Y-48334605D01*
X28460571Y-49236414D01*
X28391192Y-51456266D01*
X28391192Y-53537389D01*
X27558755Y-53537389D01*
X27506718Y-51456266D01*
X27489391Y-50762566D01*
X27558755Y-48750822D01*
X27697496Y-47779643D01*
X27697496Y-47155309D01*
X27558755Y-47016558D01*
X27003779Y-47016558D01*
X26656939Y-47085945D01*
X26448824Y-47155309D01*
X26240713Y-47224675D01*
X25963221Y-47363413D01*
X25755123Y-47502159D01*
X25200148Y-48057111D01*
X25061405Y-48265210D01*
X24922668Y-48473330D01*
X24575825Y-49167036D01*
X24575825Y-49305783D01*
X24437077Y-49513890D01*
X24367695Y-49791370D01*
X24298328Y-50068853D01*
X24228959Y-50415707D01*
X24159589Y-50762566D01*
X24090224Y-51109416D01*
X24020859Y-51664383D01*
X23951484Y-52358080D01*
X23882118Y-53468007D01*
X23882118Y-55132902D01*
X22429187Y-55132902D01*
X22425333Y-55063526D01*
X22425333Y-53468007D01*
X22425333Y-53051781D01*
X22494692Y-51941859D01*
X22564069Y-51178780D01*
X22633448Y-50693187D01*
X22702834Y-50276972D01*
X22772191Y-49930120D01*
X22841553Y-49513890D01*
X22910929Y-49305783D01*
X22980304Y-49028303D01*
X23119027Y-48820195D01*
X23119027Y-48681456D01*
X23188397Y-48473330D01*
X23535254Y-47779643D01*
X23674008Y-47571525D01*
X23812754Y-47363413D01*
X23951484Y-47155309D01*
X24159589Y-46877821D01*
X24506448Y-46530963D01*
X24783932Y-46322860D01*
X24992036Y-46184118D01*
X25130801Y-46114735D01*
X29847968Y-46114735D01*
X29917350Y-46322860D01*
X30056079Y-46600341D01*
X30125453Y-46808468D01*
X30194825Y-47085945D01*
X30333560Y-46947184D01*
X30402928Y-46739085D01*
X30541676Y-46600341D01*
X30611034Y-46392228D01*
X30749784Y-46184118D01*
X30888513Y-45976001D01*
X31166006Y-45629158D01*
X31929078Y-44866074D01*
X32275923Y-44588596D01*
X32484045Y-44449853D01*
X32692143Y-44311105D01*
X32900273Y-44172372D01*
X33108372Y-44102992D01*
X33247127Y-43964262D01*
X33940815Y-43617415D01*
X34079559Y-43617415D01*
X34426410Y-43409290D01*
X34565169Y-43409290D01*
X34773269Y-43270548D01*
X34981373Y-43201178D01*
X35189490Y-43131810D01*
X35397599Y-43062439D01*
X35605713Y-42993062D01*
X35813834Y-42923707D01*
X36021942Y-42854329D01*
X36230055Y-42784969D01*
X36299411Y-42646204D01*
X36327157Y-42507486D01*
X36923763Y-42507486D01*
X37201232Y-42576846D01*
X37478712Y-42507486D01*
X37756193Y-42438112D01*
X38033682Y-42368725D01*
X38380532Y-42229995D01*
X38658005Y-42160623D01*
X39004854Y-42091262D01*
X39282354Y-42021882D01*
X39629192Y-41952510D01*
X39976036Y-41883145D01*
X40322896Y-41813786D01*
X40739129Y-41744410D01*
X41085975Y-41675027D01*
X41502192Y-41605682D01*
X41918418Y-41536304D01*
X42404000Y-41466924D01*
X42820235Y-41397555D01*
X43305838Y-41328175D01*
X43930170Y-41258809D01*
X44554499Y-41189459D01*
X45109461Y-41120065D01*
X45872521Y-41050698D01*
X46774348Y-40981336D01*
X47953645Y-40911966D01*
X50242872Y-40911966D01*
X50381605Y-40842581D01*
X50388349Y-40357001D01*
X51214067Y-40357001D01*
X51214067Y-40565108D01*
X51352798Y-40842581D01*
X51491542Y-40911966D01*
X53711384Y-40911966D01*
X54960062Y-40981336D01*
X55861870Y-41050698D01*
X56624947Y-41120065D01*
X57179916Y-41189459D01*
X57804242Y-41258809D01*
X58428580Y-41328175D01*
X58914168Y-41397555D01*
X59330399Y-41466924D01*
X59815976Y-41536304D01*
X60232225Y-41605682D01*
X60648439Y-41675027D01*
X60995286Y-41744410D01*
X61342138Y-41813786D01*
X61758354Y-41883145D01*
X62035842Y-41952510D01*
X62382697Y-42021882D01*
X62660174Y-42091262D01*
X63007019Y-42160623D01*
X63284517Y-42229995D01*
X63631353Y-42368725D01*
X63908846Y-42438112D01*
X64186317Y-42507486D01*
X64463808Y-42576846D01*
X64602536Y-42576846D01*
X64671909Y-42091262D01*
X64602536Y-41675027D01*
X64533170Y-41397555D01*
X64463808Y-41189459D01*
X64394438Y-40911966D01*
X64325068Y-40703848D01*
X64255680Y-40495728D01*
X64186317Y-40287635D01*
X64047583Y-40079528D01*
X64047583Y-39940778D01*
X63561988Y-38969599D01*
X63423245Y-38830856D01*
X63353871Y-38622742D01*
X63284517Y-38553368D01*
X63839477Y-38553368D01*
X63908846Y-38692095D01*
X63978196Y-38830856D01*
X64116958Y-38969599D01*
X64602536Y-39940778D01*
X64602536Y-40079528D01*
X64741281Y-40287635D01*
X64810665Y-40495728D01*
X64880038Y-40703848D01*
X64949386Y-40911966D01*
X65018763Y-41120065D01*
X65088152Y-41328175D01*
X65157507Y-41605682D01*
X65226872Y-41883145D01*
X65226872Y-42091262D01*
X65365614Y-42507486D01*
X65365614Y-42715585D01*
X65504367Y-42854329D01*
X65643111Y-42923707D01*
X65920582Y-42993062D01*
X66128695Y-43062439D01*
X66267445Y-43062439D01*
X66475564Y-43131810D01*
X66683654Y-43201178D01*
X66891776Y-43339933D01*
X67030502Y-43339933D01*
X67238613Y-43409290D01*
X67585454Y-43617415D01*
X67724220Y-43617415D01*
X68556650Y-44033629D01*
X68695397Y-44172372D01*
X68903525Y-44241730D01*
X69111629Y-44380480D01*
X69389112Y-44588596D01*
X69666590Y-44796708D01*
X70568397Y-45698514D01*
X70845886Y-46045380D01*
X70984636Y-46253492D01*
X71123363Y-46461608D01*
X71192742Y-46669701D01*
X71331483Y-46808468D01*
X71400845Y-46947184D01*
X71470218Y-47085945D01*
X71608943Y-46808468D01*
X71678321Y-46600341D01*
X71747696Y-46392228D01*
X71817064Y-46184118D01*
X71817064Y-45837255D01*
X71747696Y-45629158D01*
X71608943Y-45351675D01*
X71470218Y-45212940D01*
X71331483Y-44866074D01*
X71192742Y-44657959D01*
X71053991Y-44449853D01*
X70915248Y-44241730D01*
X70707157Y-43964262D01*
X70499025Y-43686784D01*
X70221549Y-43339933D01*
X69805320Y-42854329D01*
X68279178Y-41328175D01*
X67862955Y-40981336D01*
X67446738Y-40634475D01*
X67169256Y-40426366D01*
X66891776Y-40218256D01*
X66614297Y-40010153D01*
X66406179Y-39871422D01*
X66198071Y-39732661D01*
X65989957Y-39663300D01*
X65851218Y-39524555D01*
X65643111Y-39385817D01*
X65434988Y-39316451D01*
X65296254Y-39177694D01*
X64949386Y-39038961D01*
X64810665Y-38900223D01*
X64047583Y-38553368D01*
X63839477Y-38553368D01*
X63284517Y-38553368D01*
X62590816Y-37859670D01*
X62035842Y-37582180D01*
X61827731Y-37512811D01*
X61688987Y-37512811D01*
X61480868Y-37374088D01*
X61272774Y-37304697D01*
X61064654Y-37235338D01*
X60856536Y-37165973D01*
X60648439Y-37096590D01*
X60440321Y-37027222D01*
X60232225Y-36957856D01*
X60024104Y-36888484D01*
X59815976Y-36819117D01*
X59538511Y-36749735D01*
X59330399Y-36680382D01*
X59052916Y-36611002D01*
X58775435Y-36541629D01*
X58497948Y-36472254D01*
X58220476Y-36402892D01*
X57873634Y-36333500D01*
X57457393Y-36264148D01*
X57110547Y-36194771D01*
X56763684Y-36125404D01*
X56347476Y-36056042D01*
X55861870Y-35986663D01*
X55306914Y-35917281D01*
X54682588Y-35847918D01*
X54058247Y-35778551D01*
X53087058Y-35709193D01*
X51283439Y-35778551D01*
X51214067Y-35917281D01*
X51283439Y-39455177D01*
X51214067Y-40357001D01*
X50388349Y-40357001D01*
X50450015Y-35917281D01*
X50450980Y-35847918D01*
X50312230Y-35709193D01*
X48647346Y-35709193D01*
X47745527Y-35778551D01*
X47051836Y-35847918D01*
X46496866Y-35917281D01*
X45872521Y-35986663D01*
X45386951Y-36056042D01*
X44970723Y-36125404D01*
X44623868Y-36194771D01*
X44207640Y-36264148D01*
X43860787Y-36333500D01*
X43583311Y-36402892D01*
X43305838Y-36472254D01*
X43028356Y-36541629D01*
X42750882Y-36611002D01*
X42404000Y-36680382D01*
X42195904Y-36749735D01*
X41987781Y-36819117D01*
X41710310Y-36888484D01*
X41502192Y-36957856D01*
X41224707Y-37027222D01*
X41016594Y-37165973D01*
X40808498Y-37235338D01*
X40600379Y-37235338D01*
X40392268Y-37304697D01*
X40184164Y-37443440D01*
X40045416Y-37443440D01*
X39837316Y-37582180D01*
X39698588Y-37582180D01*
X39490457Y-37651536D01*
X39074236Y-37859670D01*
X38796748Y-38067779D01*
X38519275Y-38345254D01*
X38311153Y-38622742D01*
X38172425Y-38830856D01*
X38033682Y-39038961D01*
X37617473Y-39871422D01*
X37617473Y-40010153D01*
X37478712Y-40218256D01*
X37409355Y-40426366D01*
X37339985Y-40634475D01*
X37270602Y-40842581D01*
X37201232Y-41050698D01*
X37131862Y-41328175D01*
X37062499Y-41605682D01*
X36993134Y-41952510D01*
X36923763Y-42368725D01*
X36923763Y-42507486D01*
X36327157Y-42507486D01*
X36354912Y-42368725D01*
X36368801Y-42299354D01*
X36368801Y-42021882D01*
X36438160Y-41744410D01*
X36507517Y-41466924D01*
X36576897Y-41258809D01*
X36646284Y-41050698D01*
X36715632Y-40842581D01*
X36785003Y-40634475D01*
X36854389Y-40426366D01*
X36993134Y-40218256D01*
X36993134Y-40079528D01*
X37131862Y-39871422D01*
X37131862Y-39732661D01*
X37478712Y-39038961D01*
X37617473Y-38900223D01*
X37686824Y-38761486D01*
X37756193Y-38622742D01*
X37548084Y-38622742D01*
X36785003Y-38969599D01*
X36646284Y-39108319D01*
X36299411Y-39247073D01*
X36160682Y-39385817D01*
X35952559Y-39455177D01*
X35744446Y-39593925D01*
X35536341Y-39732661D01*
X35328229Y-39871422D01*
X35120106Y-40010153D01*
X34912011Y-40148887D01*
X34634534Y-40357001D01*
X34357057Y-40565108D01*
X34079559Y-40773214D01*
X33593964Y-41189459D01*
X32900273Y-41813786D01*
X32137196Y-42576846D01*
X31582226Y-43201178D01*
X31235393Y-43617415D01*
X31027273Y-43894887D01*
X30819149Y-44172372D01*
X30680422Y-44380480D01*
X30541676Y-44588596D01*
X30402928Y-44796708D01*
X30264187Y-45143559D01*
X30125453Y-45282298D01*
X29917350Y-45698514D01*
X29847968Y-45906617D01*
X29847968Y-46114735D01*
X25130801Y-46114735D01*
X25408268Y-45976001D01*
X25616381Y-45906617D01*
X25893848Y-45837255D01*
X26101961Y-45767886D01*
X26379462Y-45698514D01*
X26726296Y-45629158D01*
X27281277Y-45559783D01*
X28183083Y-45559783D01*
X28391192Y-45559783D01*
X28599313Y-45074190D01*
X28738042Y-44935449D01*
X28876791Y-44588596D01*
X29015529Y-44449853D01*
X29154266Y-44102992D01*
X29362389Y-43894887D01*
X29431746Y-43686784D01*
X29639868Y-43409290D01*
X29778604Y-43201178D01*
X29986727Y-42923707D01*
X30264187Y-42576846D01*
X30541676Y-42229995D01*
X31027273Y-41675027D01*
X31929078Y-40773214D01*
X32622790Y-40148887D01*
X32969630Y-39871422D01*
X33316492Y-39593925D01*
X33593964Y-39385817D01*
X33871450Y-39177694D01*
X34148932Y-38969599D01*
X34357057Y-38830856D01*
X34565169Y-38692095D01*
X34773269Y-38553368D01*
X34981373Y-38414623D01*
X35189490Y-38275888D01*
X35397599Y-38206527D01*
X35536341Y-38067779D01*
X35883195Y-37929041D01*
X36021942Y-37790287D01*
X36507517Y-37582180D01*
X36646284Y-37443440D01*
X37478712Y-37027222D01*
X37617473Y-37027222D01*
X38241798Y-36680382D01*
X38380532Y-36680382D01*
X38866116Y-36402892D01*
X39074236Y-36333500D01*
X39212973Y-36333500D01*
X39421088Y-36194771D01*
X39559828Y-36194771D01*
X39767940Y-36056042D01*
X39976036Y-35986663D01*
X40184164Y-35917281D01*
X40392268Y-35847918D01*
X40600379Y-35778551D01*
X40808498Y-35709193D01*
X41016594Y-35639810D01*
X41224707Y-35570435D01*
X41502192Y-35501068D01*
X41710310Y-35431692D01*
X41987781Y-35362333D01*
X42265271Y-35292945D01*
X42542754Y-35223583D01*
X42820235Y-35154207D01*
X43097722Y-35084849D01*
X43375197Y-35084849D01*
X43722036Y-34946094D01*
X43860787Y-34946094D01*
X43999541Y-34668629D01*
X43999541Y-34529879D01*
X44022667Y-34460516D01*
X45595055Y-34460516D01*
X45803161Y-34668629D01*
X46427501Y-34529879D01*
X47121198Y-34460516D01*
X47953645Y-34391144D01*
X48994207Y-34321768D01*
X52948324Y-34321768D01*
X53919488Y-34391144D01*
X54613204Y-34460516D01*
X55306914Y-34529879D01*
X55931240Y-34668629D01*
X56139355Y-34599259D01*
X56069993Y-34460516D01*
X55931240Y-34252396D01*
X55445642Y-33766816D01*
X55237535Y-33628088D01*
X55098808Y-33558692D01*
X54890695Y-33489328D01*
X54613204Y-33419957D01*
X54405105Y-33350588D01*
X54058247Y-33281216D01*
X53642025Y-33211854D01*
X53087058Y-33142473D01*
X52462731Y-33073099D01*
X51283439Y-33003736D01*
X50520353Y-33003736D01*
X49202310Y-33073099D01*
X48577986Y-33142473D01*
X48023010Y-33211854D01*
X47606804Y-33281216D01*
X47259959Y-33350588D01*
X46982466Y-33419957D01*
X46774348Y-33489328D01*
X46566228Y-33558692D01*
X46288756Y-33697440D01*
X46080653Y-33836183D01*
X45733800Y-34183032D01*
X45595055Y-34460516D01*
X44022667Y-34460516D01*
X44068904Y-34321768D01*
X44415754Y-33628088D01*
X44554499Y-33419957D01*
X45248194Y-32726248D01*
X45456317Y-32656879D01*
X45595055Y-32518151D01*
X46011278Y-32310032D01*
X46219387Y-32240653D01*
X46427501Y-32171299D01*
X46635608Y-32101925D01*
X46913082Y-32032543D01*
X48369854Y-32032543D01*
X48508612Y-32240653D01*
X49341048Y-32101925D01*
X52462731Y-32101925D01*
X53156445Y-32171299D01*
X53295178Y-32032543D01*
X53225816Y-31824447D01*
X52740201Y-31338855D01*
X52601462Y-31269485D01*
X52393360Y-31200102D01*
X52115878Y-31130732D01*
X51630283Y-31061362D01*
X50034762Y-31061362D01*
X49618553Y-31130732D01*
X49271678Y-31200102D01*
X49063562Y-31338855D01*
X48924825Y-31338855D01*
X48647346Y-31546973D01*
X48508612Y-31685693D01*
X48369854Y-31893817D01*
X48369854Y-32032543D01*
X46913082Y-32032543D01*
X46982466Y-31893817D01*
X47051836Y-31685693D01*
X47051836Y-31546973D01*
X47259959Y-31130732D01*
X47398675Y-30922634D01*
X47814910Y-30506397D01*
X48092382Y-30367660D01*
X48300495Y-30159555D01*
X48300495Y-30020803D01*
X49549169Y-30020803D01*
X49896012Y-30090182D01*
X51769014Y-30090182D01*
X52046501Y-30090182D01*
X52115878Y-28147792D01*
X52046501Y-28009056D01*
X51769014Y-27731583D01*
X51630283Y-27662215D01*
X51422178Y-27592836D01*
X51075314Y-27523464D01*
X50520353Y-27523464D01*
X50242872Y-27592836D01*
X50034762Y-27662215D01*
X49896012Y-27731583D01*
X49618553Y-28009056D01*
X49549169Y-28147792D01*
X49549169Y-30020803D01*
X48300495Y-30020803D01*
X48300495Y-28841516D01*
X48092382Y-28633394D01*
X47884286Y-28564034D01*
X47676182Y-28425290D01*
X47398675Y-28217185D01*
X47306192Y-28147792D01*
X47121198Y-28009056D01*
X46496866Y-27384724D01*
X46219387Y-27037872D01*
X46080653Y-26829773D01*
X45941922Y-26621643D01*
X45803161Y-26413545D01*
X45664425Y-26136058D01*
X45664425Y-25997308D01*
X45456317Y-25650478D01*
X45386951Y-25442366D01*
X45317573Y-25234252D01*
X45248194Y-25026145D01*
X45178819Y-24748649D01*
X45109461Y-24332428D01*
X45109461Y-24263060D01*
X46496866Y-24263060D01*
X46566228Y-24609922D01*
X46635608Y-24887398D01*
X46774348Y-25095506D01*
X46774348Y-25234252D01*
X47051836Y-25789210D01*
X47190565Y-25927956D01*
X47259959Y-26136058D01*
X47606804Y-26552286D01*
X47953645Y-26899130D01*
X48300495Y-27176627D01*
X48508612Y-27315345D01*
X48647346Y-27384724D01*
X48855469Y-27315345D01*
X49271678Y-26829773D01*
X49687915Y-26621643D01*
X49896012Y-26552286D01*
X50104129Y-26482916D01*
X50450980Y-26413545D01*
X50728462Y-26413545D01*
X50936574Y-26344176D01*
X51144690Y-26274815D01*
X51352798Y-26205427D01*
X51907755Y-25927956D01*
X52115878Y-25789210D01*
X52462731Y-25511726D01*
X52740201Y-25234252D01*
X53087058Y-24818013D01*
X53156445Y-24609922D01*
X53295178Y-24471176D01*
X53503288Y-24054953D01*
X53572660Y-23846850D01*
X53642025Y-23638737D01*
X53711384Y-23361246D01*
X53780767Y-22945029D01*
X53711384Y-22112583D01*
X53711384Y-21835097D01*
X54058247Y-22112583D01*
X54335712Y-22667542D01*
X54405105Y-22875652D01*
X54474472Y-23222505D01*
X54474472Y-24401807D01*
X54405105Y-24748649D01*
X54335712Y-24956773D01*
X53988865Y-25650478D01*
X53850140Y-25858578D01*
X53433908Y-26274815D01*
X53295178Y-26413545D01*
X53087058Y-26621643D01*
X52878965Y-26760391D01*
X52670841Y-26829773D01*
X52532109Y-26968520D01*
X52878965Y-27315345D01*
X52948324Y-27454102D01*
X53087058Y-27384724D01*
X53225816Y-27315345D01*
X53433908Y-27176627D01*
X53850140Y-26829773D01*
X54127603Y-26552286D01*
X54405105Y-26205427D01*
X54543834Y-25997308D01*
X54682588Y-25789210D01*
X55029442Y-25095506D01*
X55098808Y-24887398D01*
X55168167Y-24609922D01*
X55237535Y-24332428D01*
X55306914Y-23708104D01*
X55306914Y-23499981D01*
X55237535Y-22875652D01*
X55168167Y-22598166D01*
X55098808Y-22320692D01*
X55029442Y-22112583D01*
X54613204Y-21280142D01*
X54474472Y-21072023D01*
X54266361Y-20794536D01*
X53711384Y-20239591D01*
X53364539Y-19962114D01*
X53156445Y-19823348D01*
X52462731Y-19476495D01*
X52254622Y-19407130D01*
X52046501Y-19337768D01*
X51769014Y-19268398D01*
X51352798Y-19199008D01*
X50450980Y-19199008D01*
X50034762Y-19268398D01*
X49687915Y-19337768D01*
X49479790Y-19407130D01*
X49271678Y-19545881D01*
X49132942Y-19545881D01*
X48716704Y-19753990D01*
X48508612Y-19892721D01*
X48300495Y-20031461D01*
X48023010Y-20239591D01*
X47537424Y-20725171D01*
X47259959Y-21072023D01*
X47121198Y-21280142D01*
X46704975Y-22112583D01*
X46635608Y-22320692D01*
X46566228Y-22598166D01*
X46496866Y-22945029D01*
X46496866Y-24263060D01*
X45109461Y-24263060D01*
X45109461Y-22945029D01*
X45109461Y-22875652D01*
X45178819Y-22459424D01*
X45248194Y-22181947D01*
X45317573Y-21904453D01*
X45386951Y-21696341D01*
X45525676Y-21488255D01*
X45525676Y-21349509D01*
X45872521Y-20655796D01*
X46011278Y-20447695D01*
X46150028Y-20239591D01*
X46358134Y-19962114D01*
X46774348Y-19476495D01*
X47329309Y-18990905D01*
X47606804Y-18782798D01*
X47814910Y-18644053D01*
X48786085Y-18158459D01*
X48994207Y-18089089D01*
X49202310Y-18019724D01*
X49410435Y-17950359D01*
X49687915Y-17880986D01*
X50104129Y-17811619D01*
X51699658Y-17811619D01*
X52115878Y-17880986D01*
G37*
G36*
X50728462Y-20170213D02*
G01*
X50797830Y-20308962D01*
X50797830Y-20517071D01*
X50659096Y-20655796D01*
X50520353Y-20725171D01*
X50242872Y-20794536D01*
X50104129Y-20794536D01*
X49896012Y-20863917D01*
X49479790Y-21072023D01*
X49271678Y-21210777D01*
X48994207Y-21418891D01*
X48786085Y-21626996D01*
X48508612Y-21973845D01*
X48369854Y-22181947D01*
X48161762Y-22598166D01*
X48092382Y-22806291D01*
X48023010Y-23083766D01*
X48023010Y-23291889D01*
X47953645Y-23430620D01*
X47814910Y-23569368D01*
X47537424Y-23569368D01*
X47398675Y-23430620D01*
X47329309Y-23291889D01*
X47329309Y-22736921D01*
X47398675Y-22459424D01*
X47468055Y-22251324D01*
X47606804Y-22043205D01*
X47606804Y-21904453D01*
X47676182Y-21765726D01*
X47814910Y-21626996D01*
X47884286Y-21418891D01*
X48231123Y-21072023D01*
X48369854Y-20933279D01*
X48647346Y-20655796D01*
X48855469Y-20586439D01*
X48994207Y-20447695D01*
X49132942Y-20378324D01*
X49341048Y-20308962D01*
X49549169Y-20239591D01*
X49757279Y-20170213D01*
X50104129Y-20100837D01*
X50589721Y-20100837D01*
X50728462Y-20170213D01*
G37*
G36*
X69319747Y-60821276D02*
G01*
X69527862Y-61029380D01*
X69597214Y-61168113D01*
X69597214Y-61792455D01*
X69458474Y-62069946D01*
X69180993Y-62347434D01*
X69042254Y-62416798D01*
X68556650Y-62416798D01*
X68348543Y-62278043D01*
X68279178Y-62139325D01*
X68209820Y-62000568D01*
X68209820Y-61376238D01*
X68348543Y-61098772D01*
X68556650Y-60890632D01*
X68764779Y-60821276D01*
X68834133Y-60751901D01*
X69111629Y-60751901D01*
X69319747Y-60821276D01*
G37*
G36*
X54751956Y-43201178D02*
G01*
X55584392Y-43270548D01*
X56347476Y-43339933D01*
X57041171Y-43409290D01*
X57596127Y-43478669D01*
X58151082Y-43548053D01*
X58636686Y-43617415D01*
X59122278Y-43686784D01*
X59607889Y-43756156D01*
X60024104Y-43825512D01*
X60370962Y-43894887D01*
X60787172Y-43964262D01*
X61203402Y-44033629D01*
X61550254Y-44102992D01*
X61897079Y-44172372D01*
X62174582Y-44241730D01*
X62452071Y-44311105D01*
X62798922Y-44380480D01*
X63076395Y-44449853D01*
X63353871Y-44519221D01*
X63631353Y-44588596D01*
X63908846Y-44657959D01*
X64116958Y-44727338D01*
X64394438Y-44796708D01*
X64602536Y-44866074D01*
X64880038Y-44935449D01*
X65088152Y-45004817D01*
X65296254Y-45074190D01*
X65504367Y-45143559D01*
X65712478Y-45212940D01*
X65920582Y-45282298D01*
X66128695Y-45351675D01*
X66336805Y-45490402D01*
X66475564Y-45490402D01*
X66822400Y-45698514D01*
X66961136Y-45698514D01*
X67099879Y-45767886D01*
X67238613Y-45906617D01*
X67446738Y-45976001D01*
X67654855Y-46114735D01*
X67862955Y-46253492D01*
X68140446Y-46461608D01*
X68626039Y-46947184D01*
X68834133Y-47224675D01*
X68972880Y-47432786D01*
X69111629Y-47640884D01*
X69389112Y-48195859D01*
X69458474Y-48403974D01*
X69527862Y-48612089D01*
X69597214Y-48889563D01*
X69666590Y-49097669D01*
X69735960Y-49444524D01*
X69805320Y-49930120D01*
X69874692Y-50693187D01*
X69874692Y-53329268D01*
X69805320Y-54092340D01*
X69735960Y-54647286D01*
X69666590Y-54994154D01*
X69597214Y-55271638D01*
X69527862Y-55479753D01*
X69250354Y-56034704D01*
X68626039Y-56659054D01*
X67932334Y-57005894D01*
X67724220Y-57075274D01*
X67446738Y-57144638D01*
X67169256Y-57214017D01*
X66891776Y-57283369D01*
X66614297Y-57352743D01*
X66336805Y-57422119D01*
X65989957Y-57491492D01*
X65712478Y-57560849D01*
X65365614Y-57630219D01*
X65018763Y-57699607D01*
X64671909Y-57768976D01*
X64255680Y-57838346D01*
X63908846Y-57907697D01*
X63423245Y-57977086D01*
X62937663Y-58046450D01*
X62521432Y-58115815D01*
X61966474Y-58185184D01*
X61480868Y-58254568D01*
X60856536Y-58323938D01*
X60301587Y-58393307D01*
X59677252Y-58462671D01*
X58914168Y-58532045D01*
X58081730Y-58601407D01*
X57179916Y-58670781D01*
X56139355Y-58740167D01*
X54821322Y-58809533D01*
X52393360Y-58878886D01*
X49341048Y-58878886D01*
X47051836Y-58809533D01*
X45664425Y-58740167D01*
X44554499Y-58670781D01*
X43652680Y-58601407D01*
X42681502Y-58532045D01*
X41987781Y-58462671D01*
X41363445Y-58393307D01*
X40739129Y-58323938D01*
X40184164Y-58254568D01*
X39629192Y-58185184D01*
X39143599Y-58115815D01*
X38658005Y-58046450D01*
X38241798Y-57977086D01*
X37756193Y-57907697D01*
X37409355Y-57838346D01*
X37062499Y-57768976D01*
X36646284Y-57699607D01*
X36299411Y-57630219D01*
X35952559Y-57560849D01*
X35675088Y-57491492D01*
X35397599Y-57422119D01*
X35050758Y-57352743D01*
X34773269Y-57283369D01*
X34495790Y-57214017D01*
X34218292Y-57144638D01*
X33940815Y-57075274D01*
X33732715Y-57005894D01*
X33177736Y-56728421D01*
X32969630Y-56589673D01*
X32484045Y-56104082D01*
X32345315Y-55895978D01*
X32137196Y-55479753D01*
X32067808Y-55271638D01*
X31998456Y-54994154D01*
X31929078Y-54647286D01*
X31919171Y-54577939D01*
X38380532Y-54577939D01*
X38449896Y-54786041D01*
X38519275Y-54924785D01*
X38727379Y-55132902D01*
X38935497Y-55202272D01*
X39212973Y-55271638D01*
X39559828Y-55341006D01*
X39698588Y-55271638D01*
X39837316Y-55132902D01*
X39906683Y-54716667D01*
X39906683Y-54022978D01*
X39976036Y-53606752D01*
X40045416Y-53329268D01*
X40114798Y-53051781D01*
X40184164Y-52843668D01*
X40253532Y-52635553D01*
X40392268Y-52427448D01*
X40392268Y-52288697D01*
X40600379Y-51872485D01*
X40739129Y-51733745D01*
X40808498Y-51525629D01*
X41085975Y-51178780D01*
X41224707Y-51040047D01*
X41502192Y-50831928D01*
X41918418Y-50623814D01*
X42195904Y-50554447D01*
X42820235Y-50554447D01*
X43097722Y-50623814D01*
X43375197Y-50762566D01*
X43583311Y-50901302D01*
X44207640Y-51525629D01*
X44346388Y-51733745D01*
X44485123Y-52080582D01*
X44623868Y-52219332D01*
X44762595Y-52496814D01*
X44831986Y-52704935D01*
X44901356Y-52913041D01*
X44970723Y-53121167D01*
X45040099Y-53329268D01*
X45109461Y-53606752D01*
X45178819Y-53884233D01*
X45248194Y-54300463D01*
X45317573Y-54786041D01*
X45317573Y-55479753D01*
X45386951Y-55618488D01*
X45595055Y-55687854D01*
X45733800Y-55549134D01*
X45803161Y-55341006D01*
X45872521Y-54924785D01*
X45941922Y-54092340D01*
X45941922Y-53953602D01*
X55723148Y-53953602D01*
X55792508Y-54855412D01*
X55861870Y-55271638D01*
X55931240Y-55479753D01*
X56000615Y-55618488D01*
X56208717Y-55687854D01*
X56347476Y-55549134D01*
X56416851Y-54994154D01*
X56416851Y-54439191D01*
X56486206Y-54022978D01*
X56555571Y-53676119D01*
X56624947Y-53398622D01*
X56694318Y-53190522D01*
X56763684Y-52982416D01*
X56833075Y-52774289D01*
X56902431Y-52566186D01*
X57249279Y-51872485D01*
X57388029Y-51664383D01*
X57526766Y-51456266D01*
X58012357Y-50970671D01*
X58220476Y-50831928D01*
X58428580Y-50693187D01*
X58636686Y-50623814D01*
X58844788Y-50554447D01*
X59538511Y-50554447D01*
X59815976Y-50623814D01*
X60093472Y-50762566D01*
X60301587Y-50901302D01*
X60787172Y-51386891D01*
X60925911Y-51595000D01*
X61064654Y-51803133D01*
X61342138Y-52358080D01*
X61411493Y-52566186D01*
X61480868Y-52774289D01*
X61550254Y-52982416D01*
X61619634Y-53190522D01*
X61688987Y-53468007D01*
X61758354Y-53884233D01*
X61827731Y-54439191D01*
X61827731Y-55132902D01*
X61966474Y-55271638D01*
X62521432Y-55271638D01*
X62798922Y-55202272D01*
X62937663Y-55132902D01*
X63215138Y-54855412D01*
X63284517Y-54716667D01*
X63284517Y-53190522D01*
X63215138Y-52635553D01*
X63145774Y-52219332D01*
X63076395Y-51872485D01*
X63007019Y-51525629D01*
X62937663Y-51317529D01*
X62868291Y-51109416D01*
X62798922Y-50901302D01*
X62729554Y-50693187D01*
X62243954Y-49722008D01*
X62105213Y-49583248D01*
X62035842Y-49375142D01*
X61758354Y-49028303D01*
X61203402Y-48473330D01*
X60925911Y-48265210D01*
X60717800Y-48126495D01*
X60579076Y-48057111D01*
X60440321Y-48057111D01*
X60232225Y-47918362D01*
X60024104Y-47848990D01*
X59746622Y-47779643D01*
X59122278Y-47779643D01*
X58775435Y-47848990D01*
X58567314Y-47918362D01*
X58012357Y-48195859D01*
X57804242Y-48334605D01*
X57110547Y-49028303D01*
X56902431Y-49305783D01*
X56763684Y-49513890D01*
X56624947Y-49722008D01*
X56347476Y-50276972D01*
X56347476Y-50415707D01*
X56208717Y-50623814D01*
X56139355Y-50831928D01*
X56069993Y-51040047D01*
X56000615Y-51317529D01*
X55931240Y-51595000D01*
X55861870Y-51941859D01*
X55792508Y-52358080D01*
X55723148Y-53259899D01*
X55723148Y-53953602D01*
X45941922Y-53953602D01*
X45941922Y-53259899D01*
X45941922Y-53121167D01*
X45872521Y-52288697D01*
X45803161Y-51872485D01*
X45733800Y-51525629D01*
X45664425Y-51248144D01*
X45595055Y-50970671D01*
X45525676Y-50762566D01*
X45456317Y-50554447D01*
X44901356Y-49444524D01*
X44762595Y-49236414D01*
X44415754Y-48820195D01*
X44138279Y-48542704D01*
X43791428Y-48265210D01*
X43583311Y-48126495D01*
X43305838Y-47987746D01*
X43167090Y-47987746D01*
X42958984Y-47848990D01*
X42612129Y-47779643D01*
X41987781Y-47779643D01*
X41710310Y-47848990D01*
X41502192Y-47918362D01*
X41294083Y-47987746D01*
X40877870Y-48195859D01*
X40600379Y-48403974D01*
X39837316Y-49167036D01*
X39629192Y-49444524D01*
X39490457Y-49652651D01*
X39004854Y-50623814D01*
X39004854Y-50762566D01*
X38866116Y-50970671D01*
X38796748Y-51248144D01*
X38727379Y-51456266D01*
X38658005Y-51664383D01*
X38588651Y-52011233D01*
X38519275Y-52358080D01*
X38449896Y-52843668D01*
X38380532Y-53468007D01*
X38380532Y-54577939D01*
X31919171Y-54577939D01*
X31859710Y-54161723D01*
X31796644Y-53468007D01*
X31790350Y-53398622D01*
X31790350Y-50693187D01*
X31859710Y-49999487D01*
X31929078Y-49513890D01*
X31998456Y-49167036D01*
X32067808Y-48889563D01*
X32137196Y-48681456D01*
X32206558Y-48473330D01*
X32275923Y-48265210D01*
X32692143Y-47432786D01*
X32900273Y-47155309D01*
X33802092Y-46253492D01*
X34010216Y-46114735D01*
X34218292Y-45976001D01*
X35050758Y-45559783D01*
X35189490Y-45559783D01*
X35397599Y-45421034D01*
X35605713Y-45351675D01*
X35744446Y-45351675D01*
X35952559Y-45212940D01*
X36160682Y-45143559D01*
X36368801Y-45074190D01*
X36646284Y-45004817D01*
X36854389Y-44935449D01*
X37062499Y-44866074D01*
X37270602Y-44796708D01*
X37548084Y-44727338D01*
X37825566Y-44657959D01*
X38103043Y-44588596D01*
X38311153Y-44519221D01*
X38588651Y-44449853D01*
X38935497Y-44380480D01*
X39212973Y-44311105D01*
X39559828Y-44241730D01*
X39906683Y-44172372D01*
X40184164Y-44102992D01*
X40600379Y-44033629D01*
X40947231Y-44033629D01*
X41363445Y-43894887D01*
X41710310Y-43825512D01*
X42195904Y-43756156D01*
X42681502Y-43686784D01*
X43097722Y-43617415D01*
X43583311Y-43548053D01*
X44138279Y-43478669D01*
X44762595Y-43409290D01*
X45456317Y-43339933D01*
X46150028Y-43270548D01*
X47051836Y-43201178D01*
X48231123Y-43131810D01*
X53364539Y-43131810D01*
X54751956Y-43201178D01*
G37*
G36*
X61827731Y-60196939D02*
G01*
X62105213Y-60474412D01*
X62105213Y-60821276D01*
X62035842Y-61098772D01*
X61966474Y-61306878D01*
X61897079Y-61514953D01*
X61758354Y-61723078D01*
X61758354Y-61861834D01*
X61688987Y-62069946D01*
X61272774Y-62902384D01*
X61134020Y-63041125D01*
X61064654Y-63249241D01*
X60925911Y-63457365D01*
X60787172Y-63665460D01*
X60648439Y-63873561D01*
X60370962Y-64220421D01*
X60024104Y-64636657D01*
X59261023Y-65399716D01*
X58844788Y-65746567D01*
X58497948Y-66024050D01*
X58289832Y-66162777D01*
X58081730Y-66301530D01*
X57873634Y-66440270D01*
X57665500Y-66579017D01*
X57318643Y-66717747D01*
X57179916Y-66856489D01*
X57041171Y-66856489D01*
X56416851Y-67203346D01*
X56278093Y-67203346D01*
X55931240Y-67411465D01*
X55723148Y-67480825D01*
X55515017Y-67550217D01*
X55306914Y-67619571D01*
X55029442Y-67688937D01*
X54821322Y-67758329D01*
X54474472Y-67827679D01*
X54127603Y-67897048D01*
X53711384Y-67966415D01*
X53225816Y-68035779D01*
X51075314Y-68035779D01*
X50659096Y-67966415D01*
X50242872Y-67897048D01*
X49896012Y-67827679D01*
X49618553Y-67758329D01*
X49341048Y-67688937D01*
X49132942Y-67619571D01*
X48924825Y-67550217D01*
X48716704Y-67411465D01*
X48577986Y-67411465D01*
X48369854Y-67272724D01*
X48231123Y-67272724D01*
X47398675Y-66856489D01*
X47190565Y-66717747D01*
X46982466Y-66579017D01*
X46774348Y-66440270D01*
X46566228Y-66301530D01*
X46288756Y-66093424D01*
X45803161Y-65677202D01*
X45040099Y-64914137D01*
X44693242Y-64497895D01*
X44485123Y-64220421D01*
X44277027Y-63942944D01*
X44138279Y-63734817D01*
X43999541Y-63526712D01*
X43930170Y-63318612D01*
X43791428Y-63179856D01*
X43583311Y-62694276D01*
X43444588Y-62555539D01*
X43375197Y-62416798D01*
X43375197Y-62278043D01*
X46982466Y-62278043D01*
X47121198Y-62694276D01*
X47676182Y-63249241D01*
X48023010Y-63526712D01*
X48231123Y-63665460D01*
X48924825Y-64012304D01*
X49132942Y-64081690D01*
X49341048Y-64151050D01*
X49549169Y-64220421D01*
X49896012Y-64289770D01*
X50312230Y-64359164D01*
X50797830Y-64428525D01*
X51630283Y-64497895D01*
X53503288Y-64497895D01*
X54474472Y-64428525D01*
X55098808Y-64359164D01*
X55584392Y-64289770D01*
X56000615Y-64220421D01*
X56416851Y-64151050D01*
X56763684Y-64081690D01*
X57041171Y-64012304D01*
X57318643Y-63942944D01*
X57596127Y-63873561D01*
X57804242Y-63804192D01*
X58081730Y-63734817D01*
X58289832Y-63665460D01*
X58497948Y-63596092D01*
X58844788Y-63387974D01*
X58983541Y-63387974D01*
X59399766Y-63179856D01*
X59607889Y-63041125D01*
X59815976Y-62902384D01*
X60440321Y-62278043D01*
X60648439Y-61861834D01*
X60648439Y-61723078D01*
X60787172Y-61514953D01*
X60717800Y-61237485D01*
X60370962Y-61306878D01*
X59954735Y-61376238D01*
X59607889Y-61445611D01*
X59261023Y-61584356D01*
X58844788Y-61653718D01*
X58428580Y-61723078D01*
X58012357Y-61792455D01*
X57596127Y-61861834D01*
X57249279Y-61931204D01*
X56694318Y-62000568D01*
X56208717Y-62069946D01*
X55653748Y-62139325D01*
X55029442Y-62208677D01*
X54266361Y-62278043D01*
X53295178Y-62347434D01*
X51907755Y-62416798D01*
X48855469Y-62416798D01*
X47468055Y-62278043D01*
X46982466Y-62278043D01*
X43375197Y-62278043D01*
X43097722Y-61792455D01*
X43028356Y-61584356D01*
X42958984Y-61376238D01*
X42958984Y-61168113D01*
X43236473Y-60890632D01*
X43722036Y-60890632D01*
X44068904Y-60960001D01*
X44554499Y-61098772D01*
X44970723Y-61168113D01*
X45525676Y-61237485D01*
X46011278Y-61306878D01*
X46704975Y-61376238D01*
X47606804Y-61445611D01*
X49271678Y-61514953D01*
X51630283Y-61514953D01*
X53225816Y-61445611D01*
X54127603Y-61376238D01*
X54890695Y-61306878D01*
X55445642Y-61237485D01*
X56069993Y-61168113D01*
X56555571Y-61098772D01*
X57041171Y-61029380D01*
X57457393Y-60960001D01*
X57942990Y-60890632D01*
X58359197Y-60821276D01*
X58775435Y-60751901D01*
X59122278Y-60682524D01*
X59469128Y-60613151D01*
X59815976Y-60543798D01*
X60232225Y-60474412D01*
X60579076Y-60405056D01*
X60925911Y-60266306D01*
X61272774Y-60196939D01*
X61619634Y-60127570D01*
X61827731Y-60196939D01*
G37*
D13*
X20772480Y-13809934D02*
X20601052Y-13643267D01*
X20601052Y-13643267D02*
X20343909Y-13643267D01*
X20343909Y-13643267D02*
X20086766Y-13809934D01*
X20086766Y-13809934D02*
X19915337Y-14143267D01*
X19915337Y-14143267D02*
X19829623Y-14476601D01*
X19829623Y-14476601D02*
X19743909Y-15143267D01*
X19743909Y-15143267D02*
X19743909Y-15643267D01*
X19743909Y-15643267D02*
X19829623Y-16309934D01*
X19829623Y-16309934D02*
X19915337Y-16643267D01*
X19915337Y-16643267D02*
X20086766Y-16976601D01*
X20086766Y-16976601D02*
X20343909Y-17143267D01*
X20343909Y-17143267D02*
X20515337Y-17143267D01*
X20515337Y-17143267D02*
X20772480Y-16976601D01*
X20772480Y-16976601D02*
X20858194Y-16809934D01*
X20858194Y-16809934D02*
X20858194Y-15643267D01*
X20858194Y-15643267D02*
X20515337Y-15643267D01*
X21972480Y-13643267D02*
X22315337Y-13643267D01*
X22315337Y-13643267D02*
X22486766Y-13809934D01*
X22486766Y-13809934D02*
X22658194Y-14143267D01*
X22658194Y-14143267D02*
X22743909Y-14809934D01*
X22743909Y-14809934D02*
X22743909Y-15976601D01*
X22743909Y-15976601D02*
X22658194Y-16643267D01*
X22658194Y-16643267D02*
X22486766Y-16976601D01*
X22486766Y-16976601D02*
X22315337Y-17143267D01*
X22315337Y-17143267D02*
X21972480Y-17143267D01*
X21972480Y-17143267D02*
X21801052Y-16976601D01*
X21801052Y-16976601D02*
X21629623Y-16643267D01*
X21629623Y-16643267D02*
X21543909Y-15976601D01*
X21543909Y-15976601D02*
X21543909Y-14809934D01*
X21543909Y-14809934D02*
X21629623Y-14143267D01*
X21629623Y-14143267D02*
X21801052Y-13809934D01*
X21801052Y-13809934D02*
X21972480Y-13643267D01*
X23858194Y-13643267D02*
X24201051Y-13643267D01*
X24201051Y-13643267D02*
X24372480Y-13809934D01*
X24372480Y-13809934D02*
X24543908Y-14143267D01*
X24543908Y-14143267D02*
X24629623Y-14809934D01*
X24629623Y-14809934D02*
X24629623Y-15976601D01*
X24629623Y-15976601D02*
X24543908Y-16643267D01*
X24543908Y-16643267D02*
X24372480Y-16976601D01*
X24372480Y-16976601D02*
X24201051Y-17143267D01*
X24201051Y-17143267D02*
X23858194Y-17143267D01*
X23858194Y-17143267D02*
X23686766Y-16976601D01*
X23686766Y-16976601D02*
X23515337Y-16643267D01*
X23515337Y-16643267D02*
X23429623Y-15976601D01*
X23429623Y-15976601D02*
X23429623Y-14809934D01*
X23429623Y-14809934D02*
X23515337Y-14143267D01*
X23515337Y-14143267D02*
X23686766Y-13809934D01*
X23686766Y-13809934D02*
X23858194Y-13643267D01*
X25401051Y-17143267D02*
X25401051Y-13643267D01*
X25401051Y-13643267D02*
X25829622Y-13643267D01*
X25829622Y-13643267D02*
X26086765Y-13809934D01*
X26086765Y-13809934D02*
X26258194Y-14143267D01*
X26258194Y-14143267D02*
X26343908Y-14476601D01*
X26343908Y-14476601D02*
X26429622Y-15143267D01*
X26429622Y-15143267D02*
X26429622Y-15643267D01*
X26429622Y-15643267D02*
X26343908Y-16309934D01*
X26343908Y-16309934D02*
X26258194Y-16643267D01*
X26258194Y-16643267D02*
X26086765Y-16976601D01*
X26086765Y-16976601D02*
X25829622Y-17143267D01*
X25829622Y-17143267D02*
X25401051Y-17143267D01*
X28315337Y-13643267D02*
X29343909Y-13643267D01*
X28829623Y-17143267D02*
X28829623Y-13643267D01*
X29943909Y-17143267D02*
X29943909Y-13643267D01*
X30801052Y-17143267D02*
X30801052Y-13643267D01*
X30801052Y-13643267D02*
X31401052Y-16143267D01*
X31401052Y-16143267D02*
X32001052Y-13643267D01*
X32001052Y-13643267D02*
X32001052Y-17143267D01*
X32858195Y-15309934D02*
X33458195Y-15309934D01*
X33715338Y-17143267D02*
X32858195Y-17143267D01*
X32858195Y-17143267D02*
X32858195Y-13643267D01*
X32858195Y-13643267D02*
X33715338Y-13643267D01*
X36886766Y-17143267D02*
X36286766Y-15476601D01*
X35858195Y-17143267D02*
X35858195Y-13643267D01*
X35858195Y-13643267D02*
X36543909Y-13643267D01*
X36543909Y-13643267D02*
X36715338Y-13809934D01*
X36715338Y-13809934D02*
X36801052Y-13976601D01*
X36801052Y-13976601D02*
X36886766Y-14309934D01*
X36886766Y-14309934D02*
X36886766Y-14809934D01*
X36886766Y-14809934D02*
X36801052Y-15143267D01*
X36801052Y-15143267D02*
X36715338Y-15309934D01*
X36715338Y-15309934D02*
X36543909Y-15476601D01*
X36543909Y-15476601D02*
X35858195Y-15476601D01*
X38001052Y-13643267D02*
X38343909Y-13643267D01*
X38343909Y-13643267D02*
X38515338Y-13809934D01*
X38515338Y-13809934D02*
X38686766Y-14143267D01*
X38686766Y-14143267D02*
X38772481Y-14809934D01*
X38772481Y-14809934D02*
X38772481Y-15976601D01*
X38772481Y-15976601D02*
X38686766Y-16643267D01*
X38686766Y-16643267D02*
X38515338Y-16976601D01*
X38515338Y-16976601D02*
X38343909Y-17143267D01*
X38343909Y-17143267D02*
X38001052Y-17143267D01*
X38001052Y-17143267D02*
X37829624Y-16976601D01*
X37829624Y-16976601D02*
X37658195Y-16643267D01*
X37658195Y-16643267D02*
X37572481Y-15976601D01*
X37572481Y-15976601D02*
X37572481Y-14809934D01*
X37572481Y-14809934D02*
X37658195Y-14143267D01*
X37658195Y-14143267D02*
X37829624Y-13809934D01*
X37829624Y-13809934D02*
X38001052Y-13643267D01*
X40143909Y-15309934D02*
X40401052Y-15476601D01*
X40401052Y-15476601D02*
X40486766Y-15643267D01*
X40486766Y-15643267D02*
X40572480Y-15976601D01*
X40572480Y-15976601D02*
X40572480Y-16476601D01*
X40572480Y-16476601D02*
X40486766Y-16809934D01*
X40486766Y-16809934D02*
X40401052Y-16976601D01*
X40401052Y-16976601D02*
X40229623Y-17143267D01*
X40229623Y-17143267D02*
X39543909Y-17143267D01*
X39543909Y-17143267D02*
X39543909Y-13643267D01*
X39543909Y-13643267D02*
X40143909Y-13643267D01*
X40143909Y-13643267D02*
X40315338Y-13809934D01*
X40315338Y-13809934D02*
X40401052Y-13976601D01*
X40401052Y-13976601D02*
X40486766Y-14309934D01*
X40486766Y-14309934D02*
X40486766Y-14643267D01*
X40486766Y-14643267D02*
X40401052Y-14976601D01*
X40401052Y-14976601D02*
X40315338Y-15143267D01*
X40315338Y-15143267D02*
X40143909Y-15309934D01*
X40143909Y-15309934D02*
X39543909Y-15309934D01*
X41686766Y-13643267D02*
X42029623Y-13643267D01*
X42029623Y-13643267D02*
X42201052Y-13809934D01*
X42201052Y-13809934D02*
X42372480Y-14143267D01*
X42372480Y-14143267D02*
X42458195Y-14809934D01*
X42458195Y-14809934D02*
X42458195Y-15976601D01*
X42458195Y-15976601D02*
X42372480Y-16643267D01*
X42372480Y-16643267D02*
X42201052Y-16976601D01*
X42201052Y-16976601D02*
X42029623Y-17143267D01*
X42029623Y-17143267D02*
X41686766Y-17143267D01*
X41686766Y-17143267D02*
X41515338Y-16976601D01*
X41515338Y-16976601D02*
X41343909Y-16643267D01*
X41343909Y-16643267D02*
X41258195Y-15976601D01*
X41258195Y-15976601D02*
X41258195Y-14809934D01*
X41258195Y-14809934D02*
X41343909Y-14143267D01*
X41343909Y-14143267D02*
X41515338Y-13809934D01*
X41515338Y-13809934D02*
X41686766Y-13643267D01*
X42972480Y-13643267D02*
X44001052Y-13643267D01*
X43486766Y-17143267D02*
X43486766Y-13643267D01*
X44601052Y-17143267D02*
X44601052Y-13643267D01*
X46486766Y-16809934D02*
X46401052Y-16976601D01*
X46401052Y-16976601D02*
X46143909Y-17143267D01*
X46143909Y-17143267D02*
X45972481Y-17143267D01*
X45972481Y-17143267D02*
X45715338Y-16976601D01*
X45715338Y-16976601D02*
X45543909Y-16643267D01*
X45543909Y-16643267D02*
X45458195Y-16309934D01*
X45458195Y-16309934D02*
X45372481Y-15643267D01*
X45372481Y-15643267D02*
X45372481Y-15143267D01*
X45372481Y-15143267D02*
X45458195Y-14476601D01*
X45458195Y-14476601D02*
X45543909Y-14143267D01*
X45543909Y-14143267D02*
X45715338Y-13809934D01*
X45715338Y-13809934D02*
X45972481Y-13643267D01*
X45972481Y-13643267D02*
X46143909Y-13643267D01*
X46143909Y-13643267D02*
X46401052Y-13809934D01*
X46401052Y-13809934D02*
X46486766Y-13976601D01*
X47172481Y-16976601D02*
X47429624Y-17143267D01*
X47429624Y-17143267D02*
X47858195Y-17143267D01*
X47858195Y-17143267D02*
X48029624Y-16976601D01*
X48029624Y-16976601D02*
X48115338Y-16809934D01*
X48115338Y-16809934D02*
X48201052Y-16476601D01*
X48201052Y-16476601D02*
X48201052Y-16143267D01*
X48201052Y-16143267D02*
X48115338Y-15809934D01*
X48115338Y-15809934D02*
X48029624Y-15643267D01*
X48029624Y-15643267D02*
X47858195Y-15476601D01*
X47858195Y-15476601D02*
X47515338Y-15309934D01*
X47515338Y-15309934D02*
X47343909Y-15143267D01*
X47343909Y-15143267D02*
X47258195Y-14976601D01*
X47258195Y-14976601D02*
X47172481Y-14643267D01*
X47172481Y-14643267D02*
X47172481Y-14309934D01*
X47172481Y-14309934D02*
X47258195Y-13976601D01*
X47258195Y-13976601D02*
X47343909Y-13809934D01*
X47343909Y-13809934D02*
X47515338Y-13643267D01*
X47515338Y-13643267D02*
X47943909Y-13643267D01*
X47943909Y-13643267D02*
X48201052Y-13809934D01*
D10*
X20573543Y-67044580D02*
X20525924Y-67092200D01*
X20525924Y-67092200D02*
X20383067Y-67139819D01*
X20383067Y-67139819D02*
X20287829Y-67139819D01*
X20287829Y-67139819D02*
X20144972Y-67092200D01*
X20144972Y-67092200D02*
X20049734Y-66996961D01*
X20049734Y-66996961D02*
X20002115Y-66901723D01*
X20002115Y-66901723D02*
X19954496Y-66711247D01*
X19954496Y-66711247D02*
X19954496Y-66568390D01*
X19954496Y-66568390D02*
X20002115Y-66377914D01*
X20002115Y-66377914D02*
X20049734Y-66282676D01*
X20049734Y-66282676D02*
X20144972Y-66187438D01*
X20144972Y-66187438D02*
X20287829Y-66139819D01*
X20287829Y-66139819D02*
X20383067Y-66139819D01*
X20383067Y-66139819D02*
X20525924Y-66187438D01*
X20525924Y-66187438D02*
X20573543Y-66235057D01*
X20954496Y-66235057D02*
X21002115Y-66187438D01*
X21002115Y-66187438D02*
X21097353Y-66139819D01*
X21097353Y-66139819D02*
X21335448Y-66139819D01*
X21335448Y-66139819D02*
X21430686Y-66187438D01*
X21430686Y-66187438D02*
X21478305Y-66235057D01*
X21478305Y-66235057D02*
X21525924Y-66330295D01*
X21525924Y-66330295D02*
X21525924Y-66425533D01*
X21525924Y-66425533D02*
X21478305Y-66568390D01*
X21478305Y-66568390D02*
X20906877Y-67139819D01*
X20906877Y-67139819D02*
X21525924Y-67139819D01*
X54695029Y-60851666D02*
X54218838Y-61184999D01*
X54695029Y-61423094D02*
X53695029Y-61423094D01*
X53695029Y-61423094D02*
X53695029Y-61042142D01*
X53695029Y-61042142D02*
X53742648Y-60946904D01*
X53742648Y-60946904D02*
X53790267Y-60899285D01*
X53790267Y-60899285D02*
X53885505Y-60851666D01*
X53885505Y-60851666D02*
X54028362Y-60851666D01*
X54028362Y-60851666D02*
X54123600Y-60899285D01*
X54123600Y-60899285D02*
X54171219Y-60946904D01*
X54171219Y-60946904D02*
X54218838Y-61042142D01*
X54218838Y-61042142D02*
X54218838Y-61423094D01*
X53695029Y-59946904D02*
X53695029Y-60423094D01*
X53695029Y-60423094D02*
X54171219Y-60470713D01*
X54171219Y-60470713D02*
X54123600Y-60423094D01*
X54123600Y-60423094D02*
X54075981Y-60327856D01*
X54075981Y-60327856D02*
X54075981Y-60089761D01*
X54075981Y-60089761D02*
X54123600Y-59994523D01*
X54123600Y-59994523D02*
X54171219Y-59946904D01*
X54171219Y-59946904D02*
X54266457Y-59899285D01*
X54266457Y-59899285D02*
X54504552Y-59899285D01*
X54504552Y-59899285D02*
X54599790Y-59946904D01*
X54599790Y-59946904D02*
X54647410Y-59994523D01*
X54647410Y-59994523D02*
X54695029Y-60089761D01*
X54695029Y-60089761D02*
X54695029Y-60327856D01*
X54695029Y-60327856D02*
X54647410Y-60423094D01*
X54647410Y-60423094D02*
X54599790Y-60470713D01*
X52573543Y-41139819D02*
X52240210Y-40663628D01*
X52002115Y-41139819D02*
X52002115Y-40139819D01*
X52002115Y-40139819D02*
X52383067Y-40139819D01*
X52383067Y-40139819D02*
X52478305Y-40187438D01*
X52478305Y-40187438D02*
X52525924Y-40235057D01*
X52525924Y-40235057D02*
X52573543Y-40330295D01*
X52573543Y-40330295D02*
X52573543Y-40473152D01*
X52573543Y-40473152D02*
X52525924Y-40568390D01*
X52525924Y-40568390D02*
X52478305Y-40616009D01*
X52478305Y-40616009D02*
X52383067Y-40663628D01*
X52383067Y-40663628D02*
X52002115Y-40663628D01*
X52906877Y-40139819D02*
X53525924Y-40139819D01*
X53525924Y-40139819D02*
X53192591Y-40520771D01*
X53192591Y-40520771D02*
X53335448Y-40520771D01*
X53335448Y-40520771D02*
X53430686Y-40568390D01*
X53430686Y-40568390D02*
X53478305Y-40616009D01*
X53478305Y-40616009D02*
X53525924Y-40711247D01*
X53525924Y-40711247D02*
X53525924Y-40949342D01*
X53525924Y-40949342D02*
X53478305Y-41044580D01*
X53478305Y-41044580D02*
X53430686Y-41092200D01*
X53430686Y-41092200D02*
X53335448Y-41139819D01*
X53335448Y-41139819D02*
X53049734Y-41139819D01*
X53049734Y-41139819D02*
X52954496Y-41092200D01*
X52954496Y-41092200D02*
X52906877Y-41044580D01*
X14486666Y-63594819D02*
X14153333Y-63118628D01*
X13915238Y-63594819D02*
X13915238Y-62594819D01*
X13915238Y-62594819D02*
X14296190Y-62594819D01*
X14296190Y-62594819D02*
X14391428Y-62642438D01*
X14391428Y-62642438D02*
X14439047Y-62690057D01*
X14439047Y-62690057D02*
X14486666Y-62785295D01*
X14486666Y-62785295D02*
X14486666Y-62928152D01*
X14486666Y-62928152D02*
X14439047Y-63023390D01*
X14439047Y-63023390D02*
X14391428Y-63071009D01*
X14391428Y-63071009D02*
X14296190Y-63118628D01*
X14296190Y-63118628D02*
X13915238Y-63118628D01*
X14915238Y-63071009D02*
X15248571Y-63071009D01*
X15391428Y-63594819D02*
X14915238Y-63594819D01*
X14915238Y-63594819D02*
X14915238Y-62594819D01*
X14915238Y-62594819D02*
X15391428Y-62594819D01*
X16153333Y-63071009D02*
X15820000Y-63071009D01*
X15820000Y-63594819D02*
X15820000Y-62594819D01*
X15820000Y-62594819D02*
X16296190Y-62594819D01*
X16820000Y-62594819D02*
X16820000Y-62832914D01*
X16581905Y-62737676D02*
X16820000Y-62832914D01*
X16820000Y-62832914D02*
X17058095Y-62737676D01*
X16677143Y-63023390D02*
X16820000Y-62832914D01*
X16820000Y-62832914D02*
X16962857Y-63023390D01*
X17581905Y-62594819D02*
X17581905Y-62832914D01*
X17343810Y-62737676D02*
X17581905Y-62832914D01*
X17581905Y-62832914D02*
X17820000Y-62737676D01*
X17439048Y-63023390D02*
X17581905Y-62832914D01*
X17581905Y-62832914D02*
X17724762Y-63023390D01*
X21573543Y-41639819D02*
X21240210Y-41163628D01*
X21002115Y-41639819D02*
X21002115Y-40639819D01*
X21002115Y-40639819D02*
X21383067Y-40639819D01*
X21383067Y-40639819D02*
X21478305Y-40687438D01*
X21478305Y-40687438D02*
X21525924Y-40735057D01*
X21525924Y-40735057D02*
X21573543Y-40830295D01*
X21573543Y-40830295D02*
X21573543Y-40973152D01*
X21573543Y-40973152D02*
X21525924Y-41068390D01*
X21525924Y-41068390D02*
X21478305Y-41116009D01*
X21478305Y-41116009D02*
X21383067Y-41163628D01*
X21383067Y-41163628D02*
X21002115Y-41163628D01*
X21906877Y-40639819D02*
X22573543Y-40639819D01*
X22573543Y-40639819D02*
X22144972Y-41639819D01*
X36478305Y-59139819D02*
X36478305Y-59949342D01*
X36478305Y-59949342D02*
X36525924Y-60044580D01*
X36525924Y-60044580D02*
X36573543Y-60092200D01*
X36573543Y-60092200D02*
X36668781Y-60139819D01*
X36668781Y-60139819D02*
X36859257Y-60139819D01*
X36859257Y-60139819D02*
X36954495Y-60092200D01*
X36954495Y-60092200D02*
X37002114Y-60044580D01*
X37002114Y-60044580D02*
X37049733Y-59949342D01*
X37049733Y-59949342D02*
X37049733Y-59139819D01*
X37478305Y-59235057D02*
X37525924Y-59187438D01*
X37525924Y-59187438D02*
X37621162Y-59139819D01*
X37621162Y-59139819D02*
X37859257Y-59139819D01*
X37859257Y-59139819D02*
X37954495Y-59187438D01*
X37954495Y-59187438D02*
X38002114Y-59235057D01*
X38002114Y-59235057D02*
X38049733Y-59330295D01*
X38049733Y-59330295D02*
X38049733Y-59425533D01*
X38049733Y-59425533D02*
X38002114Y-59568390D01*
X38002114Y-59568390D02*
X37430686Y-60139819D01*
X37430686Y-60139819D02*
X38049733Y-60139819D01*
X21573543Y-38139819D02*
X21240210Y-37663628D01*
X21002115Y-38139819D02*
X21002115Y-37139819D01*
X21002115Y-37139819D02*
X21383067Y-37139819D01*
X21383067Y-37139819D02*
X21478305Y-37187438D01*
X21478305Y-37187438D02*
X21525924Y-37235057D01*
X21525924Y-37235057D02*
X21573543Y-37330295D01*
X21573543Y-37330295D02*
X21573543Y-37473152D01*
X21573543Y-37473152D02*
X21525924Y-37568390D01*
X21525924Y-37568390D02*
X21478305Y-37616009D01*
X21478305Y-37616009D02*
X21383067Y-37663628D01*
X21383067Y-37663628D02*
X21002115Y-37663628D01*
X21954496Y-37235057D02*
X22002115Y-37187438D01*
X22002115Y-37187438D02*
X22097353Y-37139819D01*
X22097353Y-37139819D02*
X22335448Y-37139819D01*
X22335448Y-37139819D02*
X22430686Y-37187438D01*
X22430686Y-37187438D02*
X22478305Y-37235057D01*
X22478305Y-37235057D02*
X22525924Y-37330295D01*
X22525924Y-37330295D02*
X22525924Y-37425533D01*
X22525924Y-37425533D02*
X22478305Y-37568390D01*
X22478305Y-37568390D02*
X21906877Y-38139819D01*
X21906877Y-38139819D02*
X22525924Y-38139819D01*
X49073543Y-61139819D02*
X48740210Y-60663628D01*
X48502115Y-61139819D02*
X48502115Y-60139819D01*
X48502115Y-60139819D02*
X48883067Y-60139819D01*
X48883067Y-60139819D02*
X48978305Y-60187438D01*
X48978305Y-60187438D02*
X49025924Y-60235057D01*
X49025924Y-60235057D02*
X49073543Y-60330295D01*
X49073543Y-60330295D02*
X49073543Y-60473152D01*
X49073543Y-60473152D02*
X49025924Y-60568390D01*
X49025924Y-60568390D02*
X48978305Y-60616009D01*
X48978305Y-60616009D02*
X48883067Y-60663628D01*
X48883067Y-60663628D02*
X48502115Y-60663628D01*
X49930686Y-60139819D02*
X49740210Y-60139819D01*
X49740210Y-60139819D02*
X49644972Y-60187438D01*
X49644972Y-60187438D02*
X49597353Y-60235057D01*
X49597353Y-60235057D02*
X49502115Y-60377914D01*
X49502115Y-60377914D02*
X49454496Y-60568390D01*
X49454496Y-60568390D02*
X49454496Y-60949342D01*
X49454496Y-60949342D02*
X49502115Y-61044580D01*
X49502115Y-61044580D02*
X49549734Y-61092200D01*
X49549734Y-61092200D02*
X49644972Y-61139819D01*
X49644972Y-61139819D02*
X49835448Y-61139819D01*
X49835448Y-61139819D02*
X49930686Y-61092200D01*
X49930686Y-61092200D02*
X49978305Y-61044580D01*
X49978305Y-61044580D02*
X50025924Y-60949342D01*
X50025924Y-60949342D02*
X50025924Y-60711247D01*
X50025924Y-60711247D02*
X49978305Y-60616009D01*
X49978305Y-60616009D02*
X49930686Y-60568390D01*
X49930686Y-60568390D02*
X49835448Y-60520771D01*
X49835448Y-60520771D02*
X49644972Y-60520771D01*
X49644972Y-60520771D02*
X49549734Y-60568390D01*
X49549734Y-60568390D02*
X49502115Y-60616009D01*
X49502115Y-60616009D02*
X49454496Y-60711247D01*
X25573543Y-67044580D02*
X25525924Y-67092200D01*
X25525924Y-67092200D02*
X25383067Y-67139819D01*
X25383067Y-67139819D02*
X25287829Y-67139819D01*
X25287829Y-67139819D02*
X25144972Y-67092200D01*
X25144972Y-67092200D02*
X25049734Y-66996961D01*
X25049734Y-66996961D02*
X25002115Y-66901723D01*
X25002115Y-66901723D02*
X24954496Y-66711247D01*
X24954496Y-66711247D02*
X24954496Y-66568390D01*
X24954496Y-66568390D02*
X25002115Y-66377914D01*
X25002115Y-66377914D02*
X25049734Y-66282676D01*
X25049734Y-66282676D02*
X25144972Y-66187438D01*
X25144972Y-66187438D02*
X25287829Y-66139819D01*
X25287829Y-66139819D02*
X25383067Y-66139819D01*
X25383067Y-66139819D02*
X25525924Y-66187438D01*
X25525924Y-66187438D02*
X25573543Y-66235057D01*
X26525924Y-67139819D02*
X25954496Y-67139819D01*
X26240210Y-67139819D02*
X26240210Y-66139819D01*
X26240210Y-66139819D02*
X26144972Y-66282676D01*
X26144972Y-66282676D02*
X26049734Y-66377914D01*
X26049734Y-66377914D02*
X25954496Y-66425533D01*
X57573543Y-27044580D02*
X57525924Y-27092200D01*
X57525924Y-27092200D02*
X57383067Y-27139819D01*
X57383067Y-27139819D02*
X57287829Y-27139819D01*
X57287829Y-27139819D02*
X57144972Y-27092200D01*
X57144972Y-27092200D02*
X57049734Y-26996961D01*
X57049734Y-26996961D02*
X57002115Y-26901723D01*
X57002115Y-26901723D02*
X56954496Y-26711247D01*
X56954496Y-26711247D02*
X56954496Y-26568390D01*
X56954496Y-26568390D02*
X57002115Y-26377914D01*
X57002115Y-26377914D02*
X57049734Y-26282676D01*
X57049734Y-26282676D02*
X57144972Y-26187438D01*
X57144972Y-26187438D02*
X57287829Y-26139819D01*
X57287829Y-26139819D02*
X57383067Y-26139819D01*
X57383067Y-26139819D02*
X57525924Y-26187438D01*
X57525924Y-26187438D02*
X57573543Y-26235057D01*
X57906877Y-26139819D02*
X58525924Y-26139819D01*
X58525924Y-26139819D02*
X58192591Y-26520771D01*
X58192591Y-26520771D02*
X58335448Y-26520771D01*
X58335448Y-26520771D02*
X58430686Y-26568390D01*
X58430686Y-26568390D02*
X58478305Y-26616009D01*
X58478305Y-26616009D02*
X58525924Y-26711247D01*
X58525924Y-26711247D02*
X58525924Y-26949342D01*
X58525924Y-26949342D02*
X58478305Y-27044580D01*
X58478305Y-27044580D02*
X58430686Y-27092200D01*
X58430686Y-27092200D02*
X58335448Y-27139819D01*
X58335448Y-27139819D02*
X58049734Y-27139819D01*
X58049734Y-27139819D02*
X57954496Y-27092200D01*
X57954496Y-27092200D02*
X57906877Y-27044580D01*
X57573543Y-33044580D02*
X57525924Y-33092200D01*
X57525924Y-33092200D02*
X57383067Y-33139819D01*
X57383067Y-33139819D02*
X57287829Y-33139819D01*
X57287829Y-33139819D02*
X57144972Y-33092200D01*
X57144972Y-33092200D02*
X57049734Y-32996961D01*
X57049734Y-32996961D02*
X57002115Y-32901723D01*
X57002115Y-32901723D02*
X56954496Y-32711247D01*
X56954496Y-32711247D02*
X56954496Y-32568390D01*
X56954496Y-32568390D02*
X57002115Y-32377914D01*
X57002115Y-32377914D02*
X57049734Y-32282676D01*
X57049734Y-32282676D02*
X57144972Y-32187438D01*
X57144972Y-32187438D02*
X57287829Y-32139819D01*
X57287829Y-32139819D02*
X57383067Y-32139819D01*
X57383067Y-32139819D02*
X57525924Y-32187438D01*
X57525924Y-32187438D02*
X57573543Y-32235057D01*
X58430686Y-32473152D02*
X58430686Y-33139819D01*
X58192591Y-32092200D02*
X57954496Y-32806485D01*
X57954496Y-32806485D02*
X58573543Y-32806485D01*
X17195029Y-26518333D02*
X17909314Y-26518333D01*
X17909314Y-26518333D02*
X18052171Y-26565952D01*
X18052171Y-26565952D02*
X18147410Y-26661190D01*
X18147410Y-26661190D02*
X18195029Y-26804047D01*
X18195029Y-26804047D02*
X18195029Y-26899285D01*
X17290267Y-26089761D02*
X17242648Y-26042142D01*
X17242648Y-26042142D02*
X17195029Y-25946904D01*
X17195029Y-25946904D02*
X17195029Y-25708809D01*
X17195029Y-25708809D02*
X17242648Y-25613571D01*
X17242648Y-25613571D02*
X17290267Y-25565952D01*
X17290267Y-25565952D02*
X17385505Y-25518333D01*
X17385505Y-25518333D02*
X17480743Y-25518333D01*
X17480743Y-25518333D02*
X17623600Y-25565952D01*
X17623600Y-25565952D02*
X18195029Y-26137380D01*
X18195029Y-26137380D02*
X18195029Y-25518333D01*
X75073543Y-62044580D02*
X75025924Y-62092200D01*
X75025924Y-62092200D02*
X74883067Y-62139819D01*
X74883067Y-62139819D02*
X74787829Y-62139819D01*
X74787829Y-62139819D02*
X74644972Y-62092200D01*
X74644972Y-62092200D02*
X74549734Y-61996961D01*
X74549734Y-61996961D02*
X74502115Y-61901723D01*
X74502115Y-61901723D02*
X74454496Y-61711247D01*
X74454496Y-61711247D02*
X74454496Y-61568390D01*
X74454496Y-61568390D02*
X74502115Y-61377914D01*
X74502115Y-61377914D02*
X74549734Y-61282676D01*
X74549734Y-61282676D02*
X74644972Y-61187438D01*
X74644972Y-61187438D02*
X74787829Y-61139819D01*
X74787829Y-61139819D02*
X74883067Y-61139819D01*
X74883067Y-61139819D02*
X75025924Y-61187438D01*
X75025924Y-61187438D02*
X75073543Y-61235057D01*
X75930686Y-61139819D02*
X75740210Y-61139819D01*
X75740210Y-61139819D02*
X75644972Y-61187438D01*
X75644972Y-61187438D02*
X75597353Y-61235057D01*
X75597353Y-61235057D02*
X75502115Y-61377914D01*
X75502115Y-61377914D02*
X75454496Y-61568390D01*
X75454496Y-61568390D02*
X75454496Y-61949342D01*
X75454496Y-61949342D02*
X75502115Y-62044580D01*
X75502115Y-62044580D02*
X75549734Y-62092200D01*
X75549734Y-62092200D02*
X75644972Y-62139819D01*
X75644972Y-62139819D02*
X75835448Y-62139819D01*
X75835448Y-62139819D02*
X75930686Y-62092200D01*
X75930686Y-62092200D02*
X75978305Y-62044580D01*
X75978305Y-62044580D02*
X76025924Y-61949342D01*
X76025924Y-61949342D02*
X76025924Y-61711247D01*
X76025924Y-61711247D02*
X75978305Y-61616009D01*
X75978305Y-61616009D02*
X75930686Y-61568390D01*
X75930686Y-61568390D02*
X75835448Y-61520771D01*
X75835448Y-61520771D02*
X75644972Y-61520771D01*
X75644972Y-61520771D02*
X75549734Y-61568390D01*
X75549734Y-61568390D02*
X75502115Y-61616009D01*
X75502115Y-61616009D02*
X75454496Y-61711247D01*
X17195029Y-51518333D02*
X17909314Y-51518333D01*
X17909314Y-51518333D02*
X18052171Y-51565952D01*
X18052171Y-51565952D02*
X18147410Y-51661190D01*
X18147410Y-51661190D02*
X18195029Y-51804047D01*
X18195029Y-51804047D02*
X18195029Y-51899285D01*
X17195029Y-51137380D02*
X17195029Y-50518333D01*
X17195029Y-50518333D02*
X17575981Y-50851666D01*
X17575981Y-50851666D02*
X17575981Y-50708809D01*
X17575981Y-50708809D02*
X17623600Y-50613571D01*
X17623600Y-50613571D02*
X17671219Y-50565952D01*
X17671219Y-50565952D02*
X17766457Y-50518333D01*
X17766457Y-50518333D02*
X18004552Y-50518333D01*
X18004552Y-50518333D02*
X18099790Y-50565952D01*
X18099790Y-50565952D02*
X18147410Y-50613571D01*
X18147410Y-50613571D02*
X18195029Y-50708809D01*
X18195029Y-50708809D02*
X18195029Y-50994523D01*
X18195029Y-50994523D02*
X18147410Y-51089761D01*
X18147410Y-51089761D02*
X18099790Y-51137380D01*
X57573543Y-20544580D02*
X57525924Y-20592200D01*
X57525924Y-20592200D02*
X57383067Y-20639819D01*
X57383067Y-20639819D02*
X57287829Y-20639819D01*
X57287829Y-20639819D02*
X57144972Y-20592200D01*
X57144972Y-20592200D02*
X57049734Y-20496961D01*
X57049734Y-20496961D02*
X57002115Y-20401723D01*
X57002115Y-20401723D02*
X56954496Y-20211247D01*
X56954496Y-20211247D02*
X56954496Y-20068390D01*
X56954496Y-20068390D02*
X57002115Y-19877914D01*
X57002115Y-19877914D02*
X57049734Y-19782676D01*
X57049734Y-19782676D02*
X57144972Y-19687438D01*
X57144972Y-19687438D02*
X57287829Y-19639819D01*
X57287829Y-19639819D02*
X57383067Y-19639819D01*
X57383067Y-19639819D02*
X57525924Y-19687438D01*
X57525924Y-19687438D02*
X57573543Y-19735057D01*
X58478305Y-19639819D02*
X58002115Y-19639819D01*
X58002115Y-19639819D02*
X57954496Y-20116009D01*
X57954496Y-20116009D02*
X58002115Y-20068390D01*
X58002115Y-20068390D02*
X58097353Y-20020771D01*
X58097353Y-20020771D02*
X58335448Y-20020771D01*
X58335448Y-20020771D02*
X58430686Y-20068390D01*
X58430686Y-20068390D02*
X58478305Y-20116009D01*
X58478305Y-20116009D02*
X58525924Y-20211247D01*
X58525924Y-20211247D02*
X58525924Y-20449342D01*
X58525924Y-20449342D02*
X58478305Y-20544580D01*
X58478305Y-20544580D02*
X58430686Y-20592200D01*
X58430686Y-20592200D02*
X58335448Y-20639819D01*
X58335448Y-20639819D02*
X58097353Y-20639819D01*
X58097353Y-20639819D02*
X58002115Y-20592200D01*
X58002115Y-20592200D02*
X57954496Y-20544580D01*
X64573543Y-34639819D02*
X64240210Y-34163628D01*
X64002115Y-34639819D02*
X64002115Y-33639819D01*
X64002115Y-33639819D02*
X64383067Y-33639819D01*
X64383067Y-33639819D02*
X64478305Y-33687438D01*
X64478305Y-33687438D02*
X64525924Y-33735057D01*
X64525924Y-33735057D02*
X64573543Y-33830295D01*
X64573543Y-33830295D02*
X64573543Y-33973152D01*
X64573543Y-33973152D02*
X64525924Y-34068390D01*
X64525924Y-34068390D02*
X64478305Y-34116009D01*
X64478305Y-34116009D02*
X64383067Y-34163628D01*
X64383067Y-34163628D02*
X64002115Y-34163628D01*
X65430686Y-33973152D02*
X65430686Y-34639819D01*
X65192591Y-33592200D02*
X64954496Y-34306485D01*
X64954496Y-34306485D02*
X65573543Y-34306485D01*
X66478305Y-25139819D02*
X66478305Y-25949342D01*
X66478305Y-25949342D02*
X66525924Y-26044580D01*
X66525924Y-26044580D02*
X66573543Y-26092200D01*
X66573543Y-26092200D02*
X66668781Y-26139819D01*
X66668781Y-26139819D02*
X66859257Y-26139819D01*
X66859257Y-26139819D02*
X66954495Y-26092200D01*
X66954495Y-26092200D02*
X67002114Y-26044580D01*
X67002114Y-26044580D02*
X67049733Y-25949342D01*
X67049733Y-25949342D02*
X67049733Y-25139819D01*
X67954495Y-25473152D02*
X67954495Y-26139819D01*
X67716400Y-25092200D02*
X67478305Y-25806485D01*
X67478305Y-25806485D02*
X68097352Y-25806485D01*
X63406876Y-66139819D02*
X63406876Y-66854104D01*
X63406876Y-66854104D02*
X63359257Y-66996961D01*
X63359257Y-66996961D02*
X63264019Y-67092200D01*
X63264019Y-67092200D02*
X63121162Y-67139819D01*
X63121162Y-67139819D02*
X63025924Y-67139819D01*
X64406876Y-67139819D02*
X63835448Y-67139819D01*
X64121162Y-67139819D02*
X64121162Y-66139819D01*
X64121162Y-66139819D02*
X64025924Y-66282676D01*
X64025924Y-66282676D02*
X63930686Y-66377914D01*
X63930686Y-66377914D02*
X63835448Y-66425533D01*
X21573543Y-34639819D02*
X21240210Y-34163628D01*
X21002115Y-34639819D02*
X21002115Y-33639819D01*
X21002115Y-33639819D02*
X21383067Y-33639819D01*
X21383067Y-33639819D02*
X21478305Y-33687438D01*
X21478305Y-33687438D02*
X21525924Y-33735057D01*
X21525924Y-33735057D02*
X21573543Y-33830295D01*
X21573543Y-33830295D02*
X21573543Y-33973152D01*
X21573543Y-33973152D02*
X21525924Y-34068390D01*
X21525924Y-34068390D02*
X21478305Y-34116009D01*
X21478305Y-34116009D02*
X21383067Y-34163628D01*
X21383067Y-34163628D02*
X21002115Y-34163628D01*
X22525924Y-34639819D02*
X21954496Y-34639819D01*
X22240210Y-34639819D02*
X22240210Y-33639819D01*
X22240210Y-33639819D02*
X22144972Y-33782676D01*
X22144972Y-33782676D02*
X22049734Y-33877914D01*
X22049734Y-33877914D02*
X21954496Y-33925533D01*
D14*
X36978305Y-30142419D02*
X36978305Y-30951942D01*
X36978305Y-30951942D02*
X37025924Y-31047180D01*
X37025924Y-31047180D02*
X37073543Y-31094800D01*
X37073543Y-31094800D02*
X37168781Y-31142419D01*
X37168781Y-31142419D02*
X37359257Y-31142419D01*
X37359257Y-31142419D02*
X37454495Y-31094800D01*
X37454495Y-31094800D02*
X37502114Y-31047180D01*
X37502114Y-31047180D02*
X37549733Y-30951942D01*
X37549733Y-30951942D02*
X37549733Y-30142419D01*
X38549733Y-31142419D02*
X37978305Y-31142419D01*
X38264019Y-31142419D02*
X38264019Y-30142419D01*
X38264019Y-30142419D02*
X38168781Y-30285276D01*
X38168781Y-30285276D02*
X38073543Y-30380514D01*
X38073543Y-30380514D02*
X37978305Y-30428133D01*
D10*
X76486666Y-63594819D02*
X76153333Y-63118628D01*
X75915238Y-63594819D02*
X75915238Y-62594819D01*
X75915238Y-62594819D02*
X76296190Y-62594819D01*
X76296190Y-62594819D02*
X76391428Y-62642438D01*
X76391428Y-62642438D02*
X76439047Y-62690057D01*
X76439047Y-62690057D02*
X76486666Y-62785295D01*
X76486666Y-62785295D02*
X76486666Y-62928152D01*
X76486666Y-62928152D02*
X76439047Y-63023390D01*
X76439047Y-63023390D02*
X76391428Y-63071009D01*
X76391428Y-63071009D02*
X76296190Y-63118628D01*
X76296190Y-63118628D02*
X75915238Y-63118628D01*
X76915238Y-63071009D02*
X77248571Y-63071009D01*
X77391428Y-63594819D02*
X76915238Y-63594819D01*
X76915238Y-63594819D02*
X76915238Y-62594819D01*
X76915238Y-62594819D02*
X77391428Y-62594819D01*
X78153333Y-63071009D02*
X77820000Y-63071009D01*
X77820000Y-63594819D02*
X77820000Y-62594819D01*
X77820000Y-62594819D02*
X78296190Y-62594819D01*
X78820000Y-62594819D02*
X78820000Y-62832914D01*
X78581905Y-62737676D02*
X78820000Y-62832914D01*
X78820000Y-62832914D02*
X79058095Y-62737676D01*
X78677143Y-63023390D02*
X78820000Y-62832914D01*
X78820000Y-62832914D02*
X78962857Y-63023390D01*
X79581905Y-62594819D02*
X79581905Y-62832914D01*
X79343810Y-62737676D02*
X79581905Y-62832914D01*
X79581905Y-62832914D02*
X79820000Y-62737676D01*
X79439048Y-63023390D02*
X79581905Y-62832914D01*
X79581905Y-62832914D02*
X79724762Y-63023390D01*
X14486666Y-12594819D02*
X14153333Y-12118628D01*
X13915238Y-12594819D02*
X13915238Y-11594819D01*
X13915238Y-11594819D02*
X14296190Y-11594819D01*
X14296190Y-11594819D02*
X14391428Y-11642438D01*
X14391428Y-11642438D02*
X14439047Y-11690057D01*
X14439047Y-11690057D02*
X14486666Y-11785295D01*
X14486666Y-11785295D02*
X14486666Y-11928152D01*
X14486666Y-11928152D02*
X14439047Y-12023390D01*
X14439047Y-12023390D02*
X14391428Y-12071009D01*
X14391428Y-12071009D02*
X14296190Y-12118628D01*
X14296190Y-12118628D02*
X13915238Y-12118628D01*
X14915238Y-12071009D02*
X15248571Y-12071009D01*
X15391428Y-12594819D02*
X14915238Y-12594819D01*
X14915238Y-12594819D02*
X14915238Y-11594819D01*
X14915238Y-11594819D02*
X15391428Y-11594819D01*
X16153333Y-12071009D02*
X15820000Y-12071009D01*
X15820000Y-12594819D02*
X15820000Y-11594819D01*
X15820000Y-11594819D02*
X16296190Y-11594819D01*
X16820000Y-11594819D02*
X16820000Y-11832914D01*
X16581905Y-11737676D02*
X16820000Y-11832914D01*
X16820000Y-11832914D02*
X17058095Y-11737676D01*
X16677143Y-12023390D02*
X16820000Y-11832914D01*
X16820000Y-11832914D02*
X16962857Y-12023390D01*
X17581905Y-11594819D02*
X17581905Y-11832914D01*
X17343810Y-11737676D02*
X17581905Y-11832914D01*
X17581905Y-11832914D02*
X17820000Y-11737676D01*
X17439048Y-12023390D02*
X17581905Y-11832914D01*
X17581905Y-11832914D02*
X17724762Y-12023390D01*
X76486666Y-12594819D02*
X76153333Y-12118628D01*
X75915238Y-12594819D02*
X75915238Y-11594819D01*
X75915238Y-11594819D02*
X76296190Y-11594819D01*
X76296190Y-11594819D02*
X76391428Y-11642438D01*
X76391428Y-11642438D02*
X76439047Y-11690057D01*
X76439047Y-11690057D02*
X76486666Y-11785295D01*
X76486666Y-11785295D02*
X76486666Y-11928152D01*
X76486666Y-11928152D02*
X76439047Y-12023390D01*
X76439047Y-12023390D02*
X76391428Y-12071009D01*
X76391428Y-12071009D02*
X76296190Y-12118628D01*
X76296190Y-12118628D02*
X75915238Y-12118628D01*
X76915238Y-12071009D02*
X77248571Y-12071009D01*
X77391428Y-12594819D02*
X76915238Y-12594819D01*
X76915238Y-12594819D02*
X76915238Y-11594819D01*
X76915238Y-11594819D02*
X77391428Y-11594819D01*
X78153333Y-12071009D02*
X77820000Y-12071009D01*
X77820000Y-12594819D02*
X77820000Y-11594819D01*
X77820000Y-11594819D02*
X78296190Y-11594819D01*
X78820000Y-11594819D02*
X78820000Y-11832914D01*
X78581905Y-11737676D02*
X78820000Y-11832914D01*
X78820000Y-11832914D02*
X79058095Y-11737676D01*
X78677143Y-12023390D02*
X78820000Y-11832914D01*
X78820000Y-11832914D02*
X78962857Y-12023390D01*
X79581905Y-11594819D02*
X79581905Y-11832914D01*
X79343810Y-11737676D02*
X79581905Y-11832914D01*
X79581905Y-11832914D02*
X79820000Y-11737676D01*
X79439048Y-12023390D02*
X79581905Y-11832914D01*
X79581905Y-11832914D02*
X79724762Y-12023390D01*
X66478305Y-42139819D02*
X66478305Y-42949342D01*
X66478305Y-42949342D02*
X66525924Y-43044580D01*
X66525924Y-43044580D02*
X66573543Y-43092200D01*
X66573543Y-43092200D02*
X66668781Y-43139819D01*
X66668781Y-43139819D02*
X66859257Y-43139819D01*
X66859257Y-43139819D02*
X66954495Y-43092200D01*
X66954495Y-43092200D02*
X67002114Y-43044580D01*
X67002114Y-43044580D02*
X67049733Y-42949342D01*
X67049733Y-42949342D02*
X67049733Y-42139819D01*
X67430686Y-42139819D02*
X68049733Y-42139819D01*
X68049733Y-42139819D02*
X67716400Y-42520771D01*
X67716400Y-42520771D02*
X67859257Y-42520771D01*
X67859257Y-42520771D02*
X67954495Y-42568390D01*
X67954495Y-42568390D02*
X68002114Y-42616009D01*
X68002114Y-42616009D02*
X68049733Y-42711247D01*
X68049733Y-42711247D02*
X68049733Y-42949342D01*
X68049733Y-42949342D02*
X68002114Y-43044580D01*
X68002114Y-43044580D02*
X67954495Y-43092200D01*
X67954495Y-43092200D02*
X67859257Y-43139819D01*
X67859257Y-43139819D02*
X67573543Y-43139819D01*
X67573543Y-43139819D02*
X67478305Y-43092200D01*
X67478305Y-43092200D02*
X67430686Y-43044580D01*
%TO.C,C2*%
D15*
X21875000Y-64085000D02*
X21154000Y-64085000D01*
X21875000Y-60045000D02*
X21875000Y-64085000D01*
X21154000Y-60045000D02*
X21875000Y-60045000D01*
X19756000Y-64085000D02*
X19035000Y-64085000D01*
X19035000Y-64085000D02*
X19035000Y-60045000D01*
X19035000Y-60045000D02*
X19756000Y-60045000D01*
%TO.C,R5*%
X52425000Y-63335000D02*
X52095000Y-63335000D01*
X52425000Y-56795000D02*
X52425000Y-63335000D01*
X52095000Y-56795000D02*
X52425000Y-56795000D01*
X50015000Y-56795000D02*
X49685000Y-56795000D01*
X49685000Y-63335000D02*
X50015000Y-63335000D01*
X49685000Y-56795000D02*
X49685000Y-63335000D01*
%TO.C,R3*%
X49455000Y-39515000D02*
X55995000Y-39515000D01*
X49455000Y-39845000D02*
X49455000Y-39515000D01*
X49455000Y-41925000D02*
X49455000Y-42255000D01*
X49455000Y-42255000D02*
X55995000Y-42255000D01*
X55995000Y-39515000D02*
X55995000Y-39845000D01*
X55995000Y-42255000D02*
X55995000Y-41925000D01*
%TO.C,R7*%
X25395000Y-42255000D02*
X18855000Y-42255000D01*
X25395000Y-41925000D02*
X25395000Y-42255000D01*
X25395000Y-39845000D02*
X25395000Y-39515000D01*
X25395000Y-39515000D02*
X18855000Y-39515000D01*
X18855000Y-42255000D02*
X18855000Y-41925000D01*
X18855000Y-39515000D02*
X18855000Y-39845000D01*
%TO.C,U2*%
D16*
X29355000Y-45775000D02*
G75*
G02*
X29155000Y-45775000I-100000J0D01*
G01*
X29155000Y-45775000D02*
G75*
G02*
X29355000Y-45775000I100000J0D01*
G01*
D17*
X45075000Y-64825000D02*
X29835000Y-64825000D01*
X45075000Y-44505000D02*
X45075000Y-64825000D01*
X29835000Y-64825000D02*
X29835000Y-44505000D01*
X29835000Y-44505000D02*
X45075000Y-44505000D01*
%TO.C,R2*%
D15*
X25395000Y-38855000D02*
X18855000Y-38855000D01*
X25395000Y-38525000D02*
X25395000Y-38855000D01*
X25395000Y-36445000D02*
X25395000Y-36115000D01*
X25395000Y-36115000D02*
X18855000Y-36115000D01*
X18855000Y-38855000D02*
X18855000Y-38525000D01*
X18855000Y-36115000D02*
X18855000Y-36445000D01*
%TO.C,R6*%
X48825000Y-63335000D02*
X48495000Y-63335000D01*
X48825000Y-56795000D02*
X48825000Y-63335000D01*
X48495000Y-56795000D02*
X48825000Y-56795000D01*
X46415000Y-56795000D02*
X46085000Y-56795000D01*
X46085000Y-63335000D02*
X46415000Y-63335000D01*
X46085000Y-56795000D02*
X46085000Y-63335000D01*
%TO.C,C1*%
X29125000Y-61867380D02*
G75*
G02*
X22585000Y-61867380I-3270000J0D01*
G01*
X22585000Y-61867380D02*
G75*
G02*
X29125000Y-61867380I3270000J0D01*
G01*
X26895000Y-61627380D02*
X29076000Y-61627380D01*
X26895000Y-61587380D02*
X29073000Y-61587380D01*
X26895000Y-61547380D02*
X29069000Y-61547380D01*
X26895000Y-61507380D02*
X29065000Y-61507380D01*
X26895000Y-61467380D02*
X29060000Y-61467380D01*
X26895000Y-61427380D02*
X29055000Y-61427380D01*
X26895000Y-61387380D02*
X29050000Y-61387380D01*
X26895000Y-61347380D02*
X29043000Y-61347380D01*
X26895000Y-61307380D02*
X29037000Y-61307380D01*
X26895000Y-61267380D02*
X29029000Y-61267380D01*
X26895000Y-61227380D02*
X29022000Y-61227380D01*
X26895000Y-61187380D02*
X29014000Y-61187380D01*
X26895000Y-61147380D02*
X29005000Y-61147380D01*
X26895000Y-61107380D02*
X28995000Y-61107380D01*
X26895000Y-61067380D02*
X28986000Y-61067380D01*
X26895000Y-61027380D02*
X28975000Y-61027380D01*
X26895000Y-60987380D02*
X28964000Y-60987380D01*
X26895000Y-60947380D02*
X28953000Y-60947380D01*
X26895000Y-60907380D02*
X28941000Y-60907380D01*
X26895000Y-60867380D02*
X28928000Y-60867380D01*
X26895000Y-60827380D02*
X28915000Y-60827380D01*
X26895000Y-60787380D02*
X28902000Y-60787380D01*
X26895000Y-60747380D02*
X28887000Y-60747380D01*
X26895000Y-60707380D02*
X28872000Y-60707380D01*
X26895000Y-60667380D02*
X28857000Y-60667380D01*
X26895000Y-60627380D02*
X28841000Y-60627380D01*
X26895000Y-60587380D02*
X28824000Y-60587380D01*
X26895000Y-60547380D02*
X28807000Y-60547380D01*
X26895000Y-60507380D02*
X28789000Y-60507380D01*
X26895000Y-60467380D02*
X28770000Y-60467380D01*
X26895000Y-60427380D02*
X28751000Y-60427380D01*
X26895000Y-60387380D02*
X28731000Y-60387380D01*
X26895000Y-60347380D02*
X28710000Y-60347380D01*
X26895000Y-60307380D02*
X28689000Y-60307380D01*
X26895000Y-60267380D02*
X28667000Y-60267380D01*
X26895000Y-60227380D02*
X28644000Y-60227380D01*
X26895000Y-60187380D02*
X28620000Y-60187380D01*
X26895000Y-60147380D02*
X28596000Y-60147380D01*
X26895000Y-60107380D02*
X28571000Y-60107380D01*
X26895000Y-60067380D02*
X28545000Y-60067380D01*
X26895000Y-60027380D02*
X28518000Y-60027380D01*
X26895000Y-59987380D02*
X28491000Y-59987380D01*
X26895000Y-59947380D02*
X28462000Y-59947380D01*
X26895000Y-59907380D02*
X28432000Y-59907380D01*
X26895000Y-59867380D02*
X28402000Y-59867380D01*
X26895000Y-59827380D02*
X28371000Y-59827380D01*
X26895000Y-59787380D02*
X28338000Y-59787380D01*
X26895000Y-59747380D02*
X28305000Y-59747380D01*
X26895000Y-59707380D02*
X28270000Y-59707380D01*
X26895000Y-59667380D02*
X28234000Y-59667380D01*
X26895000Y-59627380D02*
X28197000Y-59627380D01*
X26895000Y-59587380D02*
X28159000Y-59587380D01*
X25453000Y-58627380D02*
X26257000Y-58627380D01*
X25222000Y-58667380D02*
X26488000Y-58667380D01*
X25054000Y-58707380D02*
X26656000Y-58707380D01*
X24916000Y-58747380D02*
X26794000Y-58747380D01*
X24797000Y-58787380D02*
X26913000Y-58787380D01*
X24690000Y-58827380D02*
X27020000Y-58827380D01*
X24594000Y-58867380D02*
X27116000Y-58867380D01*
X24505000Y-58907380D02*
X27205000Y-58907380D01*
X24423000Y-58947380D02*
X27287000Y-58947380D01*
X24346000Y-58987380D02*
X27364000Y-58987380D01*
X24274000Y-59027380D02*
X27436000Y-59027380D01*
X24206000Y-59067380D02*
X27504000Y-59067380D01*
X24141000Y-59107380D02*
X27569000Y-59107380D01*
X24080000Y-59147380D02*
X27630000Y-59147380D01*
X24021000Y-59187380D02*
X27689000Y-59187380D01*
X24016000Y-65367621D02*
X24016000Y-64737621D01*
X23965000Y-59227380D02*
X27745000Y-59227380D01*
X23912000Y-59267380D02*
X27798000Y-59267380D01*
X23860000Y-59307380D02*
X27850000Y-59307380D01*
X23811000Y-59347380D02*
X27899000Y-59347380D01*
X23764000Y-59387380D02*
X27946000Y-59387380D01*
X23718000Y-59427380D02*
X27992000Y-59427380D01*
X23701000Y-65052621D02*
X24331000Y-65052621D01*
X23674000Y-59467380D02*
X28036000Y-59467380D01*
X23632000Y-59507380D02*
X28078000Y-59507380D01*
X23591000Y-59547380D02*
X28119000Y-59547380D01*
X23551000Y-59587380D02*
X24815000Y-59587380D01*
X23513000Y-59627380D02*
X24815000Y-59627380D01*
X23476000Y-59667380D02*
X24815000Y-59667380D01*
X23440000Y-59707380D02*
X24815000Y-59707380D01*
X23405000Y-59747380D02*
X24815000Y-59747380D01*
X23372000Y-59787380D02*
X24815000Y-59787380D01*
X23339000Y-59827380D02*
X24815000Y-59827380D01*
X23308000Y-59867380D02*
X24815000Y-59867380D01*
X23278000Y-59907380D02*
X24815000Y-59907380D01*
X23248000Y-59947380D02*
X24815000Y-59947380D01*
X23219000Y-59987380D02*
X24815000Y-59987380D01*
X23192000Y-60027380D02*
X24815000Y-60027380D01*
X23165000Y-60067380D02*
X24815000Y-60067380D01*
X23139000Y-60107380D02*
X24815000Y-60107380D01*
X23114000Y-60147380D02*
X24815000Y-60147380D01*
X23090000Y-60187380D02*
X24815000Y-60187380D01*
X23066000Y-60227380D02*
X24815000Y-60227380D01*
X23043000Y-60267380D02*
X24815000Y-60267380D01*
X23021000Y-60307380D02*
X24815000Y-60307380D01*
X23000000Y-60347380D02*
X24815000Y-60347380D01*
X22979000Y-60387380D02*
X24815000Y-60387380D01*
X22959000Y-60427380D02*
X24815000Y-60427380D01*
X22940000Y-60467380D02*
X24815000Y-60467380D01*
X22921000Y-60507380D02*
X24815000Y-60507380D01*
X22903000Y-60547380D02*
X24815000Y-60547380D01*
X22886000Y-60587380D02*
X24815000Y-60587380D01*
X22869000Y-60627380D02*
X24815000Y-60627380D01*
X22853000Y-60667380D02*
X24815000Y-60667380D01*
X22838000Y-60707380D02*
X24815000Y-60707380D01*
X22823000Y-60747380D02*
X24815000Y-60747380D01*
X22808000Y-60787380D02*
X24815000Y-60787380D01*
X22795000Y-60827380D02*
X24815000Y-60827380D01*
X22782000Y-60867380D02*
X24815000Y-60867380D01*
X22769000Y-60907380D02*
X24815000Y-60907380D01*
X22757000Y-60947380D02*
X24815000Y-60947380D01*
X22746000Y-60987380D02*
X24815000Y-60987380D01*
X22735000Y-61027380D02*
X24815000Y-61027380D01*
X22724000Y-61067380D02*
X24815000Y-61067380D01*
X22715000Y-61107380D02*
X24815000Y-61107380D01*
X22705000Y-61147380D02*
X24815000Y-61147380D01*
X22696000Y-61187380D02*
X24815000Y-61187380D01*
X22688000Y-61227380D02*
X24815000Y-61227380D01*
X22681000Y-61267380D02*
X24815000Y-61267380D01*
X22673000Y-61307380D02*
X24815000Y-61307380D01*
X22667000Y-61347380D02*
X24815000Y-61347380D01*
X22660000Y-61387380D02*
X24815000Y-61387380D01*
X22655000Y-61427380D02*
X24815000Y-61427380D01*
X22650000Y-61467380D02*
X24815000Y-61467380D01*
X22645000Y-61507380D02*
X24815000Y-61507380D01*
X22641000Y-61547380D02*
X24815000Y-61547380D01*
X22637000Y-61587380D02*
X24815000Y-61587380D01*
X22634000Y-61627380D02*
X24815000Y-61627380D01*
X22631000Y-61667380D02*
X29079000Y-61667380D01*
X22629000Y-61707380D02*
X29081000Y-61707380D01*
X22627000Y-61747380D02*
X29083000Y-61747380D01*
X22626000Y-61787380D02*
X29084000Y-61787380D01*
X22625000Y-61867380D02*
X29085000Y-61867380D01*
X22625000Y-61827380D02*
X29085000Y-61827380D01*
%TO.C,C3*%
X49495000Y-26177400D02*
X55955000Y-26177400D01*
X49495000Y-26217400D02*
X55955000Y-26217400D01*
X49496000Y-26137400D02*
X55954000Y-26137400D01*
X49497000Y-26097400D02*
X55953000Y-26097400D01*
X49499000Y-26057400D02*
X55951000Y-26057400D01*
X49501000Y-26017400D02*
X55949000Y-26017400D01*
X49504000Y-25977400D02*
X51685000Y-25977400D01*
X49507000Y-25937400D02*
X51685000Y-25937400D01*
X49511000Y-25897400D02*
X51685000Y-25897400D01*
X49515000Y-25857400D02*
X51685000Y-25857400D01*
X49520000Y-25817400D02*
X51685000Y-25817400D01*
X49525000Y-25777400D02*
X51685000Y-25777400D01*
X49530000Y-25737400D02*
X51685000Y-25737400D01*
X49537000Y-25697400D02*
X51685000Y-25697400D01*
X49543000Y-25657400D02*
X51685000Y-25657400D01*
X49551000Y-25617400D02*
X51685000Y-25617400D01*
X49558000Y-25577400D02*
X51685000Y-25577400D01*
X49566000Y-25537400D02*
X51685000Y-25537400D01*
X49575000Y-25497400D02*
X51685000Y-25497400D01*
X49585000Y-25457400D02*
X51685000Y-25457400D01*
X49594000Y-25417400D02*
X51685000Y-25417400D01*
X49605000Y-25377400D02*
X51685000Y-25377400D01*
X49616000Y-25337400D02*
X51685000Y-25337400D01*
X49627000Y-25297400D02*
X51685000Y-25297400D01*
X49639000Y-25257400D02*
X51685000Y-25257400D01*
X49652000Y-25217400D02*
X51685000Y-25217400D01*
X49665000Y-25177400D02*
X51685000Y-25177400D01*
X49678000Y-25137400D02*
X51685000Y-25137400D01*
X49693000Y-25097400D02*
X51685000Y-25097400D01*
X49708000Y-25057400D02*
X51685000Y-25057400D01*
X49723000Y-25017400D02*
X51685000Y-25017400D01*
X49739000Y-24977400D02*
X51685000Y-24977400D01*
X49756000Y-24937400D02*
X51685000Y-24937400D01*
X49773000Y-24897400D02*
X51685000Y-24897400D01*
X49791000Y-24857400D02*
X51685000Y-24857400D01*
X49810000Y-24817400D02*
X51685000Y-24817400D01*
X49829000Y-24777400D02*
X51685000Y-24777400D01*
X49849000Y-24737400D02*
X51685000Y-24737400D01*
X49870000Y-24697400D02*
X51685000Y-24697400D01*
X49891000Y-24657400D02*
X51685000Y-24657400D01*
X49913000Y-24617400D02*
X51685000Y-24617400D01*
X49936000Y-24577400D02*
X51685000Y-24577400D01*
X49960000Y-24537400D02*
X51685000Y-24537400D01*
X49984000Y-24497400D02*
X51685000Y-24497400D01*
X50009000Y-24457400D02*
X51685000Y-24457400D01*
X50035000Y-24417400D02*
X51685000Y-24417400D01*
X50062000Y-24377400D02*
X51685000Y-24377400D01*
X50089000Y-24337400D02*
X51685000Y-24337400D01*
X50118000Y-24297400D02*
X51685000Y-24297400D01*
X50148000Y-24257400D02*
X51685000Y-24257400D01*
X50178000Y-24217400D02*
X51685000Y-24217400D01*
X50209000Y-24177400D02*
X51685000Y-24177400D01*
X50242000Y-24137400D02*
X51685000Y-24137400D01*
X50275000Y-24097400D02*
X51685000Y-24097400D01*
X50310000Y-24057400D02*
X51685000Y-24057400D01*
X50346000Y-24017400D02*
X51685000Y-24017400D01*
X50383000Y-23977400D02*
X51685000Y-23977400D01*
X50421000Y-23937400D02*
X51685000Y-23937400D01*
X50461000Y-23897400D02*
X54989000Y-23897400D01*
X50502000Y-23857400D02*
X54948000Y-23857400D01*
X50544000Y-23817400D02*
X54906000Y-23817400D01*
X50571000Y-29402641D02*
X51201000Y-29402641D01*
X50588000Y-23777400D02*
X54862000Y-23777400D01*
X50634000Y-23737400D02*
X54816000Y-23737400D01*
X50681000Y-23697400D02*
X54769000Y-23697400D01*
X50730000Y-23657400D02*
X54720000Y-23657400D01*
X50782000Y-23617400D02*
X54668000Y-23617400D01*
X50835000Y-23577400D02*
X54615000Y-23577400D01*
X50886000Y-29717641D02*
X50886000Y-29087641D01*
X50891000Y-23537400D02*
X54559000Y-23537400D01*
X50950000Y-23497400D02*
X54500000Y-23497400D01*
X51011000Y-23457400D02*
X54439000Y-23457400D01*
X51076000Y-23417400D02*
X54374000Y-23417400D01*
X51144000Y-23377400D02*
X54306000Y-23377400D01*
X51216000Y-23337400D02*
X54234000Y-23337400D01*
X51293000Y-23297400D02*
X54157000Y-23297400D01*
X51375000Y-23257400D02*
X54075000Y-23257400D01*
X51464000Y-23217400D02*
X53986000Y-23217400D01*
X51560000Y-23177400D02*
X53890000Y-23177400D01*
X51667000Y-23137400D02*
X53783000Y-23137400D01*
X51786000Y-23097400D02*
X53664000Y-23097400D01*
X51924000Y-23057400D02*
X53526000Y-23057400D01*
X52092000Y-23017400D02*
X53358000Y-23017400D01*
X52323000Y-22977400D02*
X53127000Y-22977400D01*
X53765000Y-23937400D02*
X55029000Y-23937400D01*
X53765000Y-23977400D02*
X55067000Y-23977400D01*
X53765000Y-24017400D02*
X55104000Y-24017400D01*
X53765000Y-24057400D02*
X55140000Y-24057400D01*
X53765000Y-24097400D02*
X55175000Y-24097400D01*
X53765000Y-24137400D02*
X55208000Y-24137400D01*
X53765000Y-24177400D02*
X55241000Y-24177400D01*
X53765000Y-24217400D02*
X55272000Y-24217400D01*
X53765000Y-24257400D02*
X55302000Y-24257400D01*
X53765000Y-24297400D02*
X55332000Y-24297400D01*
X53765000Y-24337400D02*
X55361000Y-24337400D01*
X53765000Y-24377400D02*
X55388000Y-24377400D01*
X53765000Y-24417400D02*
X55415000Y-24417400D01*
X53765000Y-24457400D02*
X55441000Y-24457400D01*
X53765000Y-24497400D02*
X55466000Y-24497400D01*
X53765000Y-24537400D02*
X55490000Y-24537400D01*
X53765000Y-24577400D02*
X55514000Y-24577400D01*
X53765000Y-24617400D02*
X55537000Y-24617400D01*
X53765000Y-24657400D02*
X55559000Y-24657400D01*
X53765000Y-24697400D02*
X55580000Y-24697400D01*
X53765000Y-24737400D02*
X55601000Y-24737400D01*
X53765000Y-24777400D02*
X55621000Y-24777400D01*
X53765000Y-24817400D02*
X55640000Y-24817400D01*
X53765000Y-24857400D02*
X55659000Y-24857400D01*
X53765000Y-24897400D02*
X55677000Y-24897400D01*
X53765000Y-24937400D02*
X55694000Y-24937400D01*
X53765000Y-24977400D02*
X55711000Y-24977400D01*
X53765000Y-25017400D02*
X55727000Y-25017400D01*
X53765000Y-25057400D02*
X55742000Y-25057400D01*
X53765000Y-25097400D02*
X55757000Y-25097400D01*
X53765000Y-25137400D02*
X55772000Y-25137400D01*
X53765000Y-25177400D02*
X55785000Y-25177400D01*
X53765000Y-25217400D02*
X55798000Y-25217400D01*
X53765000Y-25257400D02*
X55811000Y-25257400D01*
X53765000Y-25297400D02*
X55823000Y-25297400D01*
X53765000Y-25337400D02*
X55834000Y-25337400D01*
X53765000Y-25377400D02*
X55845000Y-25377400D01*
X53765000Y-25417400D02*
X55856000Y-25417400D01*
X53765000Y-25457400D02*
X55865000Y-25457400D01*
X53765000Y-25497400D02*
X55875000Y-25497400D01*
X53765000Y-25537400D02*
X55884000Y-25537400D01*
X53765000Y-25577400D02*
X55892000Y-25577400D01*
X53765000Y-25617400D02*
X55899000Y-25617400D01*
X53765000Y-25657400D02*
X55907000Y-25657400D01*
X53765000Y-25697400D02*
X55913000Y-25697400D01*
X53765000Y-25737400D02*
X55920000Y-25737400D01*
X53765000Y-25777400D02*
X55925000Y-25777400D01*
X53765000Y-25817400D02*
X55930000Y-25817400D01*
X53765000Y-25857400D02*
X55935000Y-25857400D01*
X53765000Y-25897400D02*
X55939000Y-25897400D01*
X53765000Y-25937400D02*
X55943000Y-25937400D01*
X53765000Y-25977400D02*
X55946000Y-25977400D01*
X55995000Y-26217400D02*
G75*
G02*
X49455000Y-26217400I-3270000J0D01*
G01*
X49455000Y-26217400D02*
G75*
G02*
X55995000Y-26217400I3270000J0D01*
G01*
%TO.C,C4*%
X51685000Y-34475000D02*
X49504000Y-34475000D01*
X51685000Y-34515000D02*
X49507000Y-34515000D01*
X51685000Y-34555000D02*
X49511000Y-34555000D01*
X51685000Y-34595000D02*
X49515000Y-34595000D01*
X51685000Y-34635000D02*
X49520000Y-34635000D01*
X51685000Y-34675000D02*
X49525000Y-34675000D01*
X51685000Y-34715000D02*
X49530000Y-34715000D01*
X51685000Y-34755000D02*
X49537000Y-34755000D01*
X51685000Y-34795000D02*
X49543000Y-34795000D01*
X51685000Y-34835000D02*
X49551000Y-34835000D01*
X51685000Y-34875000D02*
X49558000Y-34875000D01*
X51685000Y-34915000D02*
X49566000Y-34915000D01*
X51685000Y-34955000D02*
X49575000Y-34955000D01*
X51685000Y-34995000D02*
X49585000Y-34995000D01*
X51685000Y-35035000D02*
X49594000Y-35035000D01*
X51685000Y-35075000D02*
X49605000Y-35075000D01*
X51685000Y-35115000D02*
X49616000Y-35115000D01*
X51685000Y-35155000D02*
X49627000Y-35155000D01*
X51685000Y-35195000D02*
X49639000Y-35195000D01*
X51685000Y-35235000D02*
X49652000Y-35235000D01*
X51685000Y-35275000D02*
X49665000Y-35275000D01*
X51685000Y-35315000D02*
X49678000Y-35315000D01*
X51685000Y-35355000D02*
X49693000Y-35355000D01*
X51685000Y-35395000D02*
X49708000Y-35395000D01*
X51685000Y-35435000D02*
X49723000Y-35435000D01*
X51685000Y-35475000D02*
X49739000Y-35475000D01*
X51685000Y-35515000D02*
X49756000Y-35515000D01*
X51685000Y-35555000D02*
X49773000Y-35555000D01*
X51685000Y-35595000D02*
X49791000Y-35595000D01*
X51685000Y-35635000D02*
X49810000Y-35635000D01*
X51685000Y-35675000D02*
X49829000Y-35675000D01*
X51685000Y-35715000D02*
X49849000Y-35715000D01*
X51685000Y-35755000D02*
X49870000Y-35755000D01*
X51685000Y-35795000D02*
X49891000Y-35795000D01*
X51685000Y-35835000D02*
X49913000Y-35835000D01*
X51685000Y-35875000D02*
X49936000Y-35875000D01*
X51685000Y-35915000D02*
X49960000Y-35915000D01*
X51685000Y-35955000D02*
X49984000Y-35955000D01*
X51685000Y-35995000D02*
X50009000Y-35995000D01*
X51685000Y-36035000D02*
X50035000Y-36035000D01*
X51685000Y-36075000D02*
X50062000Y-36075000D01*
X51685000Y-36115000D02*
X50089000Y-36115000D01*
X51685000Y-36155000D02*
X50118000Y-36155000D01*
X51685000Y-36195000D02*
X50148000Y-36195000D01*
X51685000Y-36235000D02*
X50178000Y-36235000D01*
X51685000Y-36275000D02*
X50209000Y-36275000D01*
X51685000Y-36315000D02*
X50242000Y-36315000D01*
X51685000Y-36355000D02*
X50275000Y-36355000D01*
X51685000Y-36395000D02*
X50310000Y-36395000D01*
X51685000Y-36435000D02*
X50346000Y-36435000D01*
X51685000Y-36475000D02*
X50383000Y-36475000D01*
X51685000Y-36515000D02*
X50421000Y-36515000D01*
X53127000Y-37475000D02*
X52323000Y-37475000D01*
X53358000Y-37435000D02*
X52092000Y-37435000D01*
X53526000Y-37395000D02*
X51924000Y-37395000D01*
X53664000Y-37355000D02*
X51786000Y-37355000D01*
X53783000Y-37315000D02*
X51667000Y-37315000D01*
X53890000Y-37275000D02*
X51560000Y-37275000D01*
X53986000Y-37235000D02*
X51464000Y-37235000D01*
X54075000Y-37195000D02*
X51375000Y-37195000D01*
X54157000Y-37155000D02*
X51293000Y-37155000D01*
X54234000Y-37115000D02*
X51216000Y-37115000D01*
X54306000Y-37075000D02*
X51144000Y-37075000D01*
X54374000Y-37035000D02*
X51076000Y-37035000D01*
X54439000Y-36995000D02*
X51011000Y-36995000D01*
X54500000Y-36955000D02*
X50950000Y-36955000D01*
X54559000Y-36915000D02*
X50891000Y-36915000D01*
X54564000Y-30734759D02*
X54564000Y-31364759D01*
X54615000Y-36875000D02*
X50835000Y-36875000D01*
X54668000Y-36835000D02*
X50782000Y-36835000D01*
X54720000Y-36795000D02*
X50730000Y-36795000D01*
X54769000Y-36755000D02*
X50681000Y-36755000D01*
X54816000Y-36715000D02*
X50634000Y-36715000D01*
X54862000Y-36675000D02*
X50588000Y-36675000D01*
X54879000Y-31049759D02*
X54249000Y-31049759D01*
X54906000Y-36635000D02*
X50544000Y-36635000D01*
X54948000Y-36595000D02*
X50502000Y-36595000D01*
X54989000Y-36555000D02*
X50461000Y-36555000D01*
X55029000Y-36515000D02*
X53765000Y-36515000D01*
X55067000Y-36475000D02*
X53765000Y-36475000D01*
X55104000Y-36435000D02*
X53765000Y-36435000D01*
X55140000Y-36395000D02*
X53765000Y-36395000D01*
X55175000Y-36355000D02*
X53765000Y-36355000D01*
X55208000Y-36315000D02*
X53765000Y-36315000D01*
X55241000Y-36275000D02*
X53765000Y-36275000D01*
X55272000Y-36235000D02*
X53765000Y-36235000D01*
X55302000Y-36195000D02*
X53765000Y-36195000D01*
X55332000Y-36155000D02*
X53765000Y-36155000D01*
X55361000Y-36115000D02*
X53765000Y-36115000D01*
X55388000Y-36075000D02*
X53765000Y-36075000D01*
X55415000Y-36035000D02*
X53765000Y-36035000D01*
X55441000Y-35995000D02*
X53765000Y-35995000D01*
X55466000Y-35955000D02*
X53765000Y-35955000D01*
X55490000Y-35915000D02*
X53765000Y-35915000D01*
X55514000Y-35875000D02*
X53765000Y-35875000D01*
X55537000Y-35835000D02*
X53765000Y-35835000D01*
X55559000Y-35795000D02*
X53765000Y-35795000D01*
X55580000Y-35755000D02*
X53765000Y-35755000D01*
X55601000Y-35715000D02*
X53765000Y-35715000D01*
X55621000Y-35675000D02*
X53765000Y-35675000D01*
X55640000Y-35635000D02*
X53765000Y-35635000D01*
X55659000Y-35595000D02*
X53765000Y-35595000D01*
X55677000Y-35555000D02*
X53765000Y-35555000D01*
X55694000Y-35515000D02*
X53765000Y-35515000D01*
X55711000Y-35475000D02*
X53765000Y-35475000D01*
X55727000Y-35435000D02*
X53765000Y-35435000D01*
X55742000Y-35395000D02*
X53765000Y-35395000D01*
X55757000Y-35355000D02*
X53765000Y-35355000D01*
X55772000Y-35315000D02*
X53765000Y-35315000D01*
X55785000Y-35275000D02*
X53765000Y-35275000D01*
X55798000Y-35235000D02*
X53765000Y-35235000D01*
X55811000Y-35195000D02*
X53765000Y-35195000D01*
X55823000Y-35155000D02*
X53765000Y-35155000D01*
X55834000Y-35115000D02*
X53765000Y-35115000D01*
X55845000Y-35075000D02*
X53765000Y-35075000D01*
X55856000Y-35035000D02*
X53765000Y-35035000D01*
X55865000Y-34995000D02*
X53765000Y-34995000D01*
X55875000Y-34955000D02*
X53765000Y-34955000D01*
X55884000Y-34915000D02*
X53765000Y-34915000D01*
X55892000Y-34875000D02*
X53765000Y-34875000D01*
X55899000Y-34835000D02*
X53765000Y-34835000D01*
X55907000Y-34795000D02*
X53765000Y-34795000D01*
X55913000Y-34755000D02*
X53765000Y-34755000D01*
X55920000Y-34715000D02*
X53765000Y-34715000D01*
X55925000Y-34675000D02*
X53765000Y-34675000D01*
X55930000Y-34635000D02*
X53765000Y-34635000D01*
X55935000Y-34595000D02*
X53765000Y-34595000D01*
X55939000Y-34555000D02*
X53765000Y-34555000D01*
X55943000Y-34515000D02*
X53765000Y-34515000D01*
X55946000Y-34475000D02*
X53765000Y-34475000D01*
X55949000Y-34435000D02*
X49501000Y-34435000D01*
X55951000Y-34395000D02*
X49499000Y-34395000D01*
X55953000Y-34355000D02*
X49497000Y-34355000D01*
X55954000Y-34315000D02*
X49496000Y-34315000D01*
X55955000Y-34235000D02*
X49495000Y-34235000D01*
X55955000Y-34275000D02*
X49495000Y-34275000D01*
X55995000Y-34235000D02*
G75*
G02*
X49455000Y-34235000I-3270000J0D01*
G01*
X49455000Y-34235000D02*
G75*
G02*
X55995000Y-34235000I3270000J0D01*
G01*
%TO.C,J2*%
X19750000Y-19685000D02*
X19750000Y-25235000D01*
X19750000Y-30785000D02*
X19750000Y-25235000D01*
X22700000Y-18935000D02*
X22700000Y-19685000D01*
X22700000Y-19685000D02*
X19750000Y-19685000D01*
X22700000Y-30785000D02*
X19750000Y-30785000D01*
X22700000Y-31535000D02*
X22700000Y-30785000D01*
X25250000Y-18635000D02*
X24000000Y-18635000D01*
X25250000Y-19885000D02*
X25250000Y-18635000D01*
X24200000Y-18935000D02*
X24950000Y-18935000D01*
X24950000Y-20735000D01*
X24200000Y-20735000D01*
X24200000Y-18935000D01*
X24200000Y-22235000D02*
X24950000Y-22235000D01*
X24950000Y-28235000D01*
X24200000Y-28235000D01*
X24200000Y-22235000D01*
X24200000Y-29735000D02*
X24950000Y-29735000D01*
X24950000Y-31535000D01*
X24200000Y-31535000D01*
X24200000Y-29735000D01*
X18990000Y-18925000D02*
X24960000Y-18925000D01*
X24960000Y-31545000D01*
X18990000Y-31545000D01*
X18990000Y-18925000D01*
%TO.C,C6*%
X71205000Y-59555000D02*
X71926000Y-59555000D01*
X71205000Y-63595000D02*
X71205000Y-59555000D01*
X71926000Y-63595000D02*
X71205000Y-63595000D01*
X73324000Y-59555000D02*
X74045000Y-59555000D01*
X74045000Y-59555000D02*
X74045000Y-63595000D01*
X74045000Y-63595000D02*
X73324000Y-63595000D01*
%TO.C,J3*%
X19095000Y-44635000D02*
X25065000Y-44635000D01*
X25065000Y-57255000D01*
X19095000Y-57255000D01*
X19095000Y-44635000D01*
X24305000Y-55445000D02*
X25055000Y-55445000D01*
X25055000Y-57245000D01*
X24305000Y-57245000D01*
X24305000Y-55445000D01*
X24305000Y-47945000D02*
X25055000Y-47945000D01*
X25055000Y-53945000D01*
X24305000Y-53945000D01*
X24305000Y-47945000D01*
X24305000Y-44645000D02*
X25055000Y-44645000D01*
X25055000Y-46445000D01*
X24305000Y-46445000D01*
X24305000Y-44645000D01*
X25355000Y-45595000D02*
X25355000Y-44345000D01*
X25355000Y-44345000D02*
X24105000Y-44345000D01*
X22805000Y-57245000D02*
X22805000Y-56495000D01*
X22805000Y-56495000D02*
X19855000Y-56495000D01*
X22805000Y-45395000D02*
X19855000Y-45395000D01*
X22805000Y-44645000D02*
X22805000Y-45395000D01*
X19855000Y-56495000D02*
X19855000Y-50945000D01*
X19855000Y-45395000D02*
X19855000Y-50945000D01*
%TO.C,C5*%
X50505000Y-18665000D02*
X54545000Y-18665000D01*
X50505000Y-19386000D02*
X50505000Y-18665000D01*
X50505000Y-21505000D02*
X50505000Y-20784000D01*
X54545000Y-18665000D02*
X54545000Y-19386000D01*
X54545000Y-20784000D02*
X54545000Y-21505000D01*
X54545000Y-21505000D02*
X50505000Y-21505000D01*
%TO.C,R4*%
X61495000Y-32625000D02*
X68035000Y-32625000D01*
X61495000Y-32955000D02*
X61495000Y-32625000D01*
X61495000Y-35035000D02*
X61495000Y-35365000D01*
X61495000Y-35365000D02*
X68035000Y-35365000D01*
X68035000Y-32625000D02*
X68035000Y-32955000D01*
X68035000Y-35365000D02*
X68035000Y-35035000D01*
%TO.C,U4*%
D17*
X59330000Y-18610000D02*
X75380000Y-18610000D01*
X59330000Y-31940000D02*
X59330000Y-18610000D01*
X75380000Y-18610000D02*
X75380000Y-31940000D01*
X75380000Y-31940000D02*
X59330000Y-31940000D01*
%TO.C,J1*%
D15*
X67175000Y-58925000D02*
X68975000Y-58925000D01*
X68975000Y-59675000D01*
X67175000Y-59675000D01*
X67175000Y-58925000D01*
X62175000Y-58925000D02*
X65675000Y-58925000D01*
X65675000Y-59675000D01*
X62175000Y-59675000D01*
X62175000Y-58925000D01*
X58875000Y-58925000D02*
X60675000Y-58925000D01*
X60675000Y-59675000D01*
X58875000Y-59675000D01*
X58875000Y-58925000D01*
X58865000Y-58915000D02*
X68985000Y-58915000D01*
X68985000Y-64885000D01*
X58865000Y-64885000D01*
X58865000Y-58915000D01*
X68975000Y-61175000D02*
X68225000Y-61175000D01*
X68225000Y-64125000D02*
X63925000Y-64125000D01*
X68225000Y-61175000D02*
X68225000Y-64125000D01*
X59825000Y-58625000D02*
X58575000Y-58625000D01*
X59625000Y-64125000D02*
X63925000Y-64125000D01*
X59625000Y-61175000D02*
X59625000Y-64125000D01*
X58875000Y-61175000D02*
X59625000Y-61175000D01*
X58575000Y-58625000D02*
X58575000Y-59875000D01*
%TO.C,R1*%
X18855000Y-32715000D02*
X18855000Y-33045000D01*
X18855000Y-35455000D02*
X18855000Y-35125000D01*
X25395000Y-32715000D02*
X18855000Y-32715000D01*
X25395000Y-33045000D02*
X25395000Y-32715000D01*
X25395000Y-35125000D02*
X25395000Y-35455000D01*
X25395000Y-35455000D02*
X18855000Y-35455000D01*
%TO.C,U1*%
X28205000Y-19005000D02*
X46645000Y-19005000D01*
X46645000Y-41965000D01*
X28205000Y-41965000D01*
X28205000Y-19005000D01*
%TO.C,U3*%
X58425000Y-57775000D02*
X58425000Y-35775000D01*
X75625000Y-57775000D02*
X58425000Y-57775000D01*
X75625000Y-35775000D02*
X75625000Y-57775000D01*
X58425000Y-35775000D02*
X75625000Y-35775000D01*
%TD*%
M02*
