M48
; DRILL file KiCad 10.0.2-10.0.2~ubuntu24.04.1 date 2026-05-19T00:45:34
; FORMAT={-:-/ absolute / metric / decimal}
; #@! TF.CreationDate,2026-05-19T00:45:34+02:00
; #@! TF.GenerationSoftware,Kicad,Pcbnew,10.0.2-10.0.2~ubuntu24.04.1
; #@! TF.FileFunction,Plated,1,2,PTH
FMAT,2
METRIC
; #@! TA.AperFunction,Plated,PTH,ViaDrill
T1C0.300
; #@! TA.AperFunction,Plated,PTH,ComponentDrill
T2C0.800
; #@! TA.AperFunction,Plated,PTH,ComponentDrill
T3C0.840
; #@! TA.AperFunction,Plated,PTH,ComponentDrill
T4C0.950
; #@! TA.AperFunction,Plated,PTH,ComponentDrill
T5C1.000
; #@! TA.AperFunction,Plated,PTH,ComponentDrill
T6C1.016
%
G90
G05
T1
X34.725Y-63.435
X55.725Y-54.435
T2
X18.315Y-34.085
X18.315Y-37.485
X18.315Y-40.885
X20.455Y-60.815
X20.455Y-63.315
X25.855Y-60.617
X25.855Y-63.117
X25.935Y-34.085
X25.935Y-37.485
X25.935Y-40.885
X47.455Y-56.255
X47.455Y-63.875
X48.915Y-40.885
X51.055Y-56.255
X51.055Y-63.875
X51.275Y-20.085
X52.725Y-24.967
X52.725Y-27.467
X52.725Y-32.985
X52.725Y-35.485
X53.775Y-20.085
X56.535Y-40.885
X60.955Y-33.995
X68.575Y-33.995
X72.625Y-60.325
X72.625Y-62.825
T3
X29.805Y-21.595
X29.805Y-24.135
X29.805Y-26.675
X29.805Y-29.215
X29.805Y-31.755
X29.805Y-34.295
X29.805Y-36.835
X29.805Y-39.375
X45.045Y-21.595
X45.045Y-24.135
X45.045Y-26.675
X45.045Y-29.215
X45.045Y-31.755
X45.045Y-34.295
X45.045Y-36.835
X45.045Y-39.375
T4
X22.5Y-21.485
X22.5Y-23.985
X22.5Y-26.485
X22.5Y-28.985
X22.605Y-47.195
X22.605Y-49.695
X22.605Y-52.195
X22.605Y-54.695
X61.425Y-61.375
X63.925Y-61.375
X66.425Y-61.375
T5
X31.105Y-45.775
X31.105Y-48.315
X31.105Y-50.855
X31.105Y-53.395
X31.105Y-55.935
X31.105Y-58.475
X31.105Y-61.015
X31.105Y-63.555
X38.725Y-63.555
X41.265Y-63.555
X43.805Y-45.775
X43.805Y-48.315
X43.805Y-50.855
X43.805Y-53.395
X43.805Y-55.935
X43.805Y-58.475
X43.805Y-61.015
X43.805Y-63.555
X60.675Y-37.885
X60.675Y-55.665
X63.215Y-37.885
X63.225Y-55.665
X70.835Y-37.885
X70.835Y-55.665
X73.375Y-37.885
X73.375Y-55.665
T6
X61.005Y-20.195
X61.005Y-30.355
X63.545Y-20.195
X63.545Y-30.355
X66.085Y-20.195
X66.085Y-30.355
X68.625Y-20.195
X68.625Y-30.355
X71.165Y-20.195
X71.165Y-30.355
X73.705Y-20.195
X73.705Y-30.355
M30
